<?xml version="1.0" encoding="UTF-8"?>
<svg version="1.1" xmlns="http://www.w3.org/2000/svg" width="551" height="161">
<path d="M0 0 C8.84214367 5.3662665 16.69777033 13.65161367 19.578125 23.75 C20.42255526 28.77248703 20.75044045 33.68993481 20.78125 38.7734375 C20.78695007 39.51904938 20.79265015 40.26466125 20.79852295 41.03286743 C20.80791234 42.60099901 20.8144826 44.16914979 20.81835938 45.73730469 C20.82807054 48.11168385 20.85915289 50.48519803 20.890625 52.859375 C20.96788459 63.79696179 20.4358959 72.46748473 12.578125 80.75 C13.898125 80.75 15.218125 80.75 16.578125 80.75 C16.21618491 90.52238246 11.63612832 97.12983779 4.578125 103.6875 C-4.6935834 111.87453738 -14.58100881 113.3037944 -26.51171875 112.99609375 C-37.21458626 112.3224867 -45.24603155 107.84777885 -52.984375 100.5625 C-55.421875 97.75 -55.421875 97.75 -55.421875 94.75 C-56.06125 94.523125 -56.700625 94.29625 -57.359375 94.0625 C-59.421875 92.75 -59.421875 92.75 -60.109375 90.25 C-60.2125 89.425 -60.315625 88.6 -60.421875 87.75 C-60.751875 87.09 -61.081875 86.43 -61.421875 85.75 C-60.926875 84.76 -60.926875 84.76 -60.421875 83.75 C-61.081875 83.75 -61.741875 83.75 -62.421875 83.75 C-62.091875 82.76 -61.761875 81.77 -61.421875 80.75 C-60.761875 80.75 -60.101875 80.75 -59.421875 80.75 C-59.421875 79.1 -59.421875 77.45 -59.421875 75.75 C-60.35 75.37875 -60.35 75.37875 -61.296875 75 C-63.85563611 73.4948464 -64.31822313 72.46505558 -65.421875 69.75 C-65.68257141 67.77975464 -65.68257141 67.77975464 -65.6965332 65.69091797 C-65.70606522 64.90264618 -65.71559723 64.11437439 -65.72541809 63.30221558 C-65.72450668 62.45740631 -65.72359528 61.61259705 -65.72265625 60.7421875 C-65.72694138 59.86152618 -65.7312265 58.98086487 -65.73564148 58.07351685 C-65.74138042 56.20917621 -65.74188825 54.34481317 -65.73754883 52.48046875 C-65.73440929 49.65585004 -65.75778175 46.83230022 -65.78320312 44.0078125 C-65.85763456 23.26341426 -65.85763456 23.26341426 -59.859375 14.125 C-59.44558594 13.47273438 -59.03179687 12.82046875 -58.60546875 12.1484375 C-58.21488281 11.68695313 -57.82429688 11.22546875 -57.421875 10.75 C-56.761875 10.75 -56.101875 10.75 -55.421875 10.75 C-55.17824219 10.16347656 -54.93460938 9.57695312 -54.68359375 8.97265625 C-50.53832901 1.67031682 -41.77935738 -1.8326327 -34.19140625 -4.30078125 C-22.35981108 -7.2801363 -10.73927425 -5.54285123 0 0 Z M-29.421875 1.75 C-29.421875 8.02 -29.421875 14.29 -29.421875 20.75 C-23.55083843 23.09841463 -20.30297321 22.71036607 -14.421875 20.75 C-13.84231737 14.16309631 -13.84231737 14.16309631 -15.984375 8.125 C-19.24429596 6.28607023 -21.74299694 6.46700938 -25.421875 6.75 C-25.421875 5.1 -25.421875 3.45 -25.421875 1.75 C-26.741875 1.75 -28.061875 1.75 -29.421875 1.75 Z M-19.234375 31.5 C-24.82775835 39.81016955 -24.81228156 48.02616055 -24.609375 57.8125 C-24.59583984 59.05966797 -24.58230469 60.30683594 -24.56835938 61.59179688 C-24.5332652 64.64498967 -24.48409767 67.6972599 -24.421875 70.75 C-22.441875 70.255 -22.441875 70.255 -20.421875 69.75 C-20.4125293 68.97398438 -20.40318359 68.19796875 -20.39355469 67.3984375 C-20.33954063 63.84833713 -20.25595197 60.29951052 -20.171875 56.75 C-20.15060547 54.91888672 -20.15060547 54.91888672 -20.12890625 53.05078125 C-19.90138399 44.63245766 -18.96849924 38.96161629 -13.421875 32.375 C-9.02224551 28.80030104 -5.72877241 28.47731777 -0.046875 28.5 C1.23960938 28.49484375 2.52609375 28.4896875 3.8515625 28.484375 C7.44526315 28.74052976 10.23700447 29.44665267 13.578125 30.75 C12.16465744 27.33412006 10.78700691 25.60969292 7.578125 23.75 C4.88641384 23.40042712 2.51569012 23.22579609 -0.171875 23.25 C-0.88835205 23.25499512 -1.6048291 23.25999023 -2.34301758 23.26513672 C-10.25998796 23.52642287 -13.79756677 26.18400973 -19.234375 31.5 Z M-54.421875 38.75 C-56.28497822 41.35024049 -56.28497822 41.35024049 -57.421875 43.75 C-53.31136836 42.29923295 -49.88473373 40.40754275 -46.421875 37.75 C-46.421875 36.76 -46.421875 35.77 -46.421875 34.75 C-49.80633925 34.75 -51.79099607 36.76341795 -54.421875 38.75 Z M-4.421875 59.75 C-4.421875 60.41 -4.421875 61.07 -4.421875 61.75 C-5.081875 61.75 -5.741875 61.75 -6.421875 61.75 C-7.99123094 64.88871188 -7.77388603 67.28855822 -7.421875 70.75 C-5.01663002 74.00415498 -3.31570677 75.44571685 0.515625 76.75 C4.38434204 76.75 6.38940126 75.92412982 9.578125 73.75 C11.39891224 70.82090749 11.59369953 69.13157601 11.453125 65.6875 C10.44949278 62.31816325 9.27287055 60.95479181 6.578125 58.75 C2.51581311 56.71884405 -0.75503125 57.3054375 -4.421875 59.75 Z M-35.421875 60.75 C-35.421875 69.66 -35.421875 78.57 -35.421875 87.75 C-35.091875 87.09 -34.761875 86.43 -34.421875 85.75 C-33.08854167 85.08333333 -31.75520833 84.41666667 -30.421875 83.75 C-28.71265911 82.2087688 -28.71265911 82.2087688 -27.421875 80.75 C-26.82375 81.08 -26.225625 81.41 -25.609375 81.75 C-23.36801029 82.95787988 -23.36801029 82.95787988 -20.421875 82.75 C-19.431875 82.09 -18.441875 81.43 -17.421875 80.75 C-16.431875 81.41 -15.441875 82.07 -14.421875 82.75 C-14.421875 80.77 -14.421875 78.79 -14.421875 76.75 C-16.071875 77.08 -17.721875 77.41 -19.421875 77.75 C-19.421875 78.41 -19.421875 79.07 -19.421875 79.75 C-21.071875 79.75 -22.721875 79.75 -24.421875 79.75 C-24.751875 78.76 -25.081875 77.77 -25.421875 76.75 C-27.071875 76.42 -28.721875 76.09 -30.421875 75.75 C-30.751875 70.8 -31.081875 65.85 -31.421875 60.75 C-32.741875 60.75 -34.061875 60.75 -35.421875 60.75 Z M-33.421875 90.75 C-31.03694662 94.81701049 -31.03694662 94.81701049 -28.52075195 95.20410156 C-27.82425537 95.1831543 -27.12775879 95.16220703 -26.41015625 95.140625 C-25.27416992 95.12128906 -25.27416992 95.12128906 -24.11523438 95.1015625 C-23.32955078 95.06804687 -22.54386719 95.03453125 -21.734375 95 C-20.93708984 94.98195313 -20.13980469 94.96390625 -19.31835938 94.9453125 C-17.35235051 94.89822247 -15.38696006 94.82647899 -13.421875 94.75 C-13.091875 93.76 -12.761875 92.77 -12.421875 91.75 C-11.761875 91.42 -11.101875 91.09 -10.421875 90.75 C-18.011875 90.75 -25.601875 90.75 -33.421875 90.75 Z " fill="#05050C" transform="translate(94.421875,22.25)"/>
<path d="M0 0 C0.98226562 0.40025391 0.98226562 0.40025391 1.984375 0.80859375 C5.02706195 1.82107406 8.07530142 2.16757977 11.25 2.5625 C11.337842 7.04154099 11.39067447 11.52035724 11.4375 16 C11.46263672 17.26005859 11.48777344 18.52011719 11.51367188 19.81835938 C11.59592247 30.31901882 10.59015513 37.82557973 3.25 45.5625 C4.57 45.5625 5.89 45.5625 7.25 45.5625 C6.88805991 55.33488246 2.30800332 61.94233779 -4.75 68.5 C-14.0217084 76.68703738 -23.90913381 78.1162944 -35.83984375 77.80859375 C-46.54271126 77.1349867 -54.57415655 72.66027885 -62.3125 65.375 C-64.75 62.5625 -64.75 62.5625 -64.75 59.5625 C-65.389375 59.335625 -66.02875 59.10875 -66.6875 58.875 C-68.75 57.5625 -68.75 57.5625 -69.4375 55.0625 C-69.540625 54.2375 -69.64375 53.4125 -69.75 52.5625 C-70.08 51.9025 -70.41 51.2425 -70.75 50.5625 C-70.42 49.9025 -70.09 49.2425 -69.75 48.5625 C-70.41 48.5625 -71.07 48.5625 -71.75 48.5625 C-71.42 47.5725 -71.09 46.5825 -70.75 45.5625 C-70.09 45.5625 -69.43 45.5625 -68.75 45.5625 C-68.75 43.9125 -68.75 42.2625 -68.75 40.5625 C-65.5 40.5 -65.5 40.5 -61.75 41.5625 C-60.42492175 43.67448478 -59.64757118 45.79570536 -58.78515625 48.1328125 C-56.9911495 52.34365099 -53.90134216 56.48682892 -49.75 58.5625 C-49.75 54.6025 -49.75 50.6425 -49.75 46.5625 C-51.4 46.2325 -53.05 45.9025 -54.75 45.5625 C-55.245 43.0875 -55.245 43.0875 -55.75 40.5625 C-54.656875 40.35625 -53.56375 40.15 -52.4375 39.9375 C-48.5214341 38.90586062 -48.5214341 38.90586062 -46.8125 35.4375 C-46.461875 34.48875 -46.11125 33.54 -45.75 32.5625 C-45.42 32.5625 -45.09 32.5625 -44.75 32.5625 C-44.42 38.5025 -44.09 44.4425 -43.75 50.5625 C-41.44 48.5825 -39.13 46.6025 -36.75 44.5625 C-35.43 45.2225 -34.11 45.8825 -32.75 46.5625 C-29.56509993 46.8398501 -29.56509993 46.8398501 -26.75 44.5625 C-26.09 45.2225 -25.43 45.8825 -24.75 46.5625 C-24.42 44.9125 -24.09 43.2625 -23.75 41.5625 C-27.01954202 42.12621414 -28.57575883 43.06212266 -30.75 45.5625 C-31.74 45.2325 -32.73 44.9025 -33.75 44.5625 C-34.08 43.9025 -34.41 43.2425 -34.75 42.5625 C-36.72888961 41.83556096 -38.72954558 41.16433749 -40.75 40.5625 C-39.76 37.9225 -38.77 35.2825 -37.75 32.5625 C-36.76 32.5625 -35.77 32.5625 -34.75 32.5625 C-34.42 33.5525 -34.09 34.5425 -33.75 35.5625 C-32.76 35.2325 -31.77 34.9025 -30.75 34.5625 C-30.73018066 33.77077393 -30.71036133 32.97904785 -30.68994141 32.16333008 C-30.5945284 28.5668924 -30.48491409 24.97102249 -30.375 21.375 C-30.3440625 20.12912109 -30.313125 18.88324219 -30.28125 17.59960938 C-30.24257812 16.39755859 -30.20390625 15.19550781 -30.1640625 13.95703125 C-30.1326416 12.85206299 -30.1012207 11.74709473 -30.06884766 10.60864258 C-29.7477574 7.54107511 -29.15850935 5.29968039 -27.75 2.5625 C-25.625 1.75 -25.625 1.75 -23.75 1.5625 C-22.65341064 4.85226808 -22.95046862 6.27553767 -23.75 9.5625 C-22.1 8.5725 -20.45 7.5825 -18.75 6.5625 C-20.73 7.5525 -20.73 7.5525 -22.75 8.5625 C-22.54396857 4.95694997 -21.73789733 3.54816789 -19.375 0.75 C-13.77727178 -3.50534736 -6.24562223 -2.14593174 0 0 Z M-13.75 24.5625 C-13.75 25.2225 -13.75 25.8825 -13.75 26.5625 C-14.41 26.5625 -15.07 26.5625 -15.75 26.5625 C-17.31935594 29.70121188 -17.10201103 32.10105822 -16.75 35.5625 C-14.34475502 38.81665498 -12.64383177 40.25821685 -8.8125 41.5625 C-4.94378296 41.5625 -2.93872374 40.73662982 0.25 38.5625 C2.07078724 35.63340749 2.26557453 33.94407601 2.125 30.5 C1.12136778 27.13066325 -0.05525445 25.76729181 -2.75 23.5625 C-6.81231189 21.53134405 -10.08315625 22.1179375 -13.75 24.5625 Z M-42.75 55.5625 C-40.36507162 59.62951049 -40.36507162 59.62951049 -37.84887695 60.01660156 C-37.15238037 59.9956543 -36.45588379 59.97470703 -35.73828125 59.953125 C-34.60229492 59.93378906 -34.60229492 59.93378906 -33.44335938 59.9140625 C-32.65767578 59.88054687 -31.87199219 59.84703125 -31.0625 59.8125 C-30.26521484 59.79445313 -29.46792969 59.77640625 -28.64648438 59.7578125 C-26.68047551 59.71072247 -24.71508506 59.63897899 -22.75 59.5625 C-22.42 58.5725 -22.09 57.5825 -21.75 56.5625 C-21.09 56.2325 -20.43 55.9025 -19.75 55.5625 C-27.34 55.5625 -34.93 55.5625 -42.75 55.5625 Z " fill="#050308" transform="translate(103.75,57.4375)"/>
<path d="M0 0 C1.22225611 3.00914141 0.96019011 5.52369298 0.5 8.6875 C0.29370412 10.11984983 0.11702959 11.55761028 0 13 C0.33 13.33 0.66 13.66 1 14 C1.27953219 16.0587768 1.44734351 18.11728432 1.62109375 20.1875 C1.74613281 20.785625 1.87117188 21.38375 2 22 C2.66 22.33 3.32 22.66 4 23 C4.33 22.01 4.66 21.02 5 20 C5.58007812 20.08378906 6.16015625 20.16757812 6.7578125 20.25390625 C11.42315303 20.86209421 15.35442117 21.07205665 20 20 C19.505 21.485 19.505 21.485 19 23 C19.99 23 20.98 23 22 23 C22 23.99 22 24.98 22 26 C20.54044651 27.29738088 19.07308598 28.58952965 17.53515625 29.79296875 C15.89342165 31.08379825 14.43563487 32.48460764 13 34 C12.01 33.34 11.02 32.68 10 32 C9.34 33.98 8.68 35.96 8 38 C6.35 37.67 4.7 37.34 3 37 C3 36.01 3 35.02 3 34 C2.01 34.66 1.02 35.32 0 36 C0.639375 36.7425 1.27875 37.485 1.9375 38.25 C5.05850176 42.41133568 5.12354309 45.62238023 5.0625 50.75 C5.05347656 51.73484375 5.04445313 52.7196875 5.03515625 53.734375 C5.02355469 54.48203125 5.01195313 55.2296875 5 56 C2.69 56 0.38 56 -2 56 C-3.70063265 58.72101224 -4.16364571 60.98708624 -4.4375 64.125 C-4.623125 65.40375 -4.80875 66.6825 -5 68 C-8.4352048 70.29013653 -9.985331 70.17842973 -14 70 C-14.33 69.01 -14.66 68.02 -15 67 C-15.66 68.65 -16.32 70.3 -17 72 C-19.97 72 -22.94 72 -26 72 C-26 69.69 -26 67.38 -26 65 C-22.37 65 -18.74 65 -15 65 C-15 61.7 -15 58.4 -15 55 C-11.37 54.34 -7.74 53.68 -4 53 C-3.67 52.01 -3.34 51.02 -3 50 C-10.26 49.67 -17.52 49.34 -25 49 C-25 45.28564349 -24.97310007 42.50316024 -24 39 C-23.01 38.505 -23.01 38.505 -22 38 C-20.9254644 36.2236068 -20.9254644 36.2236068 -21 35 C-22.65 35 -24.3 35 -26 35 C-22.37854193 17.44657971 -22.37854193 17.44657971 -16 11 C-15.48566406 10.43925781 -14.97132812 9.87851562 -14.44140625 9.30078125 C-13 8 -13 8 -11 8 C-10.93941406 9.05960938 -10.87882812 10.11921875 -10.81640625 11.2109375 C-10.73199873 12.59897221 -10.64735083 13.98699232 -10.5625 15.375 C-10.52318359 16.07367188 -10.48386719 16.77234375 -10.44335938 17.4921875 C-10.25719866 21.37360492 -10.25719866 21.37360492 -9 25 C-7.29084726 23.29084726 -7.64861653 20.99238377 -7.46484375 18.65234375 C-7.37783203 17.57275391 -7.29082031 16.49316406 -7.20117188 15.38085938 C-7.11416016 14.24455078 -7.02714844 13.10824219 -6.9375 11.9375 C-6.84662109 10.79732422 -6.75574219 9.65714844 -6.66210938 8.48242188 C-6.43735454 5.65524259 -6.21684289 2.82779536 -6 0 C-3 -1 -3 -1 0 0 Z M-20 38 C-21.86310322 40.60024049 -21.86310322 40.60024049 -23 43 C-18.88949336 41.54923295 -15.46285873 39.65754275 -12 37 C-12 36.01 -12 35.02 -12 34 C-15.38446425 34 -17.36912107 36.01341795 -20 38 Z " fill="#070103" transform="translate(60,23)"/>
<path d="M0 0 C1.29997925 0.00303635 1.29997925 0.00303635 2.6262207 0.00613403 C3.51027588 0.00517731 4.39433105 0.00422058 5.30517578 0.00323486 C7.178142 0.00255302 9.05111056 0.0044076 10.92407227 0.00857544 C13.80140458 0.01392364 16.67858078 0.0086306 19.5559082 0.00222778 C21.37101272 0.00288856 23.18611713 0.00416972 25.0012207 0.00613403 C25.86787354 0.0041098 26.73452637 0.00208557 27.62744141 0 C33.69877061 0.02399644 33.69877061 0.02399644 34.8137207 1.13894653 C34.88631016 3.32534106 34.89745853 5.51395042 34.8762207 7.70144653 C34.86719727 8.8989856 34.85817383 10.09652466 34.84887695 11.33035278 C34.83727539 12.25718872 34.82567383 13.18402466 34.8137207 14.13894653 C32.33391125 13.69612342 30.88344283 13.19172424 28.8527832 11.65457153 C23.20180224 7.45422553 15.50905896 7.94030564 8.8449707 8.75222778 C6.75585831 9.05452688 6.75585831 9.05452688 4.8137207 10.13894653 C4.16158779 12.16357908 4.16158779 12.16357908 3.8137207 14.13894653 C4.50522217 14.16400269 5.19672363 14.18905884 5.90917969 14.21487427 C9.02339937 14.33046815 12.1372886 14.45335895 15.2512207 14.57644653 C16.33983398 14.61576294 17.42844727 14.65507935 18.55004883 14.69558716 C20.10175781 14.75842896 20.10175781 14.75842896 21.68481445 14.82254028 C22.64315186 14.859198 23.60148926 14.89585571 24.58886719 14.93362427 C26.8137207 15.13894653 26.8137207 15.13894653 27.8137207 16.13894653 C27.85465008 18.47192086 27.85613794 20.80599878 27.8137207 23.13894653 C26.58395508 23.05515747 25.35418945 22.97136841 24.0871582 22.88504028 C22.45436828 22.78181793 20.82155445 22.6789733 19.1887207 22.57644653 C18.38047852 22.52037231 17.57223633 22.4642981 16.73950195 22.40652466 C12.25209555 22.13290232 8.24509571 22.17092772 3.8137207 23.13894653 C3.8137207 24.78894653 3.8137207 26.43894653 3.8137207 28.13894653 C8.12088551 29.1800546 12.34161748 29.35619182 16.7512207 29.38894653 C17.78666016 29.41988403 17.78666016 29.41988403 18.84301758 29.45144653 C23.59628138 29.48749024 26.78641373 28.65222833 30.8137207 26.13894653 C31.3499707 25.41707153 31.8862207 24.69519653 32.4387207 23.95144653 C32.8924707 23.35332153 33.3462207 22.75519653 33.8137207 22.13894653 C35.1337207 22.13894653 36.4537207 22.13894653 37.8137207 22.13894653 C38.98938342 27.72334443 38.8137207 32.1256371 38.8137207 38.13894653 C23.3037207 38.13894653 7.7937207 38.13894653 -8.1862793 38.13894653 C-8.1862793 0.03235561 -8.1862793 0.03235561 0 0 Z " fill="#000000" transform="translate(149.186279296875,37.861053466796875)"/>
<path d="M0 0 C1.29997925 0.00303635 1.29997925 0.00303635 2.6262207 0.00613403 C3.51027588 0.00517731 4.39433105 0.00422058 5.30517578 0.00323486 C7.178142 0.00255302 9.05111056 0.0044076 10.92407227 0.00857544 C13.80140458 0.01392364 16.67858078 0.0086306 19.5559082 0.00222778 C21.37101272 0.00288856 23.18611713 0.00416972 25.0012207 0.00613403 C25.86787354 0.0041098 26.73452637 0.00208557 27.62744141 0 C33.69877061 0.02399644 33.69877061 0.02399644 34.8137207 1.13894653 C34.88631016 3.32534106 34.89745853 5.51395042 34.8762207 7.70144653 C34.86719727 8.8989856 34.85817383 10.09652466 34.84887695 11.33035278 C34.83727539 12.25718872 34.82567383 13.18402466 34.8137207 14.13894653 C32.33391125 13.69612342 30.88344283 13.19172424 28.8527832 11.65457153 C23.20180224 7.45422553 15.50905896 7.94030564 8.8449707 8.75222778 C6.75585831 9.05452688 6.75585831 9.05452688 4.8137207 10.13894653 C4.16158779 12.16357908 4.16158779 12.16357908 3.8137207 14.13894653 C4.50522217 14.16400269 5.19672363 14.18905884 5.90917969 14.21487427 C9.02339937 14.33046815 12.1372886 14.45335895 15.2512207 14.57644653 C16.33983398 14.61576294 17.42844727 14.65507935 18.55004883 14.69558716 C20.10175781 14.75842896 20.10175781 14.75842896 21.68481445 14.82254028 C22.64315186 14.859198 23.60148926 14.89585571 24.58886719 14.93362427 C26.8137207 15.13894653 26.8137207 15.13894653 27.8137207 16.13894653 C27.85465008 18.47192086 27.85613794 20.80599878 27.8137207 23.13894653 C26.58395508 23.04355591 25.35418945 22.94816528 24.0871582 22.84988403 C22.45438873 22.73727924 20.82157361 22.62533495 19.1887207 22.51394653 C18.38047852 22.44949341 17.57223633 22.38504028 16.73950195 22.31863403 C11.93594578 22.00620762 8.34305009 22.2187454 3.8137207 24.13894653 C3.8137207 25.45894653 3.8137207 26.77894653 3.8137207 28.13894653 C8.12088551 29.1800546 12.34161748 29.35619182 16.7512207 29.38894653 C17.78666016 29.41988403 17.78666016 29.41988403 18.84301758 29.45144653 C23.59628138 29.48749024 26.78641373 28.65222833 30.8137207 26.13894653 C31.3499707 25.41707153 31.8862207 24.69519653 32.4387207 23.95144653 C32.8924707 23.35332153 33.3462207 22.75519653 33.8137207 22.13894653 C35.1337207 22.13894653 36.4537207 22.13894653 37.8137207 22.13894653 C38.98938342 27.72334443 38.8137207 32.1256371 38.8137207 38.13894653 C23.3037207 38.13894653 7.7937207 38.13894653 -8.1862793 38.13894653 C-8.1862793 0.03235561 -8.1862793 0.03235561 0 0 Z " fill="#000000" transform="translate(293.186279296875,37.861053466796875)"/>
<path d="M0 0 C5.67830078 -0.02464705 11.35657069 -0.04283462 17.03491211 -0.05493164 C18.96818585 -0.05997256 20.90145576 -0.06680519 22.8347168 -0.07543945 C25.60726872 -0.08751565 28.37977041 -0.09323057 31.15234375 -0.09765625 C32.45702858 -0.10539818 32.45702858 -0.10539818 33.78807068 -0.11329651 C35.85905814 -0.11349185 37.92994324 -0.06208168 40 0 C41 1 41 1 41.09765625 3.94140625 C41.08605469 5.13636719 41.07445312 6.33132812 41.0625 7.5625 C41.05347656 8.76003906 41.04445313 9.95757812 41.03515625 11.19140625 C41.02355469 12.11824219 41.01195312 13.04507813 41 14 C37.2109375 13.1796875 37.2109375 13.1796875 35.3125 11.5625 C28.67171875 7.07548564 20.58829029 7.7158278 13 9 C12.01 9.495 12.01 9.495 11 10 C10.34786708 12.02463255 10.34786708 12.02463255 10 14 C10.69150146 14.02505615 11.38300293 14.0501123 12.09545898 14.07592773 C15.20967866 14.19152161 18.32356789 14.31441242 21.4375 14.4375 C22.52611328 14.47681641 23.61472656 14.51613281 24.73632812 14.55664062 C26.28803711 14.61948242 26.28803711 14.61948242 27.87109375 14.68359375 C28.82943115 14.72025146 29.78776855 14.75690918 30.77514648 14.79467773 C33 15 33 15 34 16 C34.04092937 18.33297433 34.04241723 20.66705225 34 23 C32.77023437 22.91621094 31.54046875 22.83242188 30.2734375 22.74609375 C28.64064758 22.6428714 27.00783375 22.54002677 25.375 22.4375 C24.56675781 22.38142578 23.75851562 22.32535156 22.92578125 22.26757812 C18.43837484 21.99395578 14.43137501 22.03198119 10 23 C10.54708727 25.53744315 10.54708727 25.53744315 12 28 C19.20325195 29.7325606 27.59591902 30.17382103 34.625 27.75 C37.07243021 26.1252825 37.07243021 26.1252825 38.625 23.8125 C39.07875 23.214375 39.5325 22.61625 40 22 C41.32 22 42.64 22 44 22 C45 26 45 26 45 38 C29.49 38 13.98 38 -2 38 C-2 17.07835821 -2 17.07835821 -1.5625 10 C-1.50352539 8.85917969 -1.50352539 8.85917969 -1.44335938 7.6953125 C-1.12891411 2.25782822 -1.12891411 2.25782822 0 0 Z " fill="#010101" transform="translate(384,38)"/>
<path d="M0 0 C0.71445282 -0.00570007 1.42890564 -0.01140015 2.16500854 -0.01727295 C3.68323276 -0.02674105 5.20147769 -0.03326408 6.71972656 -0.03710938 C9.024465 -0.0467486 11.32828617 -0.07772485 13.6328125 -0.109375 C15.10936972 -0.11591172 16.58593331 -0.12115956 18.0625 -0.125 C18.74506866 -0.1373468 19.42763733 -0.1496936 20.13088989 -0.16241455 C25.88211505 -0.13614077 29.99629008 1.40523626 34.8671875 4.390625 C36.70425287 7.5244424 36.65143319 10.74953813 35.9296875 14.203125 C33.09201312 17.93263989 30.38333882 19.80340601 25.9296875 21.203125 C26.47238281 21.58984375 27.01507813 21.9765625 27.57421875 22.375 C28.28964844 22.89578125 29.00507813 23.4165625 29.7421875 23.953125 C30.44988281 24.46359375 31.15757812 24.9740625 31.88671875 25.5 C34.00532545 27.26618073 35.48458067 28.8548264 36.9296875 31.203125 C37.1171875 34.953125 37.1171875 34.953125 36.9296875 38.203125 C32.6396875 38.203125 28.3496875 38.203125 23.9296875 38.203125 C23.3934375 36.965625 22.8571875 35.728125 22.3046875 34.453125 C20.1929985 30.29596722 18.24163497 28.23706249 13.9296875 26.203125 C10.89678946 25.62235729 8.02556267 25.3907538 4.9296875 25.203125 C4.9296875 29.493125 4.9296875 33.783125 4.9296875 38.203125 C-5.12890625 38.30078125 -5.12890625 38.30078125 -8.0703125 38.203125 C-10.00426685 36.26917065 -9.20289751 33.38537422 -9.20922852 30.8137207 C-9.20463623 29.93159912 -9.20004395 29.04947754 -9.1953125 28.140625 C-9.19265381 27.24625732 -9.18999512 26.35188965 -9.18725586 25.43041992 C-9.00933368 0.05511414 -9.00933368 0.05511414 0 0 Z M4.9296875 8.203125 C3.05425396 12.07075946 3.05425396 12.07075946 3.9296875 16.203125 C7.92433166 17.2423221 11.00132059 17.09666259 15.0546875 16.390625 C16.08851563 16.21917969 17.12234375 16.04773438 18.1875 15.87109375 C21.12214822 15.32183261 21.12214822 15.32183261 23.9296875 13.203125 C23.58182042 11.22775755 23.58182042 11.22775755 22.9296875 9.203125 C19.74144182 7.60900216 16.30072088 8.10137765 12.8046875 8.140625 C11.67353516 8.14739258 11.67353516 8.14739258 10.51953125 8.15429688 C8.65621623 8.16609001 6.79294195 8.18402558 4.9296875 8.203125 Z " fill="#000000" transform="translate(343.0703125,37.796875)"/>
<path d="M0 0 C11.0568554 4.30320859 20.54506143 11.92873822 26.0625 22.625 C28.4203445 28.57319863 28.38263317 35.05268094 28.5625 41.375 C24.42623584 41.49489171 21.13325784 41.4995742 17.3125 39.875 C12.08333903 38.00360506 7.06633884 37.57253855 1.5625 38.375 C-1.64667178 39.95095414 -1.64667178 39.95095414 -3.4375 42.375 C-3.4375 43.365 -3.4375 44.355 -3.4375 45.375 C-2.4475 45.375 -1.4575 45.375 -0.4375 45.375 C-1.75 46.875 -1.75 46.875 -3.4375 48.375 C-4.4275 48.375 -5.4175 48.375 -6.4375 48.375 C-6.4375 46.065 -6.4375 43.755 -6.4375 41.375 C-7.4275 41.375 -8.4175 41.375 -9.4375 41.375 C-7.73332642 37.39859499 -5.38843768 34.66344128 -1.76953125 32.2734375 C1.53266105 31.00123611 4.47247752 31.11101577 8 31.125 C9.29808594 31.11984375 10.59617188 31.1146875 11.93359375 31.109375 C15.2980839 31.35564554 17.55514047 31.91477919 20.5625 33.375 C17.69795847 29.82095043 16.32026914 28.47808738 11.71484375 27.8515625 C10.30922483 27.87527491 8.90383654 27.92536891 7.5 28 C6.43942383 28.02126953 6.43942383 28.02126953 5.35742188 28.04296875 C1.98012049 28.138104 -1.20625464 28.3510729 -4.4375 29.375 C-4.4375 28.715 -4.4375 28.055 -4.4375 27.375 C-5.4275 27.375 -6.4175 27.375 -7.4375 27.375 C-7.7675 28.365 -8.0975 29.355 -8.4375 30.375 C-8.27765625 29.66601562 -8.1178125 28.95703125 -7.953125 28.2265625 C-7.43372965 25.35414883 -7.23571154 22.66679796 -7.1875 19.75 C-7.16171875 18.80898438 -7.1359375 17.86796875 -7.109375 16.8984375 C-7.2378296 14.35511442 -7.2378296 14.35511442 -8.72265625 12.58203125 C-11.40808744 10.69183025 -14.23122767 10.67747852 -17.4375 10.375 C-17.4375 8.725 -17.4375 7.075 -17.4375 5.375 C-18.7575 5.375 -20.0775 5.375 -21.4375 5.375 C-21.41429688 6.13425781 -21.39109375 6.89351562 -21.3671875 7.67578125 C-21.34914063 8.66964844 -21.33109375 9.66351563 -21.3125 10.6875 C-21.28929688 11.67363281 -21.26609375 12.65976562 -21.2421875 13.67578125 C-21.4375 16.375 -21.4375 16.375 -23.4375 19.375 C-23.46448422 16.93742587 -23.48433099 14.50015085 -23.5 12.0625 C-23.50837891 11.37220703 -23.51675781 10.68191406 -23.52539062 9.97070312 C-23.54057906 6.8266975 -23.43943327 4.38079981 -22.4375 1.375 C-23.0975 0.715 -23.7575 0.055 -24.4375 -0.625 C-17.93155322 -3.87797339 -6.65617032 -2.06985426 0 0 Z " fill="#05050C" transform="translate(86.4375,18.625)"/>
<path d="M0 0 C0.9075 0.00257812 1.815 0.00515625 2.75 0.0078125 C4.11125 0.00394531 4.11125 0.00394531 5.5 0 C7.75 0.1328125 7.75 0.1328125 8.75 1.1328125 C8.82226502 2.98568752 8.8338122 4.84115128 8.8125 6.6953125 C8.80347656 7.70722656 8.79445312 8.71914063 8.78515625 9.76171875 C8.77355469 10.54417969 8.76195312 11.32664062 8.75 12.1328125 C12.38743073 13.7969535 15.19522458 14.38260332 19.1875 14.3203125 C20.09371094 14.31386719 20.99992187 14.30742188 21.93359375 14.30078125 C24.8928137 14.12429518 27.82585688 13.62016969 30.75 13.1328125 C30.75 8.8428125 30.75 4.5528125 30.75 0.1328125 C39.24609375 0.03515625 39.24609375 0.03515625 41.75 0.1328125 C46.01021973 4.39303223 43.85863662 21.69831733 43.875 27.5078125 C43.88188843 28.90821777 43.88188843 28.90821777 43.88891602 30.33691406 C43.88690186 31.20541992 43.8848877 32.07392578 43.8828125 32.96875 C43.88168457 33.74782715 43.88055664 34.5269043 43.87939453 35.32958984 C43.75 37.1328125 43.75 37.1328125 42.75 38.1328125 C40.73035801 38.20525303 38.70832876 38.21658438 36.6875 38.1953125 C35.03041016 38.18177734 35.03041016 38.18177734 33.33984375 38.16796875 C32.48519531 38.15636719 31.63054687 38.14476562 30.75 38.1328125 C29.8776588 35.13800333 29.64170234 32.49705339 29.6875 29.3828125 C29.69652344 28.58359375 29.70554687 27.784375 29.71484375 26.9609375 C29.72644531 26.35765625 29.73804688 25.754375 29.75 25.1328125 C26.60597519 23.5608001 23.26052603 23.94834506 19.8125 23.9453125 C19.08353516 23.93306641 18.35457031 23.92082031 17.60351562 23.90820312 C13.7786609 23.89768565 12.00643436 23.96185626 8.75 26.1328125 C8.83378906 26.91527344 8.91757813 27.69773437 9.00390625 28.50390625 C9.10574219 29.51582031 9.20757812 30.52773437 9.3125 31.5703125 C9.41691406 32.57964844 9.52132812 33.58898437 9.62890625 34.62890625 C9.68884766 35.86833984 9.68884766 35.86833984 9.75 37.1328125 C8.75 38.1328125 8.75 38.1328125 5.80859375 38.23046875 C4.61363281 38.21886719 3.41867188 38.20726562 2.1875 38.1953125 C0.39119141 38.18177734 0.39119141 38.18177734 -1.44140625 38.16796875 C-2.36824219 38.15636719 -3.29507813 38.14476562 -4.25 38.1328125 C-5.50807401 29.42830044 -5.11257259 21.11484524 -4.375 12.3828125 C-4.28428223 11.29871094 -4.19356445 10.21460938 -4.10009766 9.09765625 C-3.28979164 0.19418909 -3.28979164 0.19418909 0 0 Z " fill="#010101" transform="translate(239.25,37.8671875)"/>
<path d="M0 0 C2.00720923 0.28674418 4.0085944 0.61866701 6 1 C6.08845016 4.14565046 6.14086835 7.29097375 6.1875 10.4375 C6.21263672 11.31599609 6.23777344 12.19449219 6.26367188 13.09960938 C6.36630208 22.3705376 4.42188345 29.23098772 -2 36 C-0.68 36 0.64 36 2 36 C1.63805991 45.77238246 -2.94199668 52.37983779 -10 58.9375 C-19.2717084 67.12453738 -29.15913381 68.5537944 -41.08984375 68.24609375 C-51.79271126 67.5724867 -59.82415655 63.09777885 -67.5625 55.8125 C-70 53 -70 53 -70 50 C-70.639375 49.773125 -71.27875 49.54625 -71.9375 49.3125 C-74 48 -74 48 -74.6875 45.5 C-74.790625 44.675 -74.89375 43.85 -75 43 C-75.33 42.34 -75.66 41.68 -76 41 C-75.67 40.34 -75.34 39.68 -75 39 C-75.66 39 -76.32 39 -77 39 C-77 38.34 -77 37.68 -77 37 C-74.69 37 -72.38 37 -70 37 C-69.61328125 37.80824219 -69.2265625 38.61648437 -68.828125 39.44921875 C-68.30734375 40.51785156 -67.7865625 41.58648437 -67.25 42.6875 C-66.73953125 43.74324219 -66.2290625 44.79898438 -65.703125 45.88671875 C-63.05303719 50.73103064 -60.49281878 54.11553128 -55.5625 56.6875 C-54.82128906 57.08324219 -54.08007812 57.47898438 -53.31640625 57.88671875 C-46.85403696 60.9925792 -41.13199446 63.04472318 -34 61 C-26.51529386 55.76785669 -20.75759623 47.99521037 -15 41 C-13.68 41.33 -12.36 41.66 -11 42 C-11 46 -11 46 -12.64453125 48 C-13.35996094 48.66 -14.07539062 49.32 -14.8125 50 C-16.97361989 52.01547064 -18.89610983 53.85718201 -20.63671875 56.25 C-21.08660156 56.8275 -21.53648438 57.405 -22 58 C-22.66 58 -23.32 58 -24 58 C-24 58.66 -24 59.32 -24 60 C-13.88683718 54.24161548 -7.77277772 49.00853109 -4.4453125 37.6875 C-4.29835938 37.130625 -4.15140625 36.57375 -4 36 C-4.53367187 36.15597656 -5.06734375 36.31195313 -5.6171875 36.47265625 C-11.77717777 38.08192706 -16.70270018 37.88694364 -23 37 C-23 33.04 -23 29.08 -23 25 C-22.13375 25.804375 -21.2675 26.60875 -20.375 27.4375 C-17.32070607 29.96717403 -15.05198867 30.91378748 -11 31 C-8.2225097 30.52269471 -8.2225097 30.52269471 -6 29 C-4.63921965 26.47627099 -4.63921965 26.47627099 -4 24 C-2.515 24.495 -2.515 24.495 -1 25 C-1.00523682 24.27820557 -1.01047363 23.55641113 -1.01586914 22.81274414 C-1.03657358 19.56267151 -1.04963918 16.31261272 -1.0625 13.0625 C-1.07087891 11.92619141 -1.07925781 10.78988281 -1.08789062 9.61914062 C-1.09111328 8.53955078 -1.09433594 7.45996094 -1.09765625 6.34765625 C-1.10289307 5.34742432 -1.10812988 4.34719238 -1.11352539 3.31665039 C-1 1 -1 1 0 0 Z " fill="#0D0407" transform="translate(109,67)"/>
<path d="M0 0 C3.99479211 0.45554647 5.61423127 1.16864774 8.4453125 4.05078125 C10.45773667 7.06220452 12.19955609 10.05339111 13.8515625 13.26953125 C15.21081495 15.9134965 16.63439007 18.51761748 18.0625 21.125 C20.05761025 24.81394653 22.04179554 28.50743176 23.97265625 32.23046875 C24.37621338 33.00543701 24.77977051 33.78040527 25.19555664 34.57885742 C26.0625 36.625 26.0625 36.625 26.0625 39.625 C21.4425 39.625 16.8225 39.625 12.0625 39.625 C11.5675 36.16 11.5675 36.16 11.0625 32.625 C4.23253004 31.88508659 -2.16795241 31.24601808 -8.9375 32.625 C-11.39707252 34.82195965 -11.39707252 34.82195965 -12.9375 39.625 C-17.2275 39.625 -21.5175 39.625 -25.9375 39.625 C-25.14095525 35.64227626 -24.51019892 33.41294077 -22.71484375 29.96484375 C-22.26310791 29.0936792 -21.81137207 28.22251465 -21.34594727 27.32495117 C-19.36051972 23.59630176 -17.36020177 19.87674856 -15.32714844 16.17382812 C-14.47796928 14.61630346 -13.64186534 13.05144271 -12.82910156 11.47460938 C-9.66565116 5.33732597 -7.21607349 0.97489882 0 0 Z M-0.9375 12.625 C-1.61417998 13.86960783 -2.27844719 15.12096896 -2.9375 16.375 C-3.30875 17.07109375 -3.68 17.7671875 -4.0625 18.484375 C-5.18974649 20.85667757 -5.18974649 20.85667757 -4.9375 24.625 C-2.19844655 25.99452673 0.03337332 25.75121361 3.0625 25.625 C3.7225 25.295 4.3825 24.965 5.0625 24.625 C4.51910208 20.06045749 3.26786179 16.6521824 1.0625 12.625 C0.4025 12.625 -0.2575 12.625 -0.9375 12.625 Z " fill="#010101" transform="translate(455.9375,36.375)"/>
<path d="M0 0 C14.52 0 29.04 0 44 0 C45.00496852 3.01490557 45.10335303 5.04181692 45.0625 8.1875 C45.05347656 9.08855469 45.04445312 9.98960938 45.03515625 10.91796875 C45.02355469 11.60503906 45.01195312 12.29210938 45 13 C43.14453125 13.6171875 43.14453125 13.6171875 41 14 C40.236875 13.38125 39.47375 12.7625 38.6875 12.125 C35.64083791 9.34979972 35.64083791 9.34979972 29 9 C29 18.57 29 28.14 29 38 C24.71 38 20.42 38 16 38 C15 37 15 37 14.97827148 34.40795898 C15.04896851 32.71908569 15.04896851 32.71908569 15.12109375 30.99609375 C15.16943359 29.78115234 15.21777344 28.56621094 15.26757812 27.31445312 C15.32365234 26.03505859 15.37972656 24.75566406 15.4375 23.4375 C15.48970703 22.15423828 15.54191406 20.87097656 15.59570312 19.54882812 C15.7258696 16.36566609 15.86085001 13.18277996 16 10 C12.45535013 9.10330589 11.3157047 8.87000395 7.8125 10.3125 C4.98231511 11.85599447 4.98231511 11.85599447 3 14 C1.68 13.67 0.36 13.34 -1 13 C-0.67 8.71 -0.34 4.42 0 0 Z " fill="#010101" transform="translate(189,38)"/>
<path d="M0 0 C4.29 0 8.58 0 13 0 C12.11202965 7.48432155 12.11202965 7.48432155 11.48828125 10.35546875 C10.9136162 13.46785465 10.71954785 16.46128333 10.625 19.625 C10.57601563 20.75164063 10.52703125 21.87828125 10.4765625 23.0390625 C10.70844595 26.12613411 10.70844595 26.12613411 13.08984375 27.875 C16.54744558 29.21162997 19.2336497 29.39912932 22.9375 29.375 C24.71447266 29.38660156 24.71447266 29.38660156 26.52734375 29.3984375 C31.38116092 28.84153159 34.72093254 27.31668709 38.125 23.8125 C40 22 40 22 44 22 C44.19389096 24.4788213 44.38040123 26.95780931 44.5625 29.4375 C44.64661133 30.49807617 44.64661133 30.49807617 44.73242188 31.58007812 C44.86190993 33.38427837 44.93521608 35.19231952 45 37 C44 38 44 38 42.13340759 38.12025452 C41.31844315 38.11803391 40.5034787 38.11581329 39.66381836 38.11352539 C38.28249977 38.11341209 38.28249977 38.11341209 36.87327576 38.11329651 C35.87224319 38.10813522 34.87121063 38.10297394 33.83984375 38.09765625 C32.82024063 38.0962413 31.80063751 38.09482635 30.75013733 38.09336853 C27.47922893 38.08775097 24.20838787 38.0751955 20.9375 38.0625 C18.72591244 38.05748726 16.51432382 38.05292396 14.30273438 38.04882812 C8.86846643 38.03777584 3.43423803 38.02102063 -2 38 C-2.08377056 17.1943172 -2.08377056 17.1943172 -1.5625 9.4375 C-1.52318359 8.72916016 -1.48386719 8.02082031 -1.44335938 7.29101562 C-1.13116821 2.26233642 -1.13116821 2.26233642 0 0 Z " fill="#000000" transform="translate(485,38)"/>
<path d="M0 0 C-0.165 0.804375 -0.33 1.60875 -0.5 2.4375 C-1.09247348 6.65887352 -1.08506709 10.74664545 -1 15 C-0.67 15 -0.34 15 0 15 C0 18.63 0 22.26 0 26 C-0.99 26 -1.98 26 -3 26 C-4.86127406 24.13872594 -4.46118139 21.50070864 -4.71875 19.0078125 C-4.9662595 16.79861215 -4.9662595 16.79861215 -6 14 C-5.91478259 12.10047654 -5.76270916 10.20336427 -5.5625 8.3125 C-5.46066406 7.31863281 -5.35882813 6.32476562 -5.25390625 5.30078125 C-5.17011719 4.54152344 -5.08632813 3.78226563 -5 3 C-6.65 3.33 -8.3 3.66 -10 4 C-10.0501123 4.68102783 -10.10022461 5.36205566 -10.15185547 6.0637207 C-10.38386176 9.14740521 -10.62927062 12.22987999 -10.875 15.3125 C-10.99294922 16.9202832 -10.99294922 16.9202832 -11.11328125 18.56054688 C-11.19707031 19.58857422 -11.28085937 20.61660156 -11.3671875 21.67578125 C-11.47716064 23.0975769 -11.47716064 23.0975769 -11.58935547 24.5480957 C-12 27 -12 27 -14 30 C-16.44989101 26.25764681 -16.23086143 22.55774581 -16.125 18.25 C-16.11597656 17.55261719 -16.10695313 16.85523437 -16.09765625 16.13671875 C-16.07419888 14.42433042 -16.03833104 12.71211996 -16 11 C-23.66452827 16.68380748 -26.86148124 22.58146501 -28.5078125 31.921875 C-29.03993655 34.168621 -29.89821896 35.97855049 -31 38 C-27.535 37.505 -27.535 37.505 -24 37 C-24.66 37.99 -25.32 38.98 -26 40 C-27.5167319 42.69641227 -28 43.82753065 -28 47 C-28.66 47 -29.32 47 -30 47 C-30 48.65 -30 50.3 -30 52 C-22.41 52 -14.82 52 -7 52 C-7.99 54.475 -7.99 54.475 -9 57 C-11.33294775 57.04241723 -13.66702567 57.04092937 -16 57 C-16.495 56.505 -16.495 56.505 -17 56 C-19.55563371 55.92788335 -22.09660453 56.00366284 -24.65234375 56.0625 C-27 56 -27 56 -29 55 C-29.33 55.99 -29.66 56.98 -30 58 C-30.66 58 -31.32 58 -32 58 C-32 58.66 -32 59.32 -32 60 C-33.32 60 -34.64 60 -36 60 C-36.07505712 56.05315009 -36.12902215 52.10658573 -36.16479492 48.15917969 C-36.18701479 46.16847095 -36.22516595 44.17796032 -36.26367188 42.1875 C-36.33420594 32.87700284 -35.67015129 24.34700165 -30.4375 16.375 C-30.02371094 15.72273438 -29.60992187 15.07046875 -29.18359375 14.3984375 C-28.79300781 13.93695313 -28.40242188 13.47546875 -28 13 C-27.34 13 -26.68 13 -26 13 C-25.75636719 12.41347656 -25.51273438 11.82695312 -25.26171875 11.22265625 C-20.81165129 3.38337332 -8.43134608 -3.87386171 0 0 Z " fill="#03030A" transform="translate(65,20)"/>
<path d="M0 0 C1.49358114 1.27194722 2.98716227 2.54389445 4.48074341 3.81584167 C6.22311724 5.17390488 7.72020576 5.83844527 9.875 6.3125 C10.90625 6.539375 11.9375 6.76625 13 7 C10.375 10.875 10.375 10.875 7 12 C6.34 18.6 5.68 25.2 5 32 C13.07714057 32.1262874 13.07714057 32.1262874 20.625 31 C21.46289062 30.814375 22.30078125 30.62875 23.1640625 30.4375 C23.76992187 30.293125 24.37578125 30.14875 25 30 C23.84194477 35.59726696 22.50236456 39.36451749 19 44 C18.443125 44.825 17.88625 45.65 17.3125 46.5 C14.03908308 50.03882911 10.19773393 52.64181357 6 55 C5.34 55 4.68 55 4 55 C4 53 4 53 6 50.875 C6.99934037 49.91597883 7.99945602 48.95776538 9 48 C10.44015957 46.5651645 11.87755101 45.1275465 13.3125 43.6875 C14.54166667 42.45833333 15.77083333 41.22916667 17 40 C16.67 39.01 16.34 38.02 16 37 C11.55396353 37.39566601 9.42820599 40.46041464 6.6875 43.625 C5.70068657 44.71629573 4.71370793 45.80744208 3.7265625 46.8984375 C2.1371172 48.68290677 0.62827935 50.47210091 -0.8515625 52.3515625 C-3.41616718 55.42150801 -4.92261198 56.82186045 -8.953125 57.48828125 C-13.83157636 57.60022639 -17.72703916 57.51890532 -22 55 C-22 52.36 -22 49.72 -22 47 C-21.34 47.33 -20.68 47.66 -20 48 C-19.34 47.34 -18.68 46.68 -18 46 C-17.175 46.845625 -16.35 47.69125 -15.5 48.5625 C-12.87915765 50.74860547 -11.28766608 51.3692565 -7.875 51.0625 C-4.21315198 50.32032813 -2.21502706 49.10103788 0 46 C0.7872678 43.8618034 0.7872678 43.8618034 1 42 C1.66 42 2.32 42 3 42 C2.42655063 39.13275314 2.1385485 38.1385485 0 36 C-0.17517747 33.27514272 -0.23149133 30.65340638 -0.1953125 27.9296875 C-0.1924826 27.13345978 -0.18965271 26.33723206 -0.18673706 25.51687622 C-0.1755264 22.96943237 -0.15042062 20.42233789 -0.125 17.875 C-0.11497133 16.14974465 -0.10584528 14.42448381 -0.09765625 12.69921875 C-0.07558422 8.46601086 -0.04104867 4.2330647 0 0 Z " fill="#C5842E" transform="translate(81,72)"/>
<path d="M0 0 C3.875 0.875 3.875 0.875 5 2 C5.62415672 5.19880322 5.49481246 7.22760982 3.71875 10 C-0.0529406 14.52602872 -4.38637575 18.8978269 -10 21 C-13 20.3125 -13 20.3125 -15 19 C-15.495 19.495 -15.495 19.495 -16 20 C-17.99958364 20.04080783 -20.00045254 20.04254356 -22 20 C-22.33 18.02 -22.66 16.04 -23 14 C-23.7425 14.99 -24.485 15.98 -25.25 17 C-26.515625 18.6875 -26.515625 18.6875 -28 20 C-29.32 20 -30.64 20 -32 20 C-32.33 19.34 -32.66 18.68 -33 18 C-33.99 18.66 -34.98 19.32 -36 20 C-38.5625 20.25 -38.5625 20.25 -41 20 C-41.66 19.34 -42.32 18.68 -43 18 C-43.556875 18.515625 -44.11375 19.03125 -44.6875 19.5625 C-47 21 -47 21 -49.6875 20.75 C-52 20 -52 20 -53 19 C-52.69414153 13.69845314 -51.7649084 10.7649084 -48 7 C-44.82715725 4.44793083 -42.87612467 3.10307349 -38.8125 2.625 C-36 3 -36 3 -33 5 C-33.65784963 8.29680965 -34.89420573 10.84117922 -36.5625 13.75 C-37.01753906 14.54921875 -37.47257812 15.3484375 -37.94140625 16.171875 C-38.29074219 16.77515625 -38.64007813 17.3784375 -39 18 C-34.2948937 14.07111682 -30.0626067 10.15898581 -26.32421875 5.28515625 C-25 4 -25 4 -22 4 C-22 5.32 -22 6.64 -22 8 C-20.9171875 7.01 -20.9171875 7.01 -19.8125 6 C-16.78402067 3.8464147 -15.60296594 3.58823246 -12 4 C-12.63065757 7.21852831 -13.78020695 9.50801069 -15.5625 12.25 C-16.01753906 12.95640625 -16.47257812 13.6628125 -16.94140625 14.390625 C-17.46541016 15.18726562 -17.46541016 15.18726562 -18 16 C-14.1795072 14.28195498 -12.98755259 12.7158592 -11 9 C-10 7.33333333 -9 5.66666667 -8 4 C-6.68 4.33 -5.36 4.66 -4 5 C-4.99 8.3 -5.98 11.6 -7 15 C-1.80931627 11.26646919 -1.80931627 11.26646919 1 5.8125 C1.14823177 2.91764902 1.14823177 2.91764902 0 0 Z M-46.15625 11.109375 C-48.23382793 13.2397727 -49.29742472 15.10187697 -50 18 C-46.23348872 17.45123677 -44.73347739 15.99236151 -42.3125 13.125 C-41.71050781 12.42632812 -41.10851562 11.72765625 -40.48828125 11.0078125 C-38.81787213 8.97175778 -38.81787213 8.97175778 -38 6 C-41.5012238 6 -43.64164506 8.86809669 -46.15625 11.109375 Z " fill="#020202" transform="translate(339,101)"/>
<path d="M0 0 C0.71542969 0.27328125 1.43085937 0.5465625 2.16796875 0.828125 C5.17544394 1.888923 8.08669712 2.22597842 11.25 2.5625 C11.25 5.2025 11.25 7.8425 11.25 10.5625 C9.27 10.5625 7.29 10.5625 5.25 10.5625 C5.25785522 11.49316284 5.25785522 11.49316284 5.26586914 12.44262695 C5.28665466 15.25340767 5.29966517 18.06417221 5.3125 20.875 C5.32087891 21.85146484 5.32925781 22.82792969 5.33789062 23.83398438 C5.34272461 25.24067383 5.34272461 25.24067383 5.34765625 26.67578125 C5.35551147 27.97189331 5.35551147 27.97189331 5.36352539 29.29418945 C5.25 31.5625 5.25 31.5625 4.25 34.5625 C3.59 34.5625 2.93 34.5625 2.25 34.5625 C1.26 31.5925 0.27 28.6225 -0.75 25.5625 C-2.4 25.2325 -4.05 24.9025 -5.75 24.5625 C-5.75 23.2425 -5.75 21.9225 -5.75 20.5625 C-4.63625 20.129375 -3.5225 19.69625 -2.375 19.25 C1.42512334 17.86338881 1.42512334 17.86338881 3.25 14.5625 C0.99239143 13.77579449 0.99239143 13.77579449 -1.75 13.5625 C-2.53375 14.0575 -3.3175 14.5525 -4.125 15.0625 C-7.73967209 17.12802691 -9.78388867 16.57205561 -13.75 15.5625 C-16.38569084 14.10593401 -17.45076616 13.26783691 -18.625 10.5 C-18.66625 9.860625 -18.7075 9.22125 -18.75 8.5625 C-18.09 7.9025 -17.43 7.2425 -16.75 6.5625 C-18.91874252 7.06853992 -20.74967627 7.56233813 -22.75 8.5625 C-22.54396857 4.95694997 -21.73789733 3.54816789 -19.375 0.75 C-13.77727178 -3.50534736 -6.24562223 -2.14593174 0 0 Z " fill="#061F2F" transform="translate(103.75,57.4375)"/>
<path d="M0 0 C0.33 0 0.66 0 1 0 C1.01458252 0.57967529 1.02916504 1.15935059 1.04418945 1.7565918 C1.11898528 4.40087553 1.21553898 7.04394002 1.3125 9.6875 C1.33505859 10.59951172 1.35761719 11.51152344 1.38085938 12.45117188 C1.59814769 17.88337963 1.96104757 21.96104757 6 26 C7.34267413 26.08631874 8.68974322 26.10706473 10.03515625 26.09765625 C10.84404297 26.09443359 11.65292969 26.09121094 12.48632812 26.08789062 C13.7615332 26.07532227 13.7615332 26.07532227 15.0625 26.0625 C15.91650391 26.05798828 16.77050781 26.05347656 17.65039062 26.04882812 C19.76695663 26.03700373 21.88348685 26.01906769 24 26 C22.3359375 30.765625 22.3359375 30.765625 19.3125 32.875 C15.30748481 34.23519384 13.06216875 34.12838021 9 33 C6.5625 30.9375 6.5625 30.9375 5 29 C4.34 29.66 3.68 30.32 3 31 C2.67 30.67 2.34 30.34 2 30 C1.67 32.31 1.34 34.62 1 37 C-4.18254287 35.06924873 -7.26731947 33.22382271 -11 29 C-11.86625 28.0925 -12.7325 27.185 -13.625 26.25 C-16.61997268 22.64091621 -17.77978695 18.4641941 -19 14 C-20.98 14 -22.96 14 -25 14 C-24.34 13.67 -23.68 13.34 -23 13 C-23 11.35 -23 9.7 -23 8 C-19.75 7.9375 -19.75 7.9375 -16 9 C-14.67492175 11.11198478 -13.89757118 13.23320536 -13.03515625 15.5703125 C-11.2411495 19.78115099 -8.15134216 23.92432892 -4 26 C-4 22.04 -4 18.08 -4 14 C-6.475 13.505 -6.475 13.505 -9 13 C-9.33 11.35 -9.66 9.7 -10 8 C-8.906875 7.79375 -7.81375 7.5875 -6.6875 7.375 C-2.7714341 6.34336062 -2.7714341 6.34336062 -1.0625 2.875 C-0.5365625 1.451875 -0.5365625 1.451875 0 0 Z " fill="#0E6989" transform="translate(58,90)"/>
<path d="M0 0 C2.00720923 0.28674418 4.0085944 0.61866701 6 1 C6.08845016 4.14565046 6.14086835 7.29097375 6.1875 10.4375 C6.21263672 11.31599609 6.23777344 12.19449219 6.26367188 13.09960938 C6.36630208 22.3705376 4.42188345 29.23098772 -2 36 C-0.515 36.495 -0.515 36.495 1 37 C0.01 37 -0.98 37 -2 37 C-1.95875 38.093125 -1.9175 39.18625 -1.875 40.3125 C-2 44 -2 44 -4 47 C-4.66 47 -5.32 47 -6 47 C-6 47.66 -6 48.32 -6 49 C-7.485 48.505 -7.485 48.505 -9 48 C-8.360625 46.948125 -7.72125 45.89625 -7.0625 44.8125 C-5.38245548 41.89171588 -4.41003948 39.3828257 -4 36 C-4.53367187 36.15597656 -5.06734375 36.31195313 -5.6171875 36.47265625 C-11.77717777 38.08192706 -16.70270018 37.88694364 -23 37 C-23 33.04 -23 29.08 -23 25 C-22.13375 25.804375 -21.2675 26.60875 -20.375 27.4375 C-17.32070607 29.96717403 -15.05198867 30.91378748 -11 31 C-8.2225097 30.52269471 -8.2225097 30.52269471 -6 29 C-4.63921965 26.47627099 -4.63921965 26.47627099 -4 24 C-3.01 24.33 -2.02 24.66 -1 25 C-1.00785522 23.91730835 -1.00785522 23.91730835 -1.01586914 22.81274414 C-1.03657358 19.56267151 -1.04963918 16.31261272 -1.0625 13.0625 C-1.07087891 11.92619141 -1.07925781 10.78988281 -1.08789062 9.61914062 C-1.09272461 7.99975586 -1.09272461 7.99975586 -1.09765625 6.34765625 C-1.10551147 4.84730835 -1.10551147 4.84730835 -1.11352539 3.31665039 C-1 1 -1 1 0 0 Z " fill="#05050D" transform="translate(109,67)"/>
<path d="M0 0 C1.75 2.4375 1.75 2.4375 2.375 5.8125 C1.5873713 10.38074649 0.07854412 12.25689118 -3.25 15.4375 C-7.17982277 17.71266055 -10.76276495 17.92701655 -15.25 17.4375 C-17.75 15.75 -17.75 15.75 -19.25 13.4375 C-19.08849795 10.04595705 -18.66703243 8.85453243 -16.25 6.4375 C-15.26 6.7675 -14.27 7.0975 -13.25 7.4375 C-13.91 8.0975 -14.57 8.7575 -15.25 9.4375 C-14.92958603 12.04030568 -14.92958603 12.04030568 -14.25 14.4375 C-9.64901737 14.26998265 -9.64901737 14.26998265 -5.63671875 12.2109375 C-3.32685291 9.67333841 -2.22074273 8.09578866 -2.375 4.625 C-3.05987923 2.49631434 -3.05987923 2.49631434 -4.25 1.4375 C-11.21315629 0.32620839 -16.16870138 1.72187215 -21.984375 5.58984375 C-26.59637279 9.35100747 -30.88877985 14.53887933 -32.25 20.4375 C-32.1247837 24.06877284 -32.00166734 26.46659635 -29.75 29.375 C-25.20084351 31.30839151 -20.65280965 31.28555047 -15.9921875 29.640625 C-13.18199999 28.29256457 -10.86060288 27.08684672 -8.7109375 24.80078125 C-7.25 23.4375 -7.25 23.4375 -4.25 23.4375 C-6.30830861 28.32338408 -9.63942443 30.11997175 -14.25 32.4375 C-19.80796744 34.66505473 -25.46285615 35.11301593 -31.25 33.4375 C-35.10927936 30.78424544 -36.06109413 29.15770362 -37.25 24.625 C-37.63632761 18.19023075 -35.19946515 13.31138427 -31.3125 8.3125 C-23.37357632 -0.12677602 -11.03079071 -5.30326476 0 0 Z " fill="#030303" transform="translate(289.25,90.5625)"/>
<path d="M0 0 C-1.33333333 5.33333333 -2.66666667 10.66666667 -4 16 C-2.6078125 14.7315625 -2.6078125 14.7315625 -1.1875 13.4375 C0.39453125 11.99609375 0.39453125 11.99609375 2 11 C2.99 11.33 3.98 11.66 5 12 C0.24800939 17.08352484 -2.9650441 19.98585968 -10.125 20.3125 C-14 20 -14 20 -16 18.5 C-16.33 18.005 -16.66 17.51 -17 17 C-17.391875 17.495 -17.78375 17.99 -18.1875 18.5 C-20 20 -20 20 -22.5 20.3125 C-25 20 -25 20 -28 18 C-28.5775 18.515625 -29.155 19.03125 -29.75 19.5625 C-32 21 -32 21 -34.125 20.8125 C-36 20 -36 20 -38 18 C-37.71280467 13.95922845 -36.36386786 11.77541688 -33.6875 8.8125 C-33.09324219 8.13832031 -32.49898438 7.46414062 -31.88671875 6.76953125 C-28.88810865 3.95717022 -26.86978598 3.03345331 -22.75 2.875 C-21.38875 2.936875 -21.38875 2.936875 -20 3 C-20 3.66 -20 4.32 -20 5 C-19.01 5.33 -18.02 5.66 -17 6 C-17.3609375 6.62648438 -17.721875 7.25296875 -18.09375 7.8984375 C-18.5578125 8.71570313 -19.021875 9.53296875 -19.5 10.375 C-20.19609375 11.59316406 -20.19609375 11.59316406 -20.90625 12.8359375 C-22.15035859 14.89336874 -22.15035859 14.89336874 -22 17 C-17.63038594 13.62915487 -13.80569035 9.93931144 -10.046875 5.90234375 C-9.35078125 5.17144531 -8.6546875 4.44054687 -7.9375 3.6875 C-7.28652344 2.99011719 -6.63554687 2.29273437 -5.96484375 1.57421875 C-4 0 -4 0 0 0 Z M-28 8.8125 C-28.70125 9.33457031 -29.4025 9.85664062 -30.125 10.39453125 C-32.22825116 12.04853207 -32.22825116 12.04853207 -34 15 C-33.69159401 17.15274948 -33.69159401 17.15274948 -33 19 C-27.99386227 15.27450216 -25.04422227 11.42841405 -22 6 C-24.75905225 6 -25.81574727 7.16226494 -28 8.8125 Z M-10.125 8.6875 C-11.77957152 10.26565978 -11.77957152 10.26565978 -13 12 C-13.04097782 14.81416116 -13.04097782 14.81416116 -12 17 C-10.68 17 -9.36 17 -8 17 C-6.57741188 13.17679443 -5.75957724 10.08718695 -6 6 C-7.80569755 6 -8.85544173 7.51537294 -10.125 8.6875 Z " fill="#020202" transform="translate(378,101)"/>
<path d="M0 0 C1.98 0 3.96 0 6 0 C6 3.63 6 7.26 6 11 C3.69 11 1.38 11 -1 11 C-2.70063265 13.72101224 -3.16364571 15.98708624 -3.4375 19.125 C-3.623125 20.40375 -3.80875 21.6825 -4 23 C-7.4352048 25.29013653 -8.985331 25.17842973 -13 25 C-13.33 24.01 -13.66 23.02 -14 22 C-14.99 24.475 -14.99 24.475 -16 27 C-18.97 27 -21.94 27 -25 27 C-25 24.69 -25 22.38 -25 20 C-21.37 20 -17.74 20 -14 20 C-14 16.7 -14 13.4 -14 10 C-13.24074219 9.9484375 -12.48148438 9.896875 -11.69921875 9.84375 C-8.60640863 9.49074443 -5.92501925 9.07854692 -3 8 C-1.03508197 5.31058705 -0.69906661 3.33400997 0 0 Z " fill="#431207" transform="translate(59,68)"/>
<path d="M0 0 C0.66 0.33 1.32 0.66 2 1 C1.98428955 2.06959961 1.9685791 3.13919922 1.95239258 4.24121094 C1.89803949 8.21444145 1.86363049 12.18763916 1.83520508 16.16113281 C1.82013067 17.87993905 1.79966771 19.59870691 1.77368164 21.31738281 C1.73723835 23.78980997 1.72026042 26.261728 1.70703125 28.734375 C1.69154739 29.50118591 1.67606354 30.26799683 1.66011047 31.05804443 C1.65876927 35.32234178 1.9228297 37.91928048 5 41 C4 42 4 42 1.68334961 42.11352539 C0.68311768 42.10828857 -0.31711426 42.10305176 -1.34765625 42.09765625 C-2.42724609 42.09443359 -3.50683594 42.09121094 -4.61914062 42.08789062 C-5.75544922 42.07951172 -6.89175781 42.07113281 -8.0625 42.0625 C-9.20267578 42.05798828 -10.34285156 42.05347656 -11.51757812 42.04882812 C-14.34510351 42.03699747 -17.1725264 42.0205141 -20 42 C-20.19140625 37.22509766 -20.19140625 37.22509766 -18.46875 35.19921875 C-17.8190625 34.70035156 -17.169375 34.20148438 -16.5 33.6875 C-15.8503125 33.17574219 -15.200625 32.66398437 -14.53125 32.13671875 C-14.0259375 31.76160156 -13.520625 31.38648437 -13 31 C-12.401875 31.33 -11.80375 31.66 -11.1875 32 C-8.94613529 33.20787988 -8.94613529 33.20787988 -6 33 C-5.01 32.34 -4.02 31.68 -3 31 C-2.34 31.66 -1.68 32.32 -1 33 C-0.67 31.35 -0.34 29.7 0 28 C-3.26954202 28.56371414 -4.82575883 29.49962266 -7 32 C-7.99 31.67 -8.98 31.34 -10 31 C-10.33 30.34 -10.66 29.68 -11 29 C-12.97888961 28.27306096 -14.97954558 27.60183749 -17 27 C-16.01 24.36 -15.02 21.72 -14 19 C-13.01 19 -12.02 19 -11 19 C-10.67 19.99 -10.34 20.98 -10 22 C-9.01 22.33 -8.02 22.66 -7 23 C-7.66 23.99 -8.32 24.98 -9 26 C-6.03 26.33 -3.06 26.66 0 27 C0 18.09 0 9.18 0 0 Z " fill="#09060C" transform="translate(80,71)"/>
<path d="M0 0 C7.68470434 1.53694087 13.59833944 6.49319743 18 13 C18 13.33 18 13.66 18 14 C15.69 14 13.38 14 11 14 C11 14.66 11 15.32 11 16 C11.99 16 12.98 16 14 16 C14 16.66 14 17.32 14 18 C16.31 18.33 18.62 18.66 21 19 C21.33 20.65 21.66 22.3 22 24 C20 23 18 22 16 21 C14.6265365 20.84995027 13.2471474 20.75161994 11.8671875 20.68359375 C10.65869141 20.62075195 10.65869141 20.62075195 9.42578125 20.55664062 C8.58402344 20.51732422 7.74226563 20.47800781 6.875 20.4375 C6.02550781 20.39431641 5.17601563 20.35113281 4.30078125 20.30664062 C2.20071777 20.20045764 0.10038052 20.09971503 -2 20 C-2.66 18.68 -3.32 17.36 -4 16 C-0.33694766 15.25073929 2.42355152 14.7619986 6 16 C6 15.34 6 14.68 6 14 C4.02 14 2.04 14 0 14 C0 9.38 0 4.76 0 0 Z " fill="#020410" transform="translate(86,26)"/>
<path d="M0 0 C4.88815789 1.77631579 4.88815789 1.77631579 6.0625 4.125 C2.57688119 5.28687294 -0.28148767 5.19147295 -3.9375 5.125 C-4.5975 5.125 -5.2575 5.125 -5.9375 5.125 C-5.9375 8.095 -5.9375 11.065 -5.9375 14.125 C-9.9375 12.125 -9.9375 12.125 -10.9375 11.125 C-13.26567964 10.75739269 -15.5993385 10.42258419 -17.9375 10.125 C-17.9375 8.475 -17.9375 6.825 -17.9375 5.125 C-19.2575 5.125 -20.5775 5.125 -21.9375 5.125 C-21.91429688 5.88425781 -21.89109375 6.64351562 -21.8671875 7.42578125 C-21.84914063 8.41964844 -21.83109375 9.41351563 -21.8125 10.4375 C-21.78929688 11.42363281 -21.76609375 12.40976562 -21.7421875 13.42578125 C-21.9375 16.125 -21.9375 16.125 -23.9375 19.125 C-23.96448422 16.68742587 -23.98433099 14.25015085 -24 11.8125 C-24.00837891 11.12220703 -24.01675781 10.43191406 -24.02539062 9.72070312 C-24.04057906 6.5766975 -23.93943327 4.13079981 -22.9375 1.125 C-23.5975 0.465 -24.2575 -0.195 -24.9375 -0.875 C-18.19805181 -4.24472409 -6.80876702 -2.20404131 0 0 Z " fill="#05040A" transform="translate(86.9375,18.875)"/>
<path d="M0 0 C0.99 0.33 1.98 0.66 3 1 C2.10200039 6.644569 2.10200039 6.644569 1.48461914 8.79589844 C0.84297064 11.71418694 0.77860544 14.52954343 0.68359375 17.515625 C0.64169922 18.76601562 0.59980469 20.01640625 0.55664062 21.3046875 C0.51732422 22.60664062 0.47800781 23.90859375 0.4375 25.25 C0.39431641 26.56742188 0.35113281 27.88484375 0.30664062 29.2421875 C0.20058083 32.49468788 0.09851976 35.74726392 0 39 C-0.33 37.68 -0.66 36.36 -1 35 C-2.485 35.495 -2.485 35.495 -4 36 C-5.22520264 39.00847418 -5.22520264 39.00847418 -6 42 C-6.33 42 -6.66 42 -7 42 C-7.1954625 39.75067773 -7.38108226 37.50049858 -7.5625 35.25 C-7.66691406 33.99703125 -7.77132812 32.7440625 -7.87890625 31.453125 C-7.97876723 28.60547636 -7.90584295 26.65713933 -7 24 C-6.34 24 -5.68 24 -5 24 C-5.22997874 21.62153567 -5.48321491 19.24938734 -5.75 16.875 C-5.811875 16.20984375 -5.87375 15.5446875 -5.9375 14.859375 C-6.53448896 9.7849688 -7.97259212 6.95039809 -11 3 C-9.68 2.67 -8.36 2.34 -7 2 C-6.01 3.485 -6.01 3.485 -5 5 C-4.01 5.33 -3.02 5.66 -2 6 C-1.34 4.02 -0.68 2.04 0 0 Z " fill="#04030C" transform="translate(70,55)"/>
<path d="M0 0 C4.62 0 9.24 0 14 0 C14 0.66 14 1.32 14 2 C14.70125 1.78601563 15.4025 1.57203125 16.125 1.3515625 C23.48189755 -0.50765346 23.48189755 -0.50765346 27.44140625 0.81640625 C30.90572727 3.05577398 32.63816943 4.8933132 33.93359375 8.85546875 C34.44449007 11.57907467 34.80336213 14.23723795 35 17 C34.34 16.29875 33.68 15.5975 33 14.875 C28.18998996 10.07865476 23.31932091 6.52772837 17 4 C17 8.62 17 13.24 17 18 C18.98 18 20.96 18 23 18 C23 18.66 23 19.32 23 20 C19.7 20 16.4 20 13 20 C14.32 21.65 15.64 23.3 17 25 C15.68 25.33 14.36 25.66 13 26 C13 25.34 13 24.68 13 24 C12.01 24 11.02 24 10 24 C9.67 24.99 9.34 25.98 9 27 C9.144375 25.94941406 9.28875 24.89882813 9.4375 23.81640625 C10.41505494 16.49781309 11.26432715 9.40116009 11 2 C7.37 1.67 3.74 1.34 0 1 C0 0.67 0 0.34 0 0 Z " fill="#0F0304" transform="translate(69,22)"/>
<path d="M0 0 C2.31 0 4.62 0 7 0 C7.38671875 0.80824219 7.7734375 1.61648437 8.171875 2.44921875 C8.69265625 3.51785156 9.2134375 4.58648437 9.75 5.6875 C10.26046875 6.74324219 10.7709375 7.79898438 11.296875 8.88671875 C14.03780428 13.89708718 16.6433441 17.18407417 21.75 19.8125 C22.54921875 20.23144531 23.3484375 20.65039062 24.171875 21.08203125 C24.77515625 21.38496094 25.3784375 21.68789062 26 22 C26 23.65 26 25.3 26 27 C27.32 27.33 28.64 27.66 30 28 C30 28.66 30 29.32 30 30 C20.81987241 27.25220671 12.98518123 23.84076933 7 16 C7 15.01 7 14.02 7 13 C6.360625 12.773125 5.72125 12.54625 5.0625 12.3125 C3 11 3 11 2.3125 8.5 C2.209375 7.675 2.10625 6.85 2 6 C1.67 5.34 1.34 4.68 1 4 C1.33 3.34 1.66 2.68 2 2 C1.34 2 0.68 2 0 2 C0 1.34 0 0.68 0 0 Z " fill="#03050D" transform="translate(32,104)"/>
<path d="M0 0 C1.29808594 -0.00515625 2.59617187 -0.0103125 3.93359375 -0.015625 C7.32138254 0.23235093 9.48835536 0.93330647 12.5625 2.25 C13.2225 1.92 13.8825 1.59 14.5625 1.25 C14.5625 1.91 14.5625 2.57 14.5625 3.25 C15.2225 3.58 15.8825 3.91 16.5625 4.25 C14.5825 5.24 14.5825 5.24 12.5625 6.25 C12.5625 7.24 12.5625 8.23 12.5625 9.25 C11.469375 8.92 10.37625 8.59 9.25 8.25 C2.87643221 6.68496022 -3.7759529 5.73657126 -9.625 9.0625 C-11.75650893 11.16153919 -11.75650893 11.16153919 -11.4375 14.25 C-10.4475 14.25 -9.4575 14.25 -8.4375 14.25 C-9.75 15.75 -9.75 15.75 -11.4375 17.25 C-12.4275 17.25 -13.4175 17.25 -14.4375 17.25 C-14.4375 14.94 -14.4375 12.63 -14.4375 10.25 C-15.4275 10.25 -16.4175 10.25 -17.4375 10.25 C-15.73332642 6.27359499 -13.38843768 3.53844128 -9.76953125 1.1484375 C-6.46733895 -0.12376389 -3.52752248 -0.01398423 0 0 Z " fill="#030F24" transform="translate(94.4375,49.75)"/>
<path d="M0 0 C0 6.6 0 13.2 0 20 C-2.64 20.66 -5.28 21.32 -8 22 C-11.39925719 23.98584263 -11.39925719 23.98584263 -14 26 C-13.19719175 18.91851226 -10.14434916 0 0 0 Z " fill="#1E414F" transform="translate(49,31)"/>
<path d="M0 0 C1.67128308 3.62111335 0.88948286 7.2368033 0 11 C-1.9375 12.9375 -1.9375 12.9375 -4 14 C-4.66 14 -5.32 14 -6 14 C-6 18.62 -6 23.24 -6 28 C-7.65 28.66 -9.3 29.32 -11 30 C-11.66 30.66 -12.32 31.32 -13 32 C-13.99 31.67 -14.98 31.34 -16 31 C-16.99 31.495 -16.99 31.495 -18 32 C-17.01 32.33 -16.02 32.66 -15 33 C-16.24462045 36.73386136 -17.91307675 37.64805848 -21 40 C-22.0173873 40.98230498 -23.02596117 41.97469597 -24 43 C-24 41.35 -24 39.7 -24 38 C-23.34 38 -22.68 38 -22 38 C-20.9254644 36.2236068 -20.9254644 36.2236068 -21 35 C-22.65 35 -24.3 35 -26 35 C-24.22104283 31.44208565 -20.49563275 29.70006183 -17 28 C-13.5 27.6875 -13.5 27.6875 -11 28 C-11 26.35 -11 24.7 -11 23 C-10.34 23.66 -9.68 24.32 -9 25 C-7.29084726 23.29084726 -7.64861653 20.99238377 -7.46484375 18.65234375 C-7.37783203 17.57275391 -7.29082031 16.49316406 -7.20117188 15.38085938 C-7.11416016 14.24455078 -7.02714844 13.10824219 -6.9375 11.9375 C-6.84662109 10.79732422 -6.75574219 9.65714844 -6.66210938 8.48242188 C-6.43735454 5.65524259 -6.21684289 2.82779536 -6 0 C-3 -1 -3 -1 0 0 Z " fill="#220D04" transform="translate(60,23)"/>
<path d="M0 0 C0.495 2.475 0.495 2.475 1 5 C-0.56324232 4.88465396 -2.12559683 4.75724874 -3.6875 4.625 C-4.55761719 4.55539063 -5.42773438 4.48578125 -6.32421875 4.4140625 C-9 4 -9 4 -11.49609375 2.984375 C-16.40833524 1.05319738 -22.34142509 0.9475521 -27.26953125 2.8984375 C-29.38585479 4.07283346 -29.38585479 4.07283346 -32 6 C-31.79396857 2.39444997 -30.98789733 0.98566789 -28.625 -1.8125 C-20.47162316 -7.91787223 -8.6096458 -2.81541702 0 0 Z " fill="#35A6DD" transform="translate(113,60)"/>
<path d="M0 0 C0.66 0 1.32 0 2 0 C2.76171875 2.16796875 2.76171875 2.16796875 3 5 C0.39143427 9.18470146 -2.92829551 12.24545794 -7 15 C-12.71570354 16.27713522 -17.88831888 15.95556918 -23 13 C-23 10.36 -23 7.72 -23 5 C-22.01 5.495 -22.01 5.495 -21 6 C-20.34 5.34 -19.68 4.68 -19 4 C-18.175 4.845625 -17.35 5.69125 -16.5 6.5625 C-13.87915765 8.74860547 -12.28766608 9.3692565 -8.875 9.0625 C-5.21315198 8.32032813 -3.21502706 7.10103788 -1 4 C-0.2127322 1.8618034 -0.2127322 1.8618034 0 0 Z " fill="#9D3517" transform="translate(82,114)"/>
<path d="M0 0 C0.00257812 0.83144531 0.00515625 1.66289063 0.0078125 2.51953125 C0.12376198 5.77771167 0.32002185 8.80933331 1 12 C3.75198532 14.21001187 3.75198532 14.21001187 7 15 C8.875 16.6875 8.875 16.6875 10 18 C9.34 19.98 8.68 21.96 8 24 C7.154375 23.236875 6.30875 22.47375 5.4375 21.6875 C2.17996332 18.9508582 -1.03723128 17.50585211 -5 16 C-5 11.38 -5 6.76 -5 2 C-1 0 -1 0 0 0 Z " fill="#CE8228" transform="translate(59,35)"/>
<path d="M0 0 C1 2 1 2 0.43359375 4.13671875 C-3.39571886 13.94276241 -8.69816167 19.92119627 -18 25 C-18.66 25 -19.32 25 -20 25 C-20 23 -20 23 -18 20.875 C-17.00065963 19.91597883 -16.00054398 18.95776538 -15 18 C-13.55984043 16.5651645 -12.12244899 15.1275465 -10.6875 13.6875 C-9.45833333 12.45833333 -8.22916667 11.22916667 -7 10 C-7.7763932 6.9254644 -7.7763932 6.9254644 -10 5 C-9.67 4.01 -9.34 3.02 -9 2 C-6.93359375 1.26953125 -6.93359375 1.26953125 -4.4375 0.8125 C-3.61121094 0.65394531 -2.78492187 0.49539062 -1.93359375 0.33203125 C-0.97646484 0.16767578 -0.97646484 0.16767578 0 0 Z " fill="#C14114" transform="translate(105,102)"/>
<path d="M0 0 C0 2.31 0 4.62 0 7 C1.98 7 3.96 7 6 7 C6 8.32 6 9.64 6 11 C-0.27 11 -6.54 11 -13 11 C-13 9.35 -13 7.7 -13 6 C-10.91796875 4.19921875 -10.91796875 4.19921875 -8.1875 2.6875 C-7.29417969 2.17574219 -6.40085937 1.66398437 -5.48046875 1.13671875 C-3 0 -3 0 0 0 Z " fill="#DC4A16" transform="translate(48,61)"/>
<path d="M0 0 C7.68470434 1.53694087 13.59833944 6.49319743 18 13 C18 13.33 18 13.66 18 14 C15.25 14.3125 15.25 14.3125 12 14 C9.875 11.5625 9.875 11.5625 8 9 C5.87053397 8.13034494 5.87053397 8.13034494 4 8 C4 9.98 4 11.96 4 14 C2.68 14 1.36 14 0 14 C0 9.38 0 4.76 0 0 Z " fill="#DC821D" transform="translate(86,26)"/>
<path d="M0 0 C4.39015817 0.88565013 6.82044551 2.82044551 10 6 C10.875 9.3125 10.875 9.3125 11 12 C9.35 12 7.7 12 6 12 C6 13.32 6 14.64 6 16 C4.35 16 2.7 16 1 16 C-0.06723961 12.53777385 -0.10173486 9.35960734 -0.0625 5.75 C-0.04896484 4.13351563 -0.04896484 4.13351563 -0.03515625 2.484375 C-0.02355469 1.66453125 -0.01195312 0.8446875 0 0 Z " fill="#0E3D55" transform="translate(53,56)"/>
<path d="M0 0 C2.97 0.495 2.97 0.495 6 1 C6.08845016 4.14565046 6.14086835 7.29097375 6.1875 10.4375 C6.21263672 11.31599609 6.23777344 12.19449219 6.26367188 13.09960938 C6.33015303 19.10507384 5.71412981 24.55527211 3 30 C2.34 30.33 1.68 30.66 1 31 C1.12568359 29.84371094 1.12568359 29.84371094 1.25390625 28.6640625 C1.35574219 27.66117188 1.45757812 26.65828125 1.5625 25.625 C1.66691406 24.62726563 1.77132812 23.62953125 1.87890625 22.6015625 C2.21144708 20.015963 2.21144708 20.015963 1 18 C0.76780304 15.71242991 0.58775759 13.41940951 0.4375 11.125 C0.35371094 9.89007813 0.26992187 8.65515625 0.18359375 7.3828125 C0.05018752 4.92473168 0 2.46169831 0 0 Z " fill="#030105" transform="translate(109,67)"/>
<path d="M0 0 C1.32 0 2.64 0 4 0 C4 1.32 4 2.64 4 4 C5.65 3.67 7.3 3.34 9 3 C9 4.32 9 5.64 9 7 C7.02 6.34 5.04 5.68 3 5 C3 8.96 3 12.92 3 17 C1.35 17 -0.3 17 -2 17 C-2 14.69 -2 12.38 -2 10 C-2.66 9.67 -3.32 9.34 -4 9 C-3.34 9 -2.68 9 -2 9 C-2 8.01 -2 7.02 -2 6 C-2.99 6.33 -3.98 6.66 -5 7 C-5 6.34 -5 5.68 -5 5 C-6.32 4.67 -7.64 4.34 -9 4 C-4.25 2 -4.25 2 -2 2 C-1.34 1.34 -0.68 0.68 0 0 Z " fill="#03020C" transform="translate(50,51)"/>
<path d="M0 0 C0.66 0.33 1.32 0.66 2 1 C1.67 12.55 1.34 24.1 1 36 C0.67 36 0.34 36 0 36 C0 33.36 0 30.72 0 28 C-3.26954202 28.56371414 -4.82575883 29.49962266 -7 32 C-7.99 31.67 -8.98 31.34 -10 31 C-10.33 30.34 -10.66 29.68 -11 29 C-12.97888961 28.27306096 -14.97954558 27.60183749 -17 27 C-16.01 24.36 -15.02 21.72 -14 19 C-13.01 19 -12.02 19 -11 19 C-10.67 19.99 -10.34 20.98 -10 22 C-9.01 22.33 -8.02 22.66 -7 23 C-7.66 23.99 -8.32 24.98 -9 26 C-6.03 26.33 -3.06 26.66 0 27 C0 18.09 0 9.18 0 0 Z " fill="#49220D" transform="translate(80,71)"/>
<path d="M0 0 C3.96 0 7.92 0 12 0 C12 0.99 12 1.98 12 3 C11.01 3 10.02 3 9 3 C9 6.3 9 9.6 9 13 C8.01 13 7.02 13 6 13 C6 12.01 6 11.02 6 10 C3.69 9.67 1.38 9.34 -1 9 C-1.125 2.25 -1.125 2.25 0 0 Z " fill="#010314" transform="translate(36,75)"/>
<path d="M0 0 C3.25 -0.0625 3.25 -0.0625 7 1 C8.41571667 3.18551262 9.25937103 5.33813848 10.15234375 7.78125 C10.93056561 10.14588349 10.93056561 10.14588349 12.8125 12.3125 C14 14 14 14 13.8125 16.125 C13 18 13 18 11 20 C7.03810217 15.76486783 5.56818272 11.452999 4 6 C2.02 6 0.04 6 -2 6 C-1.34 5.67 -0.68 5.34 0 5 C0 3.35 0 1.7 0 0 Z " fill="#45D0D4" transform="translate(35,98)"/>
<path d="M0 0 C0.66 0 1.32 0 2 0 C2.33 1.65 2.66 3.3 3 5 C4.65 5.33 6.3 5.66 8 6 C8 9.96 8 13.92 8 18 C3.40492861 15.7024643 0.89802767 13.1810554 -2 9 C-2.875 6.0625 -2.875 6.0625 -3 4 C-2.34 4 -1.68 4 -1 4 C-0.67 2.68 -0.34 1.36 0 0 Z " fill="#010E18" transform="translate(46,98)"/>
<path d="M0 0 C2 1.4375 2 1.4375 4 4 C4.78974678 9.31284195 3.89404809 14.74746748 3 20 C2.67 19.34 2.34 18.68 2 18 C0.865625 17.855625 -0.26875 17.71125 -1.4375 17.5625 C-2.613125 17.376875 -3.78875 17.19125 -5 17 C-7 14 -7 14 -6.75 11.9375 C-6 10 -6 10 -4 8 C-2.68 8.99 -1.36 9.98 0 11 C0 7.37 0 3.74 0 0 Z " fill="#0D6680" transform="translate(54,105)"/>
<path d="M0 0 C1.98 0 3.96 0 6 0 C6 1.98 6 3.96 6 6 C8.1249266 6.16759984 10.24994376 6.33405201 12.375 6.5 C14.15003906 6.63921875 14.15003906 6.63921875 15.9609375 6.78125 C17.63786843 6.90195454 19.31873056 7 21 7 C21.99 7 22.98 7 24 7 C24 5.35 24 3.7 24 2 C26.475 2.495 26.475 2.495 29 3 C27.19587357 6.26460973 26.16605307 7.88929795 23 10 C21.68 10 20.36 10 19 10 C19 10.66 19 11.32 19 12 C12.9015707 11.57204005 9.01245633 10.58032595 4 7 C3.1875 4.8125 3.1875 4.8125 3 3 C2.34 2.67 1.68 2.34 1 2 C0.67 1.34 0.34 0.68 0 0 Z " fill="#200B06" transform="translate(79,68)"/>
<path d="M0 0 C0.33 0 0.66 0 1 0 C1.0269501 2.93756119 1.04681474 5.87487555 1.0625 8.8125 C1.07087891 9.64587891 1.07925781 10.47925781 1.08789062 11.33789062 C1.09111328 12.14033203 1.09433594 12.94277344 1.09765625 13.76953125 C1.10289307 14.50792236 1.10812988 15.24631348 1.11352539 16.00708008 C1 18 1 18 0 21 C-0.66 21 -1.32 21 -2 21 C-2.99 18.03 -3.98 15.06 -5 12 C-6.65 11.67 -8.3 11.34 -10 11 C-10 9.68 -10 8.36 -10 7 C-8.906875 6.5875 -7.81375 6.175 -6.6875 5.75 C-3.46615481 4.38987647 -1.87325197 3.01801707 0 0 Z " fill="#BB7932" transform="translate(108,71)"/>
<path d="M0 0 C0.99 0.495 0.99 0.495 2 1 C3.37548156 1.08308638 4.75485796 1.10736016 6.1328125 1.09765625 C6.93847656 1.09443359 7.74414062 1.09121094 8.57421875 1.08789062 C9.41597656 1.07951172 10.25773437 1.07113281 11.125 1.0625 C12.39923828 1.05573242 12.39923828 1.05573242 13.69921875 1.04882812 C15.79950909 1.03702874 17.8997633 1.01909306 20 1 C18.3359375 5.765625 18.3359375 5.765625 15.3125 7.875 C11.26638668 9.24915169 9.09774296 9.19207068 5 8 C2.0625 5.625 2.0625 5.625 0 3 C0 2.01 0 1.02 0 0 Z " fill="#0C0205" transform="translate(62,115)"/>
<path d="M0 0 C0.763125 0.0825 1.52625 0.165 2.3125 0.25 C3.6325 2.56 4.9525 4.87 6.3125 7.25 C5.3225 7.745 5.3225 7.745 4.3125 8.25 C3.17899466 10.26669827 3.17899466 10.26669827 2.3125 12.25 C-2.13686709 12.61075949 -2.13686709 12.61075949 -4.5 11.0625 C-6.12325437 8.58490123 -6.11394513 7.16404169 -5.6875 4.25 C-4.100265 1.15906868 -3.51887931 0.32733761 0 0 Z " fill="#05050C" transform="translate(96.6875,82.75)"/>
<path d="M0 0 C0.99 0 1.98 0 3 0 C3.12276617 9.73944972 2.83779436 19.29056184 2 29 C1.01 29 0.02 29 -1 29 C-1.02465881 25.03069011 -1.04284023 21.06140966 -1.05493164 17.09204102 C-1.05997057 15.74079614 -1.06680177 14.38955674 -1.07543945 13.03833008 C-1.08752419 11.09979566 -1.09269828 9.161222 -1.09765625 7.22265625 C-1.10289307 6.05484619 -1.10812988 4.88703613 -1.11352539 3.68383789 C-1 1 -1 1 0 0 Z " fill="#EE8D12" transform="translate(83,76)"/>
<path d="M0 0 C0.66 0 1.32 0 2 0 C2 4.95 2 9.9 2 15 C1.34 14.01 0.68 13.02 0 12 C-0.66 13.65 -1.32 15.3 -2 17 C-4.97 17 -7.94 17 -11 17 C-11 14.69 -11 12.38 -11 10 C-7.37 10 -3.74 10 0 10 C0 6.7 0 3.4 0 0 Z " fill="#100001" transform="translate(45,78)"/>
<path d="M0 0 C-3.13164763 1.85579119 -5.37222163 2.28640356 -9 2 C-9.66 1.67 -10.32 1.34 -11 1 C-13.3329866 0.95977609 -15.66706666 0.95679753 -18 1 C-18.33 1.99 -18.66 2.98 -19 4 C-21.0625 4.6875 -21.0625 4.6875 -23 5 C-23 4.34 -23 3.68 -23 3 C-23.66 3 -24.32 3 -25 3 C-24 0 -24 0 -21.75 -1.75 C-14.66290554 -4.11236482 -6.76640688 -3.06189362 0 0 Z " fill="#05050B" transform="translate(105,53)"/>
<path d="M0 0 C-0.26561812 7.17168913 -2.66454819 12.28370171 -7 18 C-9.19921875 19.79296875 -9.19921875 19.79296875 -11 21 C-11.66 20.67 -12.32 20.34 -13 20 C-12.42415568 17.61435923 -11.77772405 15.33317216 -11 13 C-10.01 13 -9.02 13 -8 13 C-8 12.34 -8 11.68 -8 11 C-7.34 11 -6.68 11 -6 11 C-5.34 7.7 -4.68 4.4 -4 1 C-1 0 -1 0 0 0 Z " fill="#02040A" transform="translate(111,103)"/>
<path d="M0 0 C1.81242052 -0.02687279 3.62495233 -0.04633715 5.4375 -0.0625 C6.44683594 -0.07410156 7.45617187 -0.08570312 8.49609375 -0.09765625 C11 0 11 0 12 1 C12.07179964 2.51928038 12.08392007 4.04167482 12.0625 5.5625 C12.05347656 6.38878906 12.04445313 7.21507812 12.03515625 8.06640625 C12.02355469 8.70449219 12.01195313 9.34257813 12 10 C8.125 8.125 8.125 8.125 7 7 C4.67182036 6.63239269 2.3381615 6.29758419 0 6 C0 4.02 0 2.04 0 0 Z " fill="#B3491C" transform="translate(69,23)"/>
<path d="M0 0 C0.58007812 0.08378906 1.16015625 0.16757812 1.7578125 0.25390625 C6.42315303 0.86209421 10.35442117 1.07205665 15 0 C14.67 0.99 14.34 1.98 14 3 C14.99 3 15.98 3 17 3 C17 3.99 17 4.98 17 6 C15.54044651 7.29738088 14.07308598 8.58952965 12.53515625 9.79296875 C10.89342165 11.08379825 9.43563487 12.48460764 8 14 C7.91113816 10.80097361 8.08941469 8.07322544 9 5 C8.01 5.33 7.02 5.66 6 6 C5.34 5.67 4.68 5.34 4 5 C4 4.34 4 3.68 4 3 C2.35 3.33 0.7 3.66 -1 4 C-0.67 2.68 -0.34 1.36 0 0 Z " fill="#09050D" transform="translate(65,43)"/>
<path d="M0 0 C0.639375 0.33 1.27875 0.66 1.9375 1 C-0.42094687 3.92447412 -1.82287999 4.93464909 -5.5 5.9375 C-9.44979543 6.00679466 -11.0703745 5.53877315 -14.0625 3 C-14.0625 2.01 -14.0625 1.02 -14.0625 0 C-9.81147771 -2.12551114 -4.38932977 -1.43325054 0 0 Z " fill="#50C9CE" transform="translate(101.0625,68)"/>
<path d="M0 0 C1.67128308 3.62111335 0.88948286 7.2368033 0 11 C-1.9375 12.9375 -1.9375 12.9375 -4 14 C-4.66 14 -5.32 14 -6 14 C-6 9.38 -6 4.76 -6 0 C-3 -1 -3 -1 0 0 Z " fill="#000B19" transform="translate(60,23)"/>
<path d="M0 0 C3.63 0.33 7.26 0.66 11 1 C7.47412292 5.18185421 3.92446674 9.19095875 0 13 C0 8.71 0 4.42 0 0 Z " fill="#47CED6" transform="translate(86,104)"/>
<path d="M0 0 C1.32 0.33 2.64 0.66 4 1 C4 5 4 5 2.86328125 6.66796875 C-0.275978 9.74396837 -2.40040149 11.72943538 -7 12 C-7.33 11.01 -7.66 10.02 -8 9 C-5.36 6.03 -2.72 3.06 0 0 Z " fill="#110306" transform="translate(94,108)"/>
<path d="M0 0 C0.40089844 0.42152344 0.80179688 0.84304687 1.21484375 1.27734375 C5.37842232 5.28986278 8.29095375 6.6852152 14.08203125 6.89453125 C16 7 16 7 18 8 C16 10 16 10 13.3203125 10.265625 C12.26585938 10.26046875 11.21140625 10.2553125 10.125 10.25 C8.55105469 10.25773438 8.55105469 10.25773438 6.9453125 10.265625 C4.08400889 10.0075764 2.42723091 9.4774449 0 8 C0 5.36 0 2.72 0 0 Z " fill="#E97D1E" transform="translate(59,119)"/>
<path d="M0 0 C1.65 0 3.3 0 5 0 C5.08114106 1.77007714 5.13925505 3.54122098 5.1875 5.3125 C5.22230469 6.29863281 5.25710937 7.28476563 5.29296875 8.30078125 C5 11 5 11 3.61328125 12.85546875 C2 14 2 14 0 14 C0 9.38 0 4.76 0 0 Z " fill="#D64415" transform="translate(48,79)"/>
<path d="M0 0 C0 1.65 0 3.3 0 5 C-1.03125 5.2475 -2.0625 5.495 -3.125 5.75 C-7.00600143 6.84079063 -9.76009641 8.62933884 -13 11 C-12.80442984 6.79524165 -12.23756256 5.25413669 -9.3125 2.125 C-5.7529716 -0.15847105 -4.12769407 -0.49139215 0 0 Z " fill="#DE8D26" transform="translate(48,46)"/>
<path d="M0 0 C0.33 0 0.66 0 1 0 C1 3.3 1 6.6 1 10 C-0.0725 10.28875 -1.145 10.5775 -2.25 10.875 C-5.09400364 11.72820109 -7.43508983 12.5636503 -10 14 C-8.38798165 8.2683792 -4.12110332 4.12110332 0 0 Z " fill="#3CAADD" transform="translate(47,36)"/>
<path d="M0 0 C1.4540625 0.0309375 1.4540625 0.0309375 2.9375 0.0625 C3.5975 1.7125 4.2575 3.3625 4.9375 5.0625 C3.6175 6.3825 2.2975 7.7025 0.9375 9.0625 C-1.5375 8.0725 -1.5375 8.0725 -4.0625 7.0625 C-4.10504356 5.06295254 -4.10330783 3.06208364 -4.0625 1.0625 C-3.0625 0.0625 -3.0625 0.0625 0 0 Z " fill="#06050E" transform="translate(72.0625,32.9375)"/>
<path d="M0 0 C0.99 0.66 1.98 1.32 3 2 C-0.3 2 -3.6 2 -7 2 C-7 2.33 -7 2.66 -7 3 C-5.35 3.33 -3.7 3.66 -2 4 C-2 4.33 -2 4.66 -2 5 C-2.56847656 5.02578125 -3.13695313 5.0515625 -3.72265625 5.078125 C-9.52502403 5.50434233 -13.1456851 6.79821783 -18 10 C-17.79396857 6.39444997 -16.98789733 4.98566789 -14.625 2.1875 C-10.35538385 -1.11599863 -5.13760739 -0.76620518 0 0 Z " fill="#3CA7DF" transform="translate(99,56)"/>
<path d="M0 0 C7.57142857 3 7.57142857 3 10 6 C9.34 7.98 8.68 9.96 8 12 C7.0925 11.236875 6.185 10.47375 5.25 9.6875 C2.885444 7.71516893 0.48694058 5.81737966 -2 4 C-1.34 4 -0.68 4 0 4 C0 2.68 0 1.36 0 0 Z " fill="#C14313" transform="translate(59,47)"/>
<path d="M0 0 C5.0407792 -0.17087387 8.34058802 -0.05562293 13 2 C13.66 1.67 14.32 1.34 15 1 C15 1.66 15 2.32 15 3 C15.66 3.33 16.32 3.66 17 4 C15.02 4.99 15.02 4.99 13 6 C13 6.99 13 7.98 13 9 C8.05 8.01 3.1 7.02 -2 6 C-2 5.67 -2 5.34 -2 5 C3.445 4.505 3.445 4.505 9 4 C5.81237635 1.87491756 3.73487777 1.4979837 0 1 C0 0.67 0 0.34 0 0 Z " fill="#0F1929" transform="translate(94,50)"/>
<path d="M0 0 C0.33 0.66 0.66 1.32 1 2 C0.34 2 -0.32 2 -1 2 C-1 4.64 -1 7.28 -1 10 C-3.64 10 -6.28 10 -9 10 C-9 8.35 -9 6.7 -9 5 C-6.03 3.35 -3.06 1.7 0 0 Z " fill="#B1350F" transform="translate(44,62)"/>
<path d="M0 0 C0.33 1.32 0.66 2.64 1 4 C1.66 4 2.32 4 3 4 C3.33 5.65 3.66 7.3 4 9 C3.484375 8.731875 2.96875 8.46375 2.4375 8.1875 C-0.66401415 6.67650593 -3.82262806 5.34427274 -7 4 C-7 8.62 -7 13.24 -7 18 C-7.33 18 -7.66 18 -8 18 C-8 13.05 -8 8.1 -8 3 C-5.36 2.01 -2.72 1.02 0 0 Z " fill="#220B03" transform="translate(93,22)"/>
<path d="M0 0 C4.51707932 0.5314211 7.38687577 2.29015683 11 5 C11.33 5.66 11.66 6.32 12 7 C12.99 6.01 13.98 5.02 15 4 C14.67 5.98 14.34 7.96 14 10 C12.35 9.67 10.7 9.34 9 9 C9 8.01 9 7.02 9 6 C7.68 6.33 6.36 6.66 5 7 C4.67 6.34 4.34 5.68 4 5 C4.33 4.34 4.66 3.68 5 3 C3.35 3.33 1.7 3.66 0 4 C0 2.68 0 1.36 0 0 Z " fill="#1F0602" transform="translate(54,51)"/>
<path d="M0 0 C1.04607422 0.24363281 1.04607422 0.24363281 2.11328125 0.4921875 C5.19398397 1.03412438 8.06126815 1.13276704 11.1875 1.125 C12.75564453 1.12886719 12.75564453 1.12886719 14.35546875 1.1328125 C16.97748861 1.17866723 16.97748861 1.17866723 19 0 C18.67 1.32 18.34 2.64 18 4 C17.15695313 4.04898438 16.31390625 4.09796875 15.4453125 4.1484375 C14.34960938 4.22320312 13.25390625 4.29796875 12.125 4.375 C10.48917969 4.47941406 10.48917969 4.47941406 8.8203125 4.5859375 C5.86953526 4.73253491 5.86953526 4.73253491 4 7 C3.67 6.34 3.34 5.68 3 5 C2.01 4.67 1.02 4.34 0 4 C0 2.68 0 1.36 0 0 Z " fill="#120602" transform="translate(58,127)"/>
<path d="M0 0 C0.33 1.98 0.66 3.96 1 6 C-3.29 6 -7.58 6 -12 6 C-8 3 -8 3 -6 2 C-6.33 1.34 -6.66 0.68 -7 0 C-3.86650268 -1.04449911 -3.01031744 -0.93423645 0 0 Z " fill="#03030A" transform="translate(79,107)"/>
<path d="M0 0 C0.33 0 0.66 0 1 0 C1 1.65 1 3.3 1 5 C7.27 5 13.54 5 20 5 C20 5.66 20 6.32 20 7 C13.4 7 6.8 7 0 7 C-1 2 -1 2 0 0 Z " fill="#2C0903" transform="translate(34,67)"/>
<path d="M0 0 C4 2 4 2 5 3 C5.14115161 5.67058851 5.04247107 8.32432238 5 11 C3.35 11 1.7 11 0 11 C0 7.37 0 3.74 0 0 Z " fill="#35A0D6" transform="translate(54,61)"/>
<path d="M0 0 C2.60334924 2.71182212 2.99456691 3.89133813 3.1875 7.75 C3.125625 8.8225 3.06375 9.895 3 11 C2.34 10.67 1.68 10.34 1 10 C0.67 12.31 0.34 14.62 0 17 C-2.31 16.01 -4.62 15.02 -7 14 C-5.68 13.67 -4.36 13.34 -3 13 C-2.67 11.35 -2.34 9.7 -2 8 C-1.34 8 -0.68 8 0 8 C0 5.36 0 2.72 0 0 Z " fill="#2C6160" transform="translate(59,110)"/>
<path d="M0 0 C2.31 0 4.62 0 7 0 C7.99 2.97 8.98 5.94 10 9 C5.545 7.02 5.545 7.02 1 5 C1.33 4.01 1.66 3.02 2 2 C1.34 2 0.68 2 0 2 C0 1.34 0 0.68 0 0 Z " fill="#051217" transform="translate(32,104)"/>
<path d="M0 0 C1.65 0.33 3.3 0.66 5 1 C3.19587357 4.26460973 2.16605307 5.88929795 -1 8 C-3.26171875 8.1953125 -3.26171875 8.1953125 -5.6875 8.125 C-6.49574219 8.10695313 -7.30398437 8.08890625 -8.13671875 8.0703125 C-9.05904297 8.03550781 -9.05904297 8.03550781 -10 8 C-10.33 7.01 -10.66 6.02 -11 5 C-7.33333333 5 -3.66666667 5 0 5 C0 3.35 0 1.7 0 0 Z " fill="#150704" transform="translate(103,70)"/>
<path d="M0 0 C2.5 2.0625 2.5 2.0625 5 5 C5.3125 8.8125 5.3125 8.8125 5 12 C3.35 12 1.7 12 0 12 C0 8.04 0 4.08 0 0 Z " fill="#28616C" transform="translate(86,92)"/>
<path d="M0 0 C2.96175123 0.61277612 4.38058783 1.25372522 7 3 C7.8125 5.9375 7.8125 5.9375 8 9 C7.01 10.485 7.01 10.485 6 12 C5.34 11.34 4.68 10.68 4 10 C4 9.01 4 8.02 4 7 C2.68 6.34 1.36 5.68 0 5 C0 3.35 0 1.7 0 0 Z " fill="#020408" transform="translate(35,110)"/>
<path d="M0 0 C2.58789062 1.12304688 2.58789062 1.12304688 5.17578125 2.24609375 C6.75711021 2.89961942 8.37675406 3.45891802 10 4 C5.69230769 7.93846154 5.69230769 7.93846154 2.1875 8.25 C1.465625 8.1675 0.74375 8.085 0 8 C0 5.36 0 2.72 0 0 Z " fill="#06161F" transform="translate(91,97)"/>
<path d="M0 0 C2.64 0.66 5.28 1.32 8 2 C5.375 5.875 5.375 5.875 2 7 C1.67 9.64 1.34 12.28 1 15 C0.67 15 0.34 15 0 15 C0 10.05 0 5.1 0 0 Z " fill="#9D3513" transform="translate(86,77)"/>
<path d="M0 0 C1.65 0 3.3 0 5 0 C5 2.97 5 5.94 5 9 C3.35 9 1.7 9 0 9 C0 6.03 0 3.06 0 0 Z " fill="#D15020" transform="translate(59,68)"/>
<path d="M0 0 C1 2 1 2 0.44140625 3.9453125 C0.15136719 4.66460937 -0.13867188 5.38390625 -0.4375 6.125 C-0.72496094 6.84945312 -1.01242188 7.57390625 -1.30859375 8.3203125 C-1.53675781 8.87460938 -1.76492187 9.42890625 -2 10 C-2.33 10 -2.66 10 -3 10 C-3 8.02 -3 6.04 -3 4 C-5.33075929 4.95865509 -5.33075929 4.95865509 -7 8 C-7.99 7.01 -8.98 6.02 -10 5 C-9.67 4.01 -9.34 3.02 -9 2 C-6.93359375 1.26953125 -6.93359375 1.26953125 -4.4375 0.8125 C-3.61121094 0.65394531 -2.78492187 0.49539062 -1.93359375 0.33203125 C-1.29550781 0.22246094 -0.65742187 0.11289063 0 0 Z " fill="#9C381C" transform="translate(105,102)"/>
<path d="M0 0 C0.99 0.495 0.99 0.495 2 1 C3.37548156 1.08308638 4.75485796 1.10736016 6.1328125 1.09765625 C6.93847656 1.09443359 7.74414062 1.09121094 8.57421875 1.08789062 C9.41597656 1.07951172 10.25773437 1.07113281 11.125 1.0625 C12.39923828 1.05573242 12.39923828 1.05573242 13.69921875 1.04882812 C15.79950909 1.03702874 17.8997633 1.01909306 20 1 C19.34 2.65 18.68 4.3 18 6 C17.67 5.34 17.34 4.68 17 4 C11.72 4 6.44 4 1 4 C0.67 2.68 0.34 1.36 0 0 Z " fill="#1D1216" transform="translate(62,115)"/>
<path d="M0 0 C1.32 0 2.64 0 4 0 C4 0.66 4 1.32 4 2 C4.99 2.33 5.98 2.66 7 3 C6.01 3 5.02 3 4 3 C4.04125 4.093125 4.0825 5.18625 4.125 6.3125 C4 10 4 10 2 13 C1.34 13 0.68 13 0 13 C0 13.66 0 14.32 0 15 C-0.99 14.67 -1.98 14.34 -3 14 C-2.360625 12.948125 -1.72125 11.89625 -1.0625 10.8125 C0.61754452 7.89171588 1.58996052 5.3828257 2 2 C1.34 2 0.68 2 0 2 C0 1.34 0 0.68 0 0 Z " fill="#240705" transform="translate(103,101)"/>
<path d="M0 0 C3.83736322 0.95934081 4.59660228 1.23609263 7 4 C6.01 4 5.02 4 4 4 C4 5.98 4 7.96 4 10 C2.68 10 1.36 10 0 10 C0 6.7 0 3.4 0 0 Z " fill="#A53D17" transform="translate(86,30)"/>
<path d="M0 0 C0.72896484 -0.01224609 1.45792969 -0.02449219 2.20898438 -0.03710938 C6.0338391 -0.04762685 7.80606564 0.01654376 11.0625 2.1875 C10.09828125 2.24808594 9.1340625 2.30867188 8.140625 2.37109375 C6.87734375 2.45488281 5.6140625 2.53867187 4.3125 2.625 C3.05953125 2.70621094 1.8065625 2.78742187 0.515625 2.87109375 C-2.78167099 3.07547736 -2.78167099 3.07547736 -5.28125 3.8125 C-5.8278125 3.93625 -6.374375 4.06 -6.9375 4.1875 C-8.6875 2.75 -8.6875 2.75 -9.9375 1.1875 C-6.79347519 -0.3845124 -3.44802603 0.00303256 0 0 Z " fill="#0C0B13" transform="translate(71.9375,16.8125)"/>
<path d="M0 0 C0 1.65 0 3.3 0 5 C-1.98 5.66 -3.96 6.32 -6 7 C-6 6.67 -6 6.34 -6 6 C-9.3 5.67 -12.6 5.34 -16 5 C-16.33 4.01 -16.66 3.02 -17 2 C-16.34 1.67 -15.68 1.34 -15 1 C-14.1646875 1.495 -14.1646875 1.495 -13.3125 2 C-9.95094931 3.45364354 -7.51806706 2.76757827 -4 2 C-1 0 -1 0 0 0 Z " fill="#02101A" transform="translate(103,70)"/>
<path d="M0 0 C1.65 0 3.3 0 5 0 C5 2.97 5 5.94 5 9 C1 7 1 7 -1 4 C-0.625 1.8125 -0.625 1.8125 0 0 Z " fill="#D37C21" transform="translate(76,24)"/>
<path d="M0 0 C0.33 0 0.66 0 1 0 C1 3.96 1 7.92 1 12 C0.01 11.67 -0.98 11.34 -2 11 C-2 10.01 -2 9.02 -2 8 C-3.32 7.34 -4.64 6.68 -6 6 C-5.01 6 -4.02 6 -3 6 C-2.87625 5.38125 -2.7525 4.7625 -2.625 4.125 C-2 2 -2 2 0 0 Z " fill="#EF8711" transform="translate(107,73)"/>
<path d="M0 0 C0.99 0 1.98 0 3 0 C3 0.66 3 1.32 3 2 C5.31 2 7.62 2 10 2 C10.33 3.32 10.66 4.64 11 6 C9.54077307 5.88590407 8.08259402 5.75834456 6.625 5.625 C5.40683594 5.52058594 5.40683594 5.52058594 4.1640625 5.4140625 C2 5 2 5 0 3 C0 2.01 0 1.02 0 0 Z " fill="#071019" transform="translate(31,93)"/>
<path d="M0 0 C1.8871875 0.061875 1.8871875 0.061875 3.8125 0.125 C3.8125 1.115 3.8125 2.105 3.8125 3.125 C1.1725 3.125 -1.4675 3.125 -4.1875 3.125 C-4.1875 4.775 -4.1875 6.425 -4.1875 8.125 C-5.6875 6.8125 -5.6875 6.8125 -7.1875 5.125 C-7.1875 4.135 -7.1875 3.145 -7.1875 2.125 C-4.09861478 0.06574319 -3.47814073 -0.1140374 0 0 Z " fill="#0B0402" transform="translate(38.1875,84.875)"/>
<path d="M0 0 C5.8022175 -0.36263859 9.63999211 0.74315457 15 3 C15 3.33 15 3.66 15 4 C9.54230189 4.11138159 4.38490641 3.91657981 -1 3 C-0.67 2.01 -0.34 1.02 0 0 Z " fill="#2EB5F7" transform="translate(91,57)"/>
<path d="M0 0 C4.875 3.75 4.875 3.75 6 6 C7.89533342 6.46523063 7.89533342 6.46523063 10.0625 6.625 C11.361875 6.74875 12.66125 6.8725 14 7 C13.67 7.66 13.34 8.32 13 9 C7.97294083 8.87952582 4.90127449 8.75412763 0.9375 5.4375 C0.298125 4.633125 -0.34125 3.82875 -1 3 C-0.67 2.01 -0.34 1.02 0 0 Z " fill="#C43700" transform="translate(62,118)"/>
<path d="M0 0 C0.66 0 1.32 0 2 0 C2.48979592 7.34693878 2.48979592 7.34693878 0.125 10.5 C-2 12 -2 12 -4 12 C-3.52494322 10.18641846 -3.04483958 8.37415821 -2.5625 6.5625 C-2.29566406 5.55316406 -2.02882813 4.54382813 -1.75390625 3.50390625 C-1 1 -1 1 0 0 Z " fill="#CE4313" transform="translate(100,106)"/>
<path d="M0 0 C0.33 0 0.66 0 1 0 C1.06058594 0.97582031 1.12117188 1.95164062 1.18359375 2.95703125 C1.26738281 4.22933594 1.35117188 5.50164062 1.4375 6.8125 C1.51871094 8.07707031 1.59992188 9.34164062 1.68359375 10.64453125 C1.87184547 13.99181893 1.87184547 13.99181893 3 17 C-0.21311475 22.73770492 -0.21311475 22.73770492 -4 24 C-3.67 22.68 -3.34 21.36 -3 20 C-2.34 20.33 -1.68 20.66 -1 21 C-0.67 14.07 -0.34 7.14 0 0 Z " fill="#210A04" transform="translate(109,71)"/>
<path d="M0 0 C3.3 0.33 6.6 0.66 10 1 C10 1.99 10 2.98 10 4 C6.37 4 2.74 4 -1 4 C-0.67 2.68 -0.34 1.36 0 0 Z " fill="#01040F" transform="translate(90,62)"/>
<path d="M0 0 C2.3125 0.1875 2.3125 0.1875 5 1 C6.8125 3.5625 6.8125 3.5625 8 6 C5.36 6 2.72 6 0 6 C0 4.02 0 2.04 0 0 Z " fill="#455A5A" transform="translate(90,34)"/>
<path d="M0 0 C2.31 0 4.62 0 7 0 C7 1.65 7 3.3 7 5 C4.69 5 2.38 5 0 5 C0 3.35 0 1.7 0 0 Z " fill="#D78124" transform="translate(35,88)"/>
<path d="M0 0 C2.31 0 4.62 0 7 0 C7 1.65 7 3.3 7 5 C4.69 5 2.38 5 0 5 C0 3.35 0 1.7 0 0 Z " fill="#0B5992" transform="translate(35,78)"/>
<path d="M0 0 C0.99 0 1.98 0 3 0 C3 4.95 3 9.9 3 15 C2.67 15 2.34 15 2 15 C1.67 12.03 1.34 9.06 1 6 C0.67 7.65 0.34 9.3 0 11 C-0.33 11 -0.66 11 -1 11 C-1.02688151 9.35425434 -1.04634123 7.70838587 -1.0625 6.0625 C-1.07410156 5.14597656 -1.08570312 4.22945313 -1.09765625 3.28515625 C-1 1 -1 1 0 0 Z " fill="#EC800E" transform="translate(83,76)"/>
<path d="M0 0 C0.66 0.33 1.32 0.66 2 1 C2.11138159 6.45769811 1.91657981 11.61509359 1 17 C-0.5625 15.25 -0.5625 15.25 -2 13 C-1.75203633 10.83031791 -1.55766393 9.55766393 0 8 C-0.165 6.845 -0.33 5.69 -0.5 4.5 C-0.665 3.345 -0.83 2.19 -1 1 C-0.67 0.67 -0.34 0.34 0 0 Z " fill="#076D92" transform="translate(56,108)"/>
<path d="M0 0 C0.99 0.33 1.98 0.66 3 1 C2.67 1.66 2.34 2.32 2 3 C3.65 3 5.3 3 7 3 C6.01 4.485 6.01 4.485 5 6 C1.375 6.1875 1.375 6.1875 -2 6 C-2 4.35 -2 2.7 -2 1 C-1.34 0.67 -0.68 0.34 0 0 Z " fill="#081018" transform="translate(62,107)"/>
<path d="M0 0 C1.98 1.65 3.96 3.3 6 5 C5.01 5.33 4.02 5.66 3 6 C3 6.66 3 7.32 3 8 C4.65 8.33 6.3 8.66 8 9 C5.39417629 9.93065133 4.35801776 10.14917407 1.75 9.0625 C1.1725 8.711875 0.595 8.36125 0 8 C0 5.36 0 2.72 0 0 Z " fill="#CA822B" transform="translate(59,119)"/>
<path d="M0 0 C3.83736322 0.95934081 4.59660228 1.23609263 7 4 C6 5 6 5 3.4375 5.0625 C2.2309375 5.0315625 2.2309375 5.0315625 1 5 C1 7.31 1 9.62 1 12 C0.67 12 0.34 12 0 12 C0 8.04 0 4.08 0 0 Z " fill="#09314C" transform="translate(53,56)"/>
<path d="M0 0 C0 2.31 0 4.62 0 7 C-1.65 6.67 -3.3 6.34 -5 6 C-5.33 4.35 -5.66 2.7 -6 1 C-1.125 0 -1.125 0 0 0 Z " fill="#063F54" transform="translate(54,97)"/>
<path d="M0 0 C4.455 0.99 4.455 0.99 9 2 C9 2.99 9 3.98 9 5 C8.01 5.33 7.02 5.66 6 6 C5.34 5.67 4.68 5.34 4 5 C4 4.34 4 3.68 4 3 C2.35 3.33 0.7 3.66 -1 4 C-0.67 2.68 -0.34 1.36 0 0 Z " fill="#421A13" transform="translate(65,43)"/>
<path d="M0 0 C0.99 0.33 1.98 0.66 3 1 C3 1.66 3 2.32 3 3 C2.34 3 1.68 3 1 3 C1.02320312 3.75925781 1.04640625 4.51851562 1.0703125 5.30078125 C1.08835937 6.29464844 1.10640625 7.28851563 1.125 8.3125 C1.14820312 9.29863281 1.17140625 10.28476562 1.1953125 11.30078125 C1 14 1 14 -1 17 C-1.02691685 14.54159395 -1.04679802 12.08348118 -1.0625 9.625 C-1.07087891 8.92632812 -1.07925781 8.22765625 -1.08789062 7.5078125 C-1.11328125 2.2265625 -1.11328125 2.2265625 0 0 Z " fill="#0D0A12" transform="translate(64,21)"/>
<path d="M0 0 C0.33 0 0.66 0 1 0 C1 1.65 1 3.3 1 5 C3.31 5 5.62 5 8 5 C8 3.35 8 1.7 8 0 C9.0625 1.8125 9.0625 1.8125 10 4 C9.67 4.99 9.34 5.98 9 7 C6.03 7 3.06 7 0 7 C0 4.69 0 2.38 0 0 Z " fill="#2D0E01" transform="translate(34,88)"/>
<path d="M0 0 C0.33 0 0.66 0 1 0 C1 4.29 1 8.58 1 13 C0.01 13 -0.98 13 -2 13 C-1.85915204 11.20793453 -1.71216299 9.41635083 -1.5625 7.625 C-1.48128906 6.62726563 -1.40007812 5.62953125 -1.31640625 4.6015625 C-1 2 -1 2 0 0 Z " fill="#F78809" transform="translate(84,80)"/>
<path d="M0 0 C0.99 0.495 0.99 0.495 2 1 C2.22889676 2.99467179 2.45469744 4.98988838 2.6484375 6.98828125 C3.10290897 9.588868 4.19012898 11.11143894 6 13 C4.02 12.34 2.04 11.68 0 11 C0 7.37 0 3.74 0 0 Z " fill="#210201" transform="translate(59,36)"/>
<path d="M0 0 C2.31 0.33 4.62 0.66 7 1 C7.33 2.32 7.66 3.64 8 5 C7.01 5.495 7.01 5.495 6 6 C6 4.68 6 3.36 6 2 C4.68 2 3.36 2 2 2 C2.66 3.32 3.32 4.64 4 6 C2.02 6 0.04 6 -2 6 C-1.34 5.67 -0.68 5.34 0 5 C0 3.35 0 1.7 0 0 Z " fill="#54AAAC" transform="translate(35,98)"/>
<path d="M0 0 C2.5 2.3125 2.5 2.3125 5 5 C5 5.99 5 6.98 5 8 C3.68 8 2.36 8 1 8 C-1 5 -1 5 -0.625 2.3125 C-0.41875 1.549375 -0.2125 0.78625 0 0 Z " fill="#140B0A" transform="translate(79,105)"/>
<path d="M0 0 C1.65 0 3.3 0 5 0 C4.6875 1.875 4.6875 1.875 4 4 C1 6 1 6 -2 6 C-1.34 4.02 -0.68 2.04 0 0 Z " fill="#010C1A" transform="translate(52,92)"/>
<path d="M0 0 C0.99 0.33 1.98 0.66 3 1 C1.89718873 2.27200971 0.79269231 3.54255853 -0.3125 4.8125 C-1.23482422 5.87404297 -1.23482422 5.87404297 -2.17578125 6.95703125 C-3.73334335 8.70136739 -5.32658875 10.36778041 -7 12 C-6.75 9.125 -6.75 9.125 -6 6 C-3.9375 4.625 -3.9375 4.625 -2 4 C-2 3.34 -2 2.68 -2 2 C-1.34 2 -0.68 2 0 2 C0 1.34 0 0.68 0 0 Z " fill="#054A6C" transform="translate(44,36)"/>
<path d="M0 0 C3.36704285 -0.2295711 5.41370268 -0.33943529 8.375 1.375 C8.91125 1.91125 9.4475 2.4475 10 3 C10 3.66 10 4.32 10 5 C7.69 4.67 5.38 4.34 3 4 C3 3.34 3 2.68 3 2 C2.01 2 1.02 2 0 2 C0 1.34 0 0.68 0 0 Z " fill="#130302" transform="translate(97,40)"/>
<path d="M0 0 C0 1.65 0 3.3 0 5 C-1.65 5.66 -3.3 6.32 -5 7 C-5 5.02 -5 3.04 -5 1 C-2 0 -2 0 0 0 Z " fill="#5DBBBA" transform="translate(59,30)"/>
<path d="M0 0 C2.97 0 5.94 0 9 0 C8.67 0.99 8.34 1.98 8 3 C6.1875 3.8125 6.1875 3.8125 4 4 C1.75 3.0625 1.75 3.0625 0 2 C0 1.34 0 0.68 0 0 Z " fill="#3DDADF" transform="translate(90,69)"/>
<path d="M0 0 C0.99 0 1.98 0 3 0 C3 0.66 3 1.32 3 2 C3.66 2 4.32 2 5 2 C4.34 3.65 3.68 5.3 3 7 C1.35 5.35 -0.3 3.7 -2 2 C-1.34 1.34 -0.68 0.68 0 0 Z " fill="#130207" transform="translate(66,46)"/>
<path d="M0 0 C2.72869407 0.03287583 5.2966618 0.56397771 8 1 C8.33 2.65 8.66 4.3 9 6 C8.484375 5.71125 7.96875 5.4225 7.4375 5.125 C4.37643275 3.71219973 1.25055082 2.8751483 -2 2 C-1.34 1.34 -0.68 0.68 0 0 Z " fill="#602C27" transform="translate(99,44)"/>
<path d="M0 0 C2 2 2 2 2.125 5.125 C2.08375 6.07375 2.0425 7.0225 2 8 C2.99 8 3.98 8 5 8 C5 8.66 5 9.32 5 10 C3.35 10 1.7 10 0 10 C0 7.69 0 5.38 0 3 C-0.66 2.67 -1.32 2.34 -2 2 C-1.34 2 -0.68 2 0 2 C0 1.34 0 0.68 0 0 Z " fill="#3A0F06" transform="translate(48,58)"/>
<path d="M0 0 C0.66 0 1.32 0 2 0 C2.33 3.96 2.66 7.92 3 12 C2.01 12 1.02 12 0 12 C0 8.04 0 4.08 0 0 Z " fill="#F38806" transform="translate(55,38)"/>
<path d="M0 0 C0.66 0 1.32 0 2 0 C2.25 6.625 2.25 6.625 0 10 C-2.21538462 4.58461538 -2.21538462 4.58461538 -1.125 1.625 C-0.75375 1.08875 -0.3825 0.5525 0 0 Z " fill="#060105" transform="translate(51,40)"/>
<path d="M0 0 C0.99 0.33 1.98 0.66 3 1 C2.66226563 1.47050781 2.32453125 1.94101562 1.9765625 2.42578125 C1.30753906 3.35970703 1.30753906 3.35970703 0.625 4.3125 C0.18414062 4.92738281 -0.25671875 5.54226562 -0.7109375 6.17578125 C-1.83410907 7.7652392 -2.92041447 9.38062171 -4 11 C-3.91291331 9.54054712 -3.80473093 8.08234132 -3.6875 6.625 C-3.62949219 5.81289063 -3.57148437 5.00078125 -3.51171875 4.1640625 C-3 2 -3 2 0 0 Z " fill="#000717" transform="translate(41,34)"/>
<path d="M0 0 C0.33 0.99 0.66 1.98 1 3 C0 4 0 4 -2.50390625 4.09765625 C-4.01791016 4.08025391 -4.01791016 4.08025391 -5.5625 4.0625 C-6.57441406 4.05347656 -7.58632812 4.04445312 -8.62890625 4.03515625 C-9.41136719 4.02355469 -10.19382812 4.01195312 -11 4 C-8.70176341 1.70176341 -8.05119118 1.70309616 -4.9375 1.4375 C-1.23263383 1.44086552 -1.23263383 1.44086552 0 0 Z " fill="#341201" transform="translate(76,127)"/>
<path d="M0 0 C0.66 0 1.32 0 2 0 C2.33 2.31 2.66 4.62 3 7 C1.68 7 0.36 7 -1 7 C-1.04254356 5.00045254 -1.04080783 2.99958364 -1 1 C-0.67 0.67 -0.34 0.34 0 0 Z " fill="#076C8F" transform="translate(55,96)"/>
<path d="M0 0 C1.65 0 3.3 0 5 0 C6.32 2.31 7.64 4.62 9 7 C8.01 7.495 8.01 7.495 7 8 C6.690625 7.0409375 6.690625 7.0409375 6.375 6.0625 C5.10461791 3.65074923 5.10461791 3.65074923 1.875 3.25 C0.92625 3.1675 -0.0225 3.085 -1 3 C-0.67 2.01 -0.34 1.02 0 0 Z " fill="#291E1D" transform="translate(94,83)"/>
<path d="M0 0 C0 1.32 0 2.64 0 4 C1.98 4.66 3.96 5.32 6 6 C6 6.33 6 6.66 6 7 C-0.625 6.25 -0.625 6.25 -4 4 C-4 3.01 -4 2.02 -4 1 C-2 0 -2 0 0 0 Z " fill="#44ABB2" transform="translate(91,67)"/>
<path d="M0 0 C0 0.99 0 1.98 0 3 C-2.3125 5 -2.3125 5 -5 7 C-6.0173873 7.98230498 -7.02596117 8.97469597 -8 10 C-8 8.35 -8 6.7 -8 5 C-7.34 5 -6.68 5 -6 5 C-5.67 4.34 -5.34 3.68 -5 3 C-3.35857037 1.9590934 -1.69287785 0.95495674 0 0 Z " fill="#171019" transform="translate(44,56)"/>
<path d="M0 0 C1.98 0.495 1.98 0.495 4 1 C4.125 3.875 4.125 3.875 4 7 C3.34 7.66 2.68 8.32 2 9 C1.01 9 0.02 9 -1 9 C0.20381448 6.50638429 1.45428722 4.31856917 3 2 C2.01 2 1.02 2 0 2 C0 1.34 0 0.68 0 0 Z " fill="#040E1B" transform="translate(33,44)"/>
<path d="M0 0 C0 1.65 0 3.3 0 5 C-1.65 5.33 -3.3 5.66 -5 6 C-4.625 3.5625 -4.625 3.5625 -4 1 C-2 0 -2 0 0 0 Z " fill="#186077" transform="translate(59,25)"/>
<path d="M0 0 C0.99 0.66 1.98 1.32 3 2 C2.42655063 4.86724686 2.1385485 5.8614515 0 8 C-1.32 6.35 -2.64 4.7 -4 3 C-3.34 2.67 -2.68 2.34 -2 2 C-2 2.66 -2 3.32 -2 4 C-1.01 4 -0.02 4 1 4 C0.67 2.68 0.34 1.36 0 0 Z " fill="#49BFC8" transform="translate(46,110)"/>
<path d="M0 0 C0 2.31 0 4.62 0 7 C-1.32 7.33 -2.64 7.66 -4 8 C-4.36780384 3.46375267 -4.36780384 3.46375267 -2.5625 1.1875 C-1 0 -1 0 0 0 Z " fill="#EB4C0D" transform="translate(53,83)"/>
<path d="M0 0 C1.98 0 3.96 0 6 0 C6.66 1.32 7.32 2.64 8 4 C7.2575 3.814375 6.515 3.62875 5.75 3.4375 C3.05009037 3.00796892 1.55368923 3.14877026 -1 4 C-0.67 2.68 -0.34 1.36 0 0 Z " fill="#131013" transform="translate(69,33)"/>
<path d="M0 0 C2.60334924 2.71182212 2.99456691 3.89133813 3.1875 7.75 C3.0946875 9.35875 3.0946875 9.35875 3 11 C1.5 10 1.5 10 0 8 C-0.27345479 5.28153765 -0.13491285 2.74322801 0 0 Z " fill="#104152" transform="translate(59,110)"/>
<path d="M0 0 C0.33 0 0.66 0 1 0 C1 2.97 1 5.94 1 9 C0.67 8.34 0.34 7.68 0 7 C-1.32 7 -2.64 7 -4 7 C-4 6.34 -4 5.68 -4 5 C-3.34 4.67 -2.68 4.34 -2 4 C-0.86649466 1.98330173 -0.86649466 1.98330173 0 0 Z " fill="#01141F" transform="translate(53,27)"/>
<path d="M0 0 C1.65 0.33 3.3 0.66 5 1 C4.01 1.33 3.02 1.66 2 2 C2 2.99 2 3.98 2 5 C0.02 5 -1.96 5 -4 5 C-2.68 3.35 -1.36 1.7 0 0 Z " fill="#0D0204" transform="translate(101,99)"/>
<path d="M0 0 C-2.40545638 1.20272819 -3.94996953 1.10071472 -6.625 1.0625 C-7.85089844 1.04896484 -7.85089844 1.04896484 -9.1015625 1.03515625 C-10.04128906 1.01775391 -10.04128906 1.01775391 -11 1 C-11 0.34 -11 -0.32 -11 -1 C-3.375 -2.25 -3.375 -2.25 0 0 Z " fill="#101018" transform="translate(99,45)"/>
<path d="M0 0 C1.98 0.99 1.98 0.99 4 2 C3.01 2.495 3.01 2.495 2 3 C2 4.98 2 6.96 2 9 C1.34 9 0.68 9 0 9 C0 6.03 0 3.06 0 0 Z " fill="#C13903" transform="translate(87,30)"/>
<path d="M0 0 C4.875 4.75 4.875 4.75 6 7 C3.625 6.75 3.625 6.75 1 6 C-0.375 4.0625 -0.375 4.0625 -1 2 C-0.67 1.34 -0.34 0.68 0 0 Z " fill="#041927" transform="translate(42,113)"/>
<path d="M0 0 C0.33 0 0.66 0 1 0 C1 4.29 1 8.58 1 13 C0.67 13 0.34 13 0 13 C-2.21538462 5.73846154 -2.21538462 5.73846154 -1.125 2 C-0.75375 1.34 -0.3825 0.68 0 0 Z " fill="#1E5D77" transform="translate(58,90)"/>
<path d="M0 0 C1.65 0 3.3 0 5 0 C5 1.32 5 2.64 5 4 C3.35 4 1.7 4 0 4 C0 2.68 0 1.36 0 0 Z " fill="#23647E" transform="translate(54,68)"/>
<path d="M0 0 C0.99 0 1.98 0 3 0 C3 2.31 3 4.62 3 7 C2.67 6.34 2.34 5.68 2 5 C1.01 5.33 0.02 5.66 -1 6 C-0.67 4.02 -0.34 2.04 0 0 Z " fill="#D03E10" transform="translate(45,61)"/>
<path d="M0 0 C0.33 0 0.66 0 1 0 C1 3.3 1 6.6 1 10 C-0.65 10 -2.3 10 -4 10 C-3.34 9.01 -2.68 8.02 -2 7 C-1.34 7 -0.68 7 0 7 C-0.185625 6.030625 -0.37125 5.06125 -0.5625 4.0625 C-0.706875 3.051875 -0.85125 2.04125 -1 1 C-0.67 0.67 -0.34 0.34 0 0 Z " fill="#5AAAC3" transform="translate(47,36)"/>
<path d="M0 0 C4.31392226 0.4793247 6.16569547 1.7457985 9 5 C6.03 4.67 3.06 4.34 0 4 C0 2.68 0 1.36 0 0 Z " fill="#D68024" transform="translate(86,26)"/>
<path d="M0 0 C0.33 0.66 0.66 1.32 1 2 C1.66 2.33 2.32 2.66 3 3 C-2.75 7 -2.75 7 -5 7 C-5 5 -5 5 -2.5 2.375 C-1.675 1.59125 -0.85 0.8075 0 0 Z " fill="#AB4427" transform="translate(90,120)"/>
<path d="M0 0 C3.63 0.33 7.26 0.66 11 1 C8 3 8 3 4.375 2.75 C2.704375 2.37875 2.704375 2.37875 1 2 C0.67 1.34 0.34 0.68 0 0 Z " fill="#3F0A04" transform="translate(66,121)"/>
<path d="M0 0 C0.33 0 0.66 0 1 0 C1 2.97 1 5.94 1 9 C1.99 9.33 2.98 9.66 4 10 C2.68 10.99 1.36 11.98 0 13 C0 8.71 0 4.42 0 0 Z " fill="#5DBCB1" transform="translate(86,104)"/>
<path d="M0 0 C-0.33 1.65 -0.66 3.3 -1 5 C-2.65 5 -4.3 5 -6 5 C-6 3.68 -6 2.36 -6 1 C-3.92446352 0.4465236 -2.15634036 0 0 0 Z " fill="#BD681E" transform="translate(104,77)"/>
<path d="M0 0 C0.99 0.33 1.98 0.66 3 1 C3 1.99 3 2.98 3 4 C3.66 4.33 4.32 4.66 5 5 C3.35 5 1.7 5 0 5 C-0.5625 3.0625 -0.5625 3.0625 -1 1 C-0.67 0.67 -0.34 0.34 0 0 Z " fill="#0A738C" transform="translate(48,115)"/>
<path d="M0 0 C0.33 0.99 0.66 1.98 1 3 C-0.65 4.65 -2.3 6.3 -4 8 C-4.66 7.67 -5.32 7.34 -6 7 C-4.02 4.69 -2.04 2.38 0 0 Z " fill="#042127" transform="translate(94,108)"/>
<path d="M0 0 C0.66 0 1.32 0 2 0 C2.33 2.31 2.66 4.62 3 7 C2.01 7 1.02 7 0 7 C0 4.69 0 2.38 0 0 Z " fill="#076D8D" transform="translate(87,97)"/>
<path d="M0 0 C0.66 0.33 1.32 0.66 2 1 C1.01 2.485 1.01 2.485 0 4 C0.66 4.33 1.32 4.66 2 5 C-0.475 6.485 -0.475 6.485 -3 8 C-2.25 2.25 -2.25 2.25 0 0 Z " fill="#AA7E42" transform="translate(38,49)"/>
<path d="M0 0 C1.65 1.65 3.3 3.3 5 5 C4.01 5.33 3.02 5.66 2 6 C1.01 5.01 0.02 4.02 -1 3 C-0.67 2.01 -0.34 1.02 0 0 Z " fill="#903719" transform="translate(62,118)"/>
<path d="M0 0 C1.98 0 3.96 0 6 0 C6 0.99 6 1.98 6 3 C3.69 3 1.38 3 -1 3 C-0.67 2.01 -0.34 1.02 0 0 Z " fill="#000B1C" transform="translate(36,75)"/>
<path d="M0 0 C1.67542976 0.28604898 3.34385343 0.61781233 5 1 C0.25 4.875 0.25 4.875 -2 6 C-1.125 1.125 -1.125 1.125 0 0 Z " fill="#4295C4" transform="translate(83,60)"/>
<path d="M0 0 C3.65316671 1.24976756 4.78065836 1.67098753 7 5 C6.01 5.33 5.02 5.66 4 6 C3.34 5.34 2.68 4.68 2 4 C1.34 3.67 0.68 3.34 0 3 C0 2.01 0 1.02 0 0 Z " fill="#0D0B11" transform="translate(94,23)"/>
<path d="M0 0 C2 1 2 1 2 1 Z " fill="#FFFFFF" transform="translate(427,158)"/>
<path d="M0 0 C2 1 2 1 2 1 Z " fill="#000000" transform="translate(108,101)"/>
<path d="M0 0 C2 1 2 1 2 1 Z " fill="#000000" transform="translate(93,81)"/>
<path d="M0 0 C2 1 2 1 2 1 Z " fill="#000000" transform="translate(91,48)"/>
<path d="" fill="#FFFFFF" transform="translate(0,0)"/>
<path d="" fill="#FFFFFF" transform="translate(0,0)"/>
<path d="" fill="#FFFFFF" transform="translate(0,0)"/>
<path d="" fill="#FFFFFF" transform="translate(0,0)"/>
<path d="" fill="#FFFFFF" transform="translate(0,0)"/>
<path d="" fill="#FFFFFF" transform="translate(0,0)"/>
<path d="" fill="#FFFFFF" transform="translate(0,0)"/>
<path d="" fill="#FFFFFF" transform="translate(0,0)"/>
<path d="" fill="#FFFFFF" transform="translate(0,0)"/>
<path d="" fill="#FFFFFF" transform="translate(0,0)"/>
<path d="" fill="#FFFFFF" transform="translate(0,0)"/>
<path d="" fill="#FFFFFF" transform="translate(0,0)"/>
<path d="" fill="#FFFFFF" transform="translate(0,0)"/>
<path d="" fill="#FFFFFF" transform="translate(0,0)"/>
<path d="" fill="#FFFFFF" transform="translate(0,0)"/>
<path d="" fill="#FFFFFF" transform="translate(0,0)"/>
<path d="" fill="#FFFFFF" transform="translate(0,0)"/>
<path d="" fill="#000000" transform="translate(0,0)"/>
<path d="" fill="#FFFFFF" transform="translate(0,0)"/>
<path d="" fill="#FFFFFF" transform="translate(0,0)"/>
<path d="" fill="#FFFFFF" transform="translate(0,0)"/>
<path d="" fill="#FFFFFF" transform="translate(0,0)"/>
<path d="" fill="#000000" transform="translate(0,0)"/>
<path d="" fill="#000000" transform="translate(0,0)"/>
<path d="" fill="#FFFFFF" transform="translate(0,0)"/>
<path d="" fill="#FFFFFF" transform="translate(0,0)"/>
<path d="" fill="#FFFFFF" transform="translate(0,0)"/>
<path d="" fill="#FFFFFF" transform="translate(0,0)"/>
<path d="" fill="#FFFFFF" transform="translate(0,0)"/>
<path d="" fill="#FFFFFF" transform="translate(0,0)"/>
<path d="" fill="#FFFFFF" transform="translate(0,0)"/>
<path d="" fill="#FFFFFF" transform="translate(0,0)"/>
<path d="" fill="#FFFFFF" transform="translate(0,0)"/>
<path d="" fill="#FFFFFF" transform="translate(0,0)"/>
<path d="" fill="#FFFFFF" transform="translate(0,0)"/>
<path d="" fill="#FFFFFF" transform="translate(0,0)"/>
<path d="" fill="#FFFFFF" transform="translate(0,0)"/>
<path d="" fill="#FFFFFF" transform="translate(0,0)"/>
<path d="" fill="#FFFFFF" transform="translate(0,0)"/>
<path d="" fill="#FFFFFF" transform="translate(0,0)"/>
<path d="" fill="#FFFFFF" transform="translate(0,0)"/>
<path d="" fill="#000000" transform="translate(0,0)"/>
<path d="" fill="#FFFFFF" transform="translate(0,0)"/>
<path d="" fill="#FFFFFF" transform="translate(0,0)"/>
<path d="" fill="#000000" transform="translate(0,0)"/>
<path d="" fill="#FFFFFF" transform="translate(0,0)"/>
<path d="" fill="#FFFFFF" transform="translate(0,0)"/>
<path d="" fill="#FFFFFF" transform="translate(0,0)"/>
<path d="" fill="#FFFFFF" transform="translate(0,0)"/>
<path d="" fill="#FFFFFF" transform="translate(0,0)"/>
<path d="" fill="#FFFFFF" transform="translate(0,0)"/>
<path d="" fill="#FFFFFF" transform="translate(0,0)"/>
<path d="" fill="#FFFFFF" transform="translate(0,0)"/>
<path d="" fill="#FFFFFF" transform="translate(0,0)"/>
<path d="" fill="#FFFFFF" transform="translate(0,0)"/>
<path d="" fill="#FFFFFF" transform="translate(0,0)"/>
<path d="" fill="#FFFFFF" transform="translate(0,0)"/>
<path d="" fill="#FFFFFF" transform="translate(0,0)"/>
<path d="" fill="#FFFFFF" transform="translate(0,0)"/>
<path d="" fill="#FFFFFF" transform="translate(0,0)"/>
<path d="" fill="#FFFFFF" transform="translate(0,0)"/>
<path d="" fill="#FFFFFF" transform="translate(0,0)"/>
<path d="" fill="#FFFFFF" transform="translate(0,0)"/>
<path d="" fill="#FFFFFF" transform="translate(0,0)"/>
<path d="" fill="#FFFFFF" transform="translate(0,0)"/>
<path d="" fill="#FFFFFF" transform="translate(0,0)"/>
<path d="" fill="#FFFFFF" transform="translate(0,0)"/>
<path d="" fill="#FFFFFF" transform="translate(0,0)"/>
<path d="" fill="#FFFFFF" transform="translate(0,0)"/>
<path d="" fill="#FFFFFF" transform="translate(0,0)"/>
<path d="" fill="#FFFFFF" transform="translate(0,0)"/>
<path d="" fill="#FFFFFF" transform="translate(0,0)"/>
<path d="" fill="#FFFFFF" transform="translate(0,0)"/>
</svg>
