<?xml version="1.0" encoding="UTF-8"?>
<!DOCTYPE svg PUBLIC "-//W3C//DTD SVG 1.1//EN" "http://www.w3.org/Graphics/SVG/1.1/DTD/svg11.dtd">
<svg xmlns="http://www.w3.org/2000/svg" version="1.1" width="512px" height="512px" style="shape-rendering:geometricPrecision; text-rendering:geometricPrecision; image-rendering:optimizeQuality; fill-rule:evenodd; clip-rule:evenodd" xmlns:xlink="http://www.w3.org/1999/xlink">
<g><path style="opacity:0.978" fill="#040302" d="M 224.5,-0.5 C 236.167,-0.5 247.833,-0.5 259.5,-0.5C 277.369,1.18203 292.536,8.51537 305,21.5C 310.455,29.6465 313.288,38.6465 313.5,48.5C 323.53,49.018 330.363,54.018 334,63.5C 336.818,71.2582 338.485,79.2582 339,87.5C 339.333,98.1667 339.667,108.833 340,119.5C 356.607,135.233 358.94,152.9 347,172.5C 339.307,181.596 329.474,186.263 317.5,186.5C 313.781,210.614 301.948,229.614 282,243.5C 279.387,254.759 281.887,264.592 289.5,273C 309.654,284.386 331.154,292.219 354,296.5C 358.247,290.352 362.747,284.352 367.5,278.5C 362.003,271.483 357.503,263.817 354,255.5C 352.076,245.848 355.576,239.015 364.5,235C 397.167,234.333 429.833,234.333 462.5,235C 472.284,239.68 475.45,247.18 472,257.5C 468.337,264.831 464.17,271.831 459.5,278.5C 463.578,283.657 467.412,288.99 471,294.5C 483.524,316.882 495.524,339.548 507,362.5C 508.527,367.956 510.027,373.289 511.5,378.5C 511.5,387.167 511.5,395.833 511.5,404.5C 498.695,452.945 467.028,476.112 416.5,474C 417.662,482.759 418.162,491.592 418,500.5C 416.447,505.212 413.614,508.879 409.5,511.5C 275.167,511.5 140.833,511.5 6.5,511.5C 3.83333,509.5 1.5,507.167 -0.5,504.5C -0.5,464.167 -0.5,423.833 -0.5,383.5C 1.30904,380.861 3.64238,378.694 6.5,377C 25.4971,376.5 44.4971,376.333 63.5,376.5C 64.2568,361.134 65.4235,345.8 67,330.5C 70.8245,316.009 79.9912,306.842 94.5,303C 118.59,297.728 142.257,291.062 165.5,283C 172.446,280.194 179.112,276.861 185.5,273C 193.113,264.592 195.613,254.759 193,243.5C 173.048,229.603 161.214,210.603 157.5,186.5C 138.401,185.568 126.234,175.901 121,157.5C 118.379,142.088 123.045,129.421 135,119.5C 135.177,105.138 135.844,90.8048 137,76.5C 143.843,41.3289 164.009,17.4956 197.5,5C 206.551,2.71871 215.551,0.885375 224.5,-0.5 Z"/></g>
<g><path style="opacity:1" fill="#5a5c5f" d="M 228.5,9.5 C 241.922,9.02888 255.256,9.86222 268.5,12C 291.161,16.6557 302.994,30.489 304,53.5C 305.5,55 307,56.5 308.5,58C 319.439,58.6011 325.605,64.4344 327,75.5C 328.466,88.4687 328.799,101.469 328,114.5C 324.915,113.568 321.748,112.901 318.5,112.5C 318,98.3347 312.333,86.8347 301.5,78C 296.295,75.3025 290.961,74.9692 285.5,77C 253.512,100.141 221.512,100.141 189.5,77C 177.372,73.979 168.538,78.1457 163,89.5C 158.901,96.629 156.734,104.296 156.5,112.5C 153.164,112.467 149.997,113.134 147,114.5C 140.965,80.6034 150.465,52.1034 175.5,29C 191.283,17.2406 208.949,10.7406 228.5,9.5 Z"/></g>
<g><path style="opacity:0.894" fill="#fc657d" d="M 85.5,31.5 C 86.4959,31.4142 87.3292,31.7476 88,32.5C 89.9234,38.7208 94.0901,42.5542 100.5,44C 94.0257,46.4742 89.5257,50.9742 87,57.5C 84.6512,50.9854 80.1512,46.6521 73.5,44.5C 79.6483,42.0233 83.6483,37.6899 85.5,31.5 Z"/></g>
<g><path style="opacity:0.961" fill="#70d6f9" d="M 380.5,37.5 C 390.493,36.6552 393.493,40.8219 389.5,50C 380.242,53.2948 376.409,50.1282 378,40.5C 379.045,39.6266 379.878,38.6266 380.5,37.5 Z"/></g>
<g><path style="opacity:1" fill="#f7cfb3" d="M 178.5,86.5 C 181.187,86.3359 183.854,86.5026 186.5,87C 211.236,105.609 238.236,109.609 267.5,99C 274.956,95.7726 281.956,91.7726 288.5,87C 293.735,85.5341 297.901,87.0341 301,91.5C 303.804,95.4432 305.804,99.7766 307,104.5C 307.667,131.833 307.667,159.167 307,186.5C 296.371,228.082 269.537,247.582 226.5,245C 196.828,238.995 177.662,221.495 169,192.5C 167.882,176.871 167.382,161.204 167.5,145.5C 167.667,131.833 167.833,118.167 168,104.5C 169.719,97.3874 173.219,91.3874 178.5,86.5 Z"/></g>
<g><path style="opacity:1" fill="#f6cdb2" d="M 150.5,123.5 C 152.5,123.5 154.5,123.5 156.5,123.5C 156.5,140.833 156.5,158.167 156.5,175.5C 137.865,173.022 129.365,162.356 131,143.5C 134.351,133.65 140.851,126.983 150.5,123.5 Z"/></g>
<g><path style="opacity:1" fill="#f6cdb2" d="M 318.5,123.5 C 336.682,125.85 345.182,136.184 344,154.5C 340.452,167.551 331.952,174.551 318.5,175.5C 318.5,158.167 318.5,140.833 318.5,123.5 Z"/></g>
<g><path style="opacity:0.934" fill="#f5c84c" d="M 450.5,139.5 C 454.456,148.451 461.123,154.784 470.5,158.5C 460.927,161.073 454.594,167.073 451.5,176.5C 448.067,167.399 441.734,161.399 432.5,158.5C 441.95,155.385 447.95,149.052 450.5,139.5 Z"/></g>
<g><path style="opacity:1" fill="#060504" d="M 201.5,142.5 C 212.161,142.988 215.994,148.321 213,158.5C 207.333,163.833 201.667,163.833 196,158.5C 193.024,151.462 194.857,146.129 201.5,142.5 Z"/></g>
<g><path style="opacity:1" fill="#080605" d="M 269.5,142.5 C 278.854,142.681 283.02,147.348 282,156.5C 279.081,162.025 274.581,163.858 268.5,162C 260.277,155.141 260.61,148.641 269.5,142.5 Z"/></g>
<g><path style="opacity:1" fill="#090706" d="M 215.5,190.5 C 217.199,190.34 218.866,190.506 220.5,191C 227.368,198.145 235.702,200.478 245.5,198C 250.528,196.272 255.028,193.772 259,190.5C 263.206,191.528 264.539,194.195 263,198.5C 253.588,207.523 242.421,210.689 229.5,208C 223.447,206.226 218.28,203.059 214,198.5C 213.109,195.502 213.609,192.836 215.5,190.5 Z"/></g>
<g><path style="opacity:0.942" fill="#87d146" d="M 85.5,194.5 C 93.5907,193.63 96.924,197.297 95.5,205.5C 101.651,203.844 105.317,206.01 106.5,212C 105.317,217.99 101.651,220.156 95.5,218.5C 96.3212,228.87 92.1545,231.87 83,227.5C 81.7114,224.649 81.2114,221.649 81.5,218.5C 71.8406,219.65 68.8406,215.816 72.5,207C 75.3508,205.711 78.3508,205.211 81.5,205.5C 80.6561,200.862 81.9894,197.195 85.5,194.5 Z"/></g>
<g><path style="opacity:1" fill="#a37252" d="M 367.5,244.5 C 397.835,244.333 428.168,244.5 458.5,245C 461.203,245.865 462.536,247.699 462.5,250.5C 460.063,258.709 456.063,266.042 450.5,272.5C 425.833,273.833 401.167,273.833 376.5,272.5C 369.884,265.279 366.051,256.945 365,247.5C 366.045,246.627 366.878,245.627 367.5,244.5 Z"/></g>
<g><path style="opacity:1" fill="#f7ceb2" d="M 204.5,249.5 C 226.495,257.5 248.495,257.5 270.5,249.5C 270.086,256.843 271.42,263.843 274.5,270.5C 267.243,280.679 259.743,290.679 252,300.5C 250.007,302.818 248.841,305.484 248.5,308.5C 241.167,308.5 233.833,308.5 226.5,308.5C 226.509,306.692 226.009,305.025 225,303.5C 216.641,292.641 208.474,281.641 200.5,270.5C 203.584,263.832 204.917,256.832 204.5,249.5 Z"/></g>
<g><path style="opacity:1" fill="#f1c54a" d="M 193.5,279.5 C 200.98,289.098 208.48,298.764 216,308.5C 216.944,311.347 216.444,313.847 214.5,316C 207.359,320.974 200.359,326.14 193.5,331.5C 190.258,317.123 187.591,302.623 185.5,288C 185.833,286.833 186.167,285.667 186.5,284.5C 189.154,283.164 191.487,281.497 193.5,279.5 Z"/></g>
<g><path style="opacity:1" fill="#f1c54b" d="M 280.5,279.5 C 282.805,280.989 285.138,282.489 287.5,284C 288.944,285.126 289.61,286.626 289.5,288.5C 287.154,302.911 284.487,317.244 281.5,331.5C 274.641,326.14 267.641,320.974 260.5,316C 258.556,313.847 258.056,311.347 259,308.5C 266.663,299.16 273.83,289.494 280.5,279.5 Z"/></g>
<g><path style="opacity:1" fill="#a47352" d="M 378.5,283.5 C 401.836,283.333 425.169,283.5 448.5,284C 453.385,288.218 457.552,293.052 461,298.5C 473.254,320.674 485.254,343.007 497,365.5C 507.3,400.932 497.8,429.766 468.5,452C 457.997,458.279 446.664,461.946 434.5,463C 420.5,463.667 406.5,463.667 392.5,463C 351.435,456.767 329.102,432.934 325.5,391.5C 325.657,382.912 327.157,374.579 330,366.5C 341.476,343.548 353.476,320.882 366,298.5C 369.684,292.993 373.851,287.993 378.5,283.5 Z"/></g>
<g><path style="opacity:1" fill="#6fd4f7" d="M 173.5,290.5 C 175.045,291.23 175.878,292.563 176,294.5C 188.48,363.378 200.313,432.378 211.5,501.5C 191.167,501.5 170.833,501.5 150.5,501.5C 150.667,473.498 150.5,445.498 150,417.5C 147.307,409.73 141.807,406.396 133.5,407.5C 133.667,392.83 133.5,378.163 133,363.5C 130,360.833 127,360.833 124,363.5C 123.5,378.163 123.333,392.83 123.5,407.5C 113.167,407.5 102.833,407.5 92.5,407.5C 92.6664,399.826 92.4997,392.159 92,384.5C 88.3474,377.428 82.5141,374.761 74.5,376.5C 74.9618,361.815 75.7952,347.149 77,332.5C 80.8506,321.15 88.6839,314.317 100.5,312C 119.919,307.312 139.252,302.312 158.5,297C 163.807,295.295 168.807,293.129 173.5,290.5 Z"/></g>
<g><path style="opacity:1" fill="#6fd4f7" d="M 299.5,290.5 C 315.339,297.168 331.672,302.335 348.5,306C 348.957,306.414 349.291,306.914 349.5,307.5C 340.333,324.5 331.167,341.5 322,358.5C 308.822,393.29 315.156,423.956 341,450.5C 341.5,467.497 341.667,484.497 341.5,501.5C 315.5,501.5 289.5,501.5 263.5,501.5C 274.961,431.07 286.961,360.737 299.5,290.5 Z"/></g>
<g><path style="opacity:0.938" fill="#f5c84c" d="M 22.5,292.5 C 32.4929,291.655 35.4929,295.822 31.5,305C 22.2424,308.295 18.4091,305.128 20,295.5C 21.045,294.627 21.8783,293.627 22.5,292.5 Z"/></g>
<g><path style="opacity:1" fill="#040202" d="M 410.5,316.5 C 416.5,315.833 419.167,318.5 418.5,324.5C 434.81,324.477 444.477,332.477 447.5,348.5C 446.666,355.824 443.499,357.157 438,352.5C 437.098,340.431 430.598,334.431 418.5,334.5C 418.5,345.167 418.5,355.833 418.5,366.5C 437.84,366.507 447.507,376.173 447.5,395.5C 447.969,415.363 438.303,425.363 418.5,425.5C 419.584,430.145 417.917,433.145 413.5,434.5C 409.083,433.145 407.416,430.145 408.5,425.5C 391.613,426.223 381.947,418.223 379.5,401.5C 379.513,396.001 382.18,394.168 387.5,396C 389.039,399.341 390.206,402.841 391,406.5C 394.503,413.836 400.337,416.836 408.5,415.5C 408.5,402.5 408.5,389.5 408.5,376.5C 387.739,375.238 378.239,364.238 380,343.5C 384.939,330.283 394.439,323.95 408.5,324.5C 408.107,321.487 408.774,318.82 410.5,316.5 Z"/></g>
<g><path style="opacity:1" fill="#508dd7" d="M 225.5,318.5 C 233.507,318.334 241.507,318.5 249.5,319C 251.684,321.016 253.684,323.183 255.5,325.5C 253.167,330.167 250.833,334.833 248.5,339.5C 241.167,340.833 233.833,340.833 226.5,339.5C 224.167,334.833 221.833,330.167 219.5,325.5C 221.523,323.147 223.523,320.814 225.5,318.5 Z"/></g>
<g><path style="opacity:1" fill="#e8af10" d="M 209.5,331.5 C 210.496,331.414 211.329,331.748 212,332.5C 215.314,337.783 217.48,343.449 218.5,349.5C 215.579,374.532 212.413,399.532 209,424.5C 204.405,397.62 199.571,370.787 194.5,344C 199.337,339.665 204.337,335.498 209.5,331.5 Z"/></g>
<g><path style="opacity:1" fill="#e5ad10" d="M 263.5,331.5 C 269.891,334.73 275.557,338.897 280.5,344C 275.574,370.81 270.741,397.644 266,424.5C 261.519,397.983 258.519,371.317 257,344.5C 259.18,340.14 261.347,335.807 263.5,331.5 Z"/></g>
<g><path style="opacity:1" fill="#a17151" d="M 400.5,334.5 C 403.167,334.5 405.833,334.5 408.5,334.5C 408.5,345.167 408.5,355.833 408.5,366.5C 394.692,366.194 388.526,359.194 390,345.5C 392.357,340.645 395.857,336.979 400.5,334.5 Z"/></g>
<g><path style="opacity:1" fill="#518ed8" d="M 228.5,351.5 C 234.5,351.5 240.5,351.5 246.5,351.5C 250.791,387.328 255.124,423.162 259.5,459C 257.616,472.92 255.282,486.753 252.5,500.5C 247.5,500.833 242.5,501.167 237.5,501.5C 232.085,501.471 226.918,500.805 222,499.5C 219.236,485.417 217.069,471.251 215.5,457C 219.384,421.758 223.718,386.591 228.5,351.5 Z"/></g>
<g><path style="opacity:1" fill="#a37352" d="M 418.5,376.5 C 431.864,376.022 438.197,382.522 437.5,396C 438.197,409.478 431.864,415.978 418.5,415.5C 418.5,402.5 418.5,389.5 418.5,376.5 Z"/></g>
<g><path style="opacity:1" fill="#f4c74b" d="M 10.5,386.5 C 34.169,386.333 57.8357,386.5 81.5,387C 82.4788,393.744 82.8122,400.578 82.5,407.5C 58.1667,407.5 33.8333,407.5 9.5,407.5C 9.20452,400.412 9.53785,393.412 10.5,386.5 Z"/></g>
<g><path style="opacity:1" fill="#ecb310" d="M 9.5,418.5 C 25.1667,418.5 40.8333,418.5 56.5,418.5C 56.5,425.167 56.5,431.833 56.5,438.5C 40.8333,438.5 25.1667,438.5 9.5,438.5C 9.5,431.833 9.5,425.167 9.5,418.5 Z"/></g>
<g><path style="opacity:1" fill="#f4c84b" d="M 67.5,418.5 C 91.5,418.5 115.5,418.5 139.5,418.5C 139.5,425.167 139.5,431.833 139.5,438.5C 115.5,438.5 91.5,438.5 67.5,438.5C 67.5,431.833 67.5,425.167 67.5,418.5 Z"/></g>
<g><path style="opacity:1" fill="#f0c44a" d="M 9.5,449.5 C 25.1667,449.5 40.8333,449.5 56.5,449.5C 56.5,456.5 56.5,463.5 56.5,470.5C 40.8333,470.5 25.1667,470.5 9.5,470.5C 9.5,463.5 9.5,456.5 9.5,449.5 Z"/></g>
<g><path style="opacity:1" fill="#ecb310" d="M 67.5,449.5 C 91.5,449.5 115.5,449.5 139.5,449.5C 139.5,456.167 139.5,462.833 139.5,469.5C 115.5,469.5 91.5,469.5 67.5,469.5C 67.5,462.833 67.5,456.167 67.5,449.5 Z"/></g>
<g><path style="opacity:1" fill="#6fd5f8" d="M 351.5,459.5 C 368.208,470.261 386.542,474.927 406.5,473.5C 407.178,482.162 407.344,490.829 407,499.5C 406.5,500 406,500.5 405.5,501C 387.503,501.5 369.503,501.667 351.5,501.5C 351.5,487.5 351.5,473.5 351.5,459.5 Z"/></g>
<g><path style="opacity:1" fill="#8d6a0a" d="M 67.5,449.5 C 67.5,456.167 67.5,462.833 67.5,469.5C 91.5,469.5 115.5,469.5 139.5,469.5C 115.339,470.498 91.0057,470.831 66.5,470.5C 66.1755,463.313 66.5088,456.313 67.5,449.5 Z"/></g>
<g><path style="opacity:1" fill="#ecb210" d="M 9.5,480.5 C 25.1667,480.5 40.8333,480.5 56.5,480.5C 56.5,487.5 56.5,494.5 56.5,501.5C 41.163,501.667 25.8297,501.5 10.5,501C 9.52117,494.256 9.18783,487.422 9.5,480.5 Z"/></g>
<g><path style="opacity:1" fill="#f4c74b" d="M 67.5,480.5 C 91.5,480.5 115.5,480.5 139.5,480.5C 139.5,487.5 139.5,494.5 139.5,501.5C 115.5,501.5 91.5,501.5 67.5,501.5C 67.5,494.5 67.5,487.5 67.5,480.5 Z"/></g>
</svg>
