<?xml version="1.0" encoding="UTF-8"?>
<!DOCTYPE svg PUBLIC "-//W3C//DTD SVG 1.1//EN" "http://www.w3.org/Graphics/SVG/1.1/DTD/svg11.dtd">
<svg xmlns="http://www.w3.org/2000/svg" version="1.1" width="512px" height="512px" style="shape-rendering:geometricPrecision; text-rendering:geometricPrecision; image-rendering:optimizeQuality; fill-rule:evenodd; clip-rule:evenodd" xmlns:xlink="http://www.w3.org/1999/xlink">
<g><path style="opacity:0.989" fill="#010101" d="M 76.5,-0.5 C 176.167,-0.5 275.833,-0.5 375.5,-0.5C 394.037,4.53999 405.204,16.54 409,35.5C 409.5,102.833 409.667,170.166 409.5,237.5C 436.551,237.035 463.551,237.535 490.5,239C 491.667,240.167 492.833,241.333 494,242.5C 494.667,262.5 494.667,282.5 494,302.5C 492.833,303.667 491.667,304.833 490.5,306C 463.564,307.474 436.564,307.974 409.5,307.5C 409.5,352.5 409.5,397.5 409.5,442.5C 434.67,440.728 449.004,452.228 452.5,477C 451.162,494.232 442.495,505.732 426.5,511.5C 326.833,511.5 227.167,511.5 127.5,511.5C 113.655,507.151 105.155,497.817 102,483.5C 101.5,424.834 101.333,366.168 101.5,307.5C 86.8295,307.667 72.1629,307.5 57.5,307C 54.804,306.31 52.6374,304.81 51,302.5C 50.5,269.835 50.3334,237.168 50.5,204.5C 40.8276,204.666 31.1609,204.5 21.5,204C 20.0692,203.535 18.9025,202.701 18,201.5C 16.8556,191.094 16.3556,180.594 16.5,170C 16.3556,159.406 16.8556,148.906 18,138.5C 19.1711,137.107 20.6711,136.273 22.5,136C 31.8274,135.5 41.1607,135.334 50.5,135.5C 50.3333,98.8318 50.5,62.1652 51,25.5C 55.0168,12.3175 63.5168,3.65084 76.5,-0.5 Z"/></g>
<g><path style="opacity:1" fill="#e8dbb0" d="M 371.5,17.5 C 285.998,17.1673 200.665,17.5007 115.5,18.5C 114.957,18.44 114.624,18.1067 114.5,17.5C 200.332,16.168 285.999,16.168 371.5,17.5 Z"/></g>
<g><path style="opacity:1" fill="#f4b860" d="M 101.5,30.5 C 101.5,65.5 101.5,100.5 101.5,135.5C 90.1667,135.5 78.8333,135.5 67.5,135.5C 67.3333,100.165 67.5,64.8318 68,29.5C 73.7497,16.5831 82.9164,13.4164 95.5,20C 98.5998,22.9186 100.6,26.4186 101.5,30.5 Z"/></g>
<g><path style="opacity:1" fill="#f9ebbd" d="M 371.5,17.5 C 382.407,19.9063 389.241,26.5729 392,37.5C 392.5,104.499 392.667,171.499 392.5,238.5C 343.833,238.5 295.167,238.5 246.5,238.5C 246.879,233.703 246.379,229.036 245,224.5C 242.347,221.806 239.18,220.973 235.5,222C 217.5,236.667 199.5,251.333 181.5,266C 177.464,270.87 177.797,275.537 182.5,280C 200.125,293.956 217.458,308.289 234.5,323C 240.74,324.717 244.74,322.55 246.5,316.5C 247.477,313.713 247.81,310.713 247.5,307.5C 295.5,307.5 343.5,307.5 391.5,307.5C 391.5,352.5 391.5,397.5 391.5,442.5C 314.332,442.167 237.332,442.501 160.5,443.5C 157.805,443.933 155.638,445.266 154,447.5C 153.667,458.167 153.333,468.833 153,479.5C 149.29,491.941 141.123,496.441 128.5,493C 122.996,490.16 119.829,485.66 119,479.5C 118.5,387.834 118.333,296.167 118.5,204.5C 167.167,204.5 215.833,204.5 264.5,204.5C 264.121,209.297 264.621,213.964 266,218.5C 269.419,221.848 273.252,222.348 277.5,220C 295.333,204.833 313.167,189.667 331,174.5C 333.427,168.825 331.927,164.325 326.5,161C 310.5,147.667 294.5,134.333 278.5,121C 272.109,117.854 267.442,119.354 264.5,125.5C 263.521,128.625 263.187,131.958 263.5,135.5C 215.5,135.5 167.5,135.5 119.5,135.5C 119.832,99.9961 119.498,64.6627 118.5,29.5C 117.964,25.6861 116.964,22.0194 115.5,18.5C 200.665,17.5007 285.998,17.1673 371.5,17.5 Z"/></g>
<g><path style="opacity:1" fill="#684d29" d="M 101.5,30.5 C 102.498,65.6627 102.832,100.996 102.5,136.5C 90.6547,136.828 78.988,136.495 67.5,135.5C 78.8333,135.5 90.1667,135.5 101.5,135.5C 101.5,100.5 101.5,65.5 101.5,30.5 Z"/></g>
<g><path style="opacity:1" fill="#040303" d="M 153.5,50.5 C 181.833,50.5 210.167,50.5 238.5,50.5C 238.5,56.1667 238.5,61.8333 238.5,67.5C 210.167,67.5 181.833,67.5 153.5,67.5C 153.5,61.8333 153.5,56.1667 153.5,50.5 Z"/></g>
<g><path style="opacity:1" fill="#756e58" d="M 238.5,85.5 C 210.167,85.5 181.833,85.5 153.5,85.5C 153.5,90.8333 153.5,96.1667 153.5,101.5C 152.511,96.0247 152.178,90.358 152.5,84.5C 181.338,84.1687 210.005,84.502 238.5,85.5 Z"/></g>
<g><path style="opacity:1" fill="#000000" d="M 238.5,85.5 C 238.5,90.8333 238.5,96.1667 238.5,101.5C 210.167,101.5 181.833,101.5 153.5,101.5C 153.5,96.1667 153.5,90.8333 153.5,85.5C 181.833,85.5 210.167,85.5 238.5,85.5 Z"/></g>
<g><path style="opacity:1" fill="#857d65" d="M 118.5,29.5 C 119.498,64.6627 119.832,99.9961 119.5,135.5C 167.5,135.5 215.5,135.5 263.5,135.5C 263.187,131.958 263.521,128.625 264.5,125.5C 264.5,129.167 264.5,132.833 264.5,136.5C 215.833,136.5 167.167,136.5 118.5,136.5C 118.5,100.833 118.5,65.1667 118.5,29.5 Z"/></g>
<g><path style="opacity:1" fill="#4697cd" d="M 280.5,146.5 C 282.255,147.072 283.922,147.906 285.5,149C 293.833,156 302.167,163 310.5,170C 301.28,178.224 291.78,186.058 282,193.5C 280.147,191.315 277.98,189.482 275.5,188C 194.834,187.5 114.167,187.333 33.5,187.5C 33.5,176.167 33.5,164.833 33.5,153.5C 113.834,153.667 194.167,153.5 274.5,153C 278.089,152.246 280.089,150.079 280.5,146.5 Z"/></g>
<g><path style="opacity:1" fill="#f5b860" d="M 67.5,204.5 C 78.8333,204.5 90.1667,204.5 101.5,204.5C 101.5,232.833 101.5,261.167 101.5,289.5C 90.1667,289.5 78.8333,289.5 67.5,289.5C 67.5,261.167 67.5,232.833 67.5,204.5 Z"/></g>
<g><path style="opacity:1" fill="#98d7a9" d="M 228.5,248.5 C 230.486,250.893 232.819,253.06 235.5,255C 316.166,255.5 396.833,255.667 477.5,255.5C 477.5,266.833 477.5,278.167 477.5,289.5C 396.833,289.333 316.166,289.5 235.5,290C 232.704,291.419 230.704,293.585 229.5,296.5C 219.847,288.845 210.514,280.845 201.5,272.5C 210.52,264.478 219.52,256.478 228.5,248.5 Z"/></g>
<g><path style="opacity:1" fill="#c4b995" d="M 391.5,306.5 C 391.5,306.833 391.5,307.167 391.5,307.5C 343.5,307.5 295.5,307.5 247.5,307.5C 247.81,310.713 247.477,313.713 246.5,316.5C 246.5,313.167 246.5,309.833 246.5,306.5C 294.833,306.5 343.167,306.5 391.5,306.5 Z"/></g>
<g><path style="opacity:1" fill="#66604d" d="M 357.5,357.5 C 340.675,358.497 323.675,358.83 306.5,358.5C 306.5,352.5 306.5,346.5 306.5,340.5C 323.833,340.5 341.167,340.5 358.5,340.5C 358.822,346.358 358.489,352.025 357.5,357.5 Z"/></g>
<g><path style="opacity:1" fill="#000000" d="M 357.5,357.5 C 340.833,357.5 324.167,357.5 307.5,357.5C 307.5,352.167 307.5,346.833 307.5,341.5C 324.167,341.5 340.833,341.5 357.5,341.5C 357.5,346.833 357.5,352.167 357.5,357.5 Z"/></g>
<g><path style="opacity:1" fill="#000000" d="M 187.5,375.5 C 244.167,375.5 300.833,375.5 357.5,375.5C 357.5,380.833 357.5,386.167 357.5,391.5C 300.833,391.5 244.167,391.5 187.5,391.5C 187.5,386.167 187.5,380.833 187.5,375.5 Z"/></g>
<g><path style="opacity:1" fill="#726c56" d="M 187.5,375.5 C 244.331,374.501 301.331,374.168 358.5,374.5C 358.5,380.5 358.5,386.5 358.5,392.5C 301.331,392.832 244.331,392.499 187.5,391.5C 244.167,391.5 300.833,391.5 357.5,391.5C 357.5,386.167 357.5,380.833 357.5,375.5C 300.833,375.5 244.167,375.5 187.5,375.5 Z"/></g>
<g><path style="opacity:1" fill="#000000" d="M 357.5,409.5 C 357.5,414.833 357.5,420.167 357.5,425.5C 300.833,425.5 244.167,425.5 187.5,425.5C 187.5,420.167 187.5,414.833 187.5,409.5C 244.167,409.5 300.833,409.5 357.5,409.5 Z"/></g>
<g><path style="opacity:1" fill="#555041" d="M 357.5,409.5 C 358.489,414.975 358.822,420.642 358.5,426.5C 301.331,426.832 244.331,426.499 187.5,425.5C 244.167,425.5 300.833,425.5 357.5,425.5C 357.5,420.167 357.5,414.833 357.5,409.5 Z"/></g>
<g><path style="opacity:1" fill="#aaa081" d="M 391.5,306.5 C 392.499,351.997 392.832,397.664 392.5,443.5C 315.167,443.5 237.833,443.5 160.5,443.5C 237.332,442.501 314.332,442.167 391.5,442.5C 391.5,397.5 391.5,352.5 391.5,307.5C 391.5,307.167 391.5,306.833 391.5,306.5 Z"/></g>
<g><path style="opacity:1" fill="#fad598" d="M 422.5,493.5 C 337.16,494.164 252.16,493.497 167.5,491.5C 170.22,481.398 171.22,471.065 170.5,460.5C 254.167,460.333 337.834,460.5 421.5,461C 433.18,464.862 437.014,472.695 433,484.5C 430.995,489.251 427.495,492.251 422.5,493.5 Z"/></g>
<g><path style="opacity:1" fill="#e8c68d" d="M 167.5,491.5 C 252.16,493.497 337.16,494.164 422.5,493.5C 337.001,494.666 251.334,494.832 165.5,494C 166.066,493.005 166.733,492.172 167.5,491.5 Z"/></g>
</svg>
