<?xml version="1.0" encoding="UTF-8"?>
<!DOCTYPE svg PUBLIC "-//W3C//DTD SVG 1.1//EN" "http://www.w3.org/Graphics/SVG/1.1/DTD/svg11.dtd">
<svg xmlns="http://www.w3.org/2000/svg" version="1.1" width="512px" height="512px" style="shape-rendering:geometricPrecision; text-rendering:geometricPrecision; image-rendering:optimizeQuality; fill-rule:evenodd; clip-rule:evenodd" xmlns:xlink="http://www.w3.org/1999/xlink">
<g><path style="opacity:0.976" fill="#020101" d="M 300.5,-0.5 C 303.167,-0.5 305.833,-0.5 308.5,-0.5C 312.17,2.20539 313.337,5.87205 312,10.5C 307.252,14.2427 302.752,18.4093 298.5,23C 318.94,19.1106 339.273,19.7773 359.5,25C 394.14,36.9485 405.474,60.2818 393.5,95C 399.231,109.36 403.231,124.194 405.5,139.5C 404.99,143.902 402.656,146.569 398.5,147.5C 395.525,147.693 393.025,146.693 391,144.5C 389.157,136.466 387.324,128.466 385.5,120.5C 384.565,116.694 383.231,113.028 381.5,109.5C 363.595,123.363 343.261,131.363 320.5,133.5C 320.251,137.458 320.918,141.124 322.5,144.5C 330.763,166.826 345.43,183.66 366.5,195C 373.535,194.926 380.202,196.426 386.5,199.5C 388.653,188.941 390.153,178.274 391,167.5C 392.542,164.108 395.042,162.108 398.5,161.5C 403.852,162.356 406.519,165.523 406.5,171C 405.521,183.997 403.521,196.83 400.5,209.5C 410.182,225.865 409.682,241.865 399,257.5C 390.754,267.206 380.254,271.873 367.5,271.5C 360.212,294.288 346.379,311.955 326,324.5C 325.176,327.882 325.343,331.216 326.5,334.5C 347.161,345.828 367.494,357.662 387.5,370C 391.114,372.944 392.447,376.777 391.5,381.5C 389.804,381.685 388.471,382.519 387.5,384C 385.167,384.667 382.833,384.667 380.5,384C 361.997,372.914 343.33,362.081 324.5,351.5C 314.926,378.8 295.592,391.967 266.5,391C 243.795,386.796 229.129,373.629 222.5,351.5C 185.742,371.621 150.242,393.621 116,417.5C 115.333,418.167 115.333,418.833 116,419.5C 132.127,435.459 132.627,451.959 117.5,469C 112.551,473.141 106.884,475.641 100.5,476.5C 100.599,479.237 100.265,481.904 99.5,484.5C 98.0499,488.149 96.3832,491.816 94.5,495.5C 109.819,496.499 125.152,496.833 140.5,496.5C 140.5,492.833 140.5,489.167 140.5,485.5C 141.289,477.979 142.123,470.312 143,462.5C 147.171,456.271 151.837,455.938 157,461.5C 156.902,469.483 156.735,477.483 156.5,485.5C 156.5,489.167 156.5,492.833 156.5,496.5C 234.5,496.5 312.5,496.5 390.5,496.5C 390.5,492.833 390.5,489.167 390.5,485.5C 390.189,477.487 390.022,469.487 390,461.5C 392.981,457.304 396.814,456.471 401.5,459C 402.701,459.903 403.535,461.069 404,462.5C 405.069,470.131 405.569,477.798 405.5,485.5C 405.5,489.167 405.5,492.833 405.5,496.5C 427.833,496.5 450.167,496.5 472.5,496.5C 472.819,491.637 472.486,486.97 471.5,482.5C 470.24,467.321 465.073,453.654 456,441.5C 441.252,425.082 424.419,411.248 405.5,400C 401.603,396.913 400.603,393.08 402.5,388.5C 405.34,385.857 408.673,385.024 412.5,386C 431.909,397.304 449.409,411.137 465,427.5C 482.732,450.739 490.399,477.072 488,506.5C 487.003,508.323 485.836,509.99 484.5,511.5C 342.833,511.5 201.167,511.5 59.5,511.5C 37.337,502.456 25.1704,485.789 23,461.5C 21.0295,442.37 26.0295,425.37 38,410.5C 37.8988,394.146 37.0655,377.812 35.5,361.5C 34.4385,355.586 36.7718,352.253 42.5,351.5C 46.5257,351.677 49.359,353.677 51,357.5C 51.6244,368.005 52.4577,378.338 53.5,388.5C 53.5,391.833 53.5,395.167 53.5,398.5C 58.0565,397.207 62.7232,396.541 67.5,396.5C 71.3297,396.367 74.9963,397.034 78.5,398.5C 79.4892,394.893 79.8226,391.226 79.5,387.5C 81.9771,359.016 83.9771,330.35 85.5,301.5C 72.8333,301.5 60.1667,301.5 47.5,301.5C 48.2454,311.827 48.4121,322.161 48,332.5C 46.3621,334.734 44.1955,336.067 41.5,336.5C 38.0388,336.854 35.5388,335.521 34,332.5C 32.8541,319.609 31.6875,306.776 30.5,294C 34.6798,283.135 39.0131,272.302 43.5,261.5C 34.2861,248.937 33.1195,235.603 40,221.5C 45.8647,208.99 52.5313,196.99 60,185.5C 64.9538,181.323 69.6204,181.657 74,186.5C 83.5287,201.225 91.1954,216.891 97,233.5C 98.554,243.953 96.054,253.286 89.5,261.5C 94.1165,272.398 98.4499,283.398 102.5,294.5C 99.2154,333.435 96.5488,372.435 94.5,411.5C 96.1992,411.66 97.8659,411.494 99.5,411C 116.614,397.888 134.281,385.554 152.5,374C 174.918,360.707 197.418,347.541 220,334.5C 220.667,331.167 220.667,327.833 220,324.5C 200.745,311.578 187.079,294.245 179,272.5C 152.868,269.373 139.868,254.706 140,228.5C 140.885,221.894 143.052,215.727 146.5,210C 136.61,170.735 138.943,132.235 153.5,94.5C 145.681,72.7847 149.181,53.118 164,35.5C 188.125,9.0138 217.625,-0.152865 252.5,8C 262.1,11.9763 271.6,16.143 281,20.5C 286.01,11.9947 292.51,4.99467 300.5,-0.5 Z"/></g>
<g><path style="opacity:1" fill="#fe646a" d="M 380.5,82.5 C 380.565,82.0618 380.399,81.7284 380,81.5C 368.513,93.331 354.679,101.164 338.5,105C 293.723,115.295 249.056,114.961 204.5,104C 189.859,99.9352 177.359,92.4352 167,81.5C 166.601,81.7284 166.435,82.0618 166.5,82.5C 164.026,76.3674 163.86,70.0341 166,63.5C 173.474,45.3589 186.308,32.5256 204.5,25C 218.583,18.6599 232.917,17.9932 247.5,23C 256.997,26.6105 266.331,30.6105 275.5,35C 279.057,36.4079 282.724,37.4079 286.5,38C 303.466,37.0083 320.466,36.3416 337.5,36C 349.69,37.6188 361.024,41.6188 371.5,48C 382.503,57.5388 385.503,69.0388 380.5,82.5 Z"/></g>
<g><path style="opacity:1" fill="#f93d4a" d="M 380.5,82.5 C 378.709,89.4689 375.042,95.3022 369.5,100C 352.859,111.085 334.526,117.752 314.5,120C 281.341,123.939 248.341,122.939 215.5,117C 201.069,113.949 188.069,107.949 176.5,99C 171.282,94.6209 167.948,89.1209 166.5,82.5C 166.435,82.0618 166.601,81.7284 167,81.5C 177.359,92.4352 189.859,99.9352 204.5,104C 249.056,114.961 293.723,115.295 338.5,105C 354.679,101.164 368.513,93.331 380,81.5C 380.399,81.7284 380.565,82.0618 380.5,82.5 Z"/></g>
<g><path style="opacity:1" fill="#654934" d="M 223.5,146.5 C 223.5,145.5 223.5,144.5 223.5,143.5C 200.651,140.779 179.985,132.779 161.5,119.5C 162.249,115.918 163.582,112.584 165.5,109.5C 183.444,123.374 203.778,131.374 226.5,133.5C 226.489,138.17 225.489,142.503 223.5,146.5 Z"/></g>
<g><path style="opacity:1" fill="#654933" d="M 385.5,120.5 C 376.276,126.947 366.276,132.114 355.5,136C 344.416,139.02 333.416,141.853 322.5,144.5C 320.918,141.124 320.251,137.458 320.5,133.5C 343.261,131.363 363.595,123.363 381.5,109.5C 383.231,113.028 384.565,116.694 385.5,120.5 Z"/></g>
<g><path style="opacity:1" fill="#715438" d="M 161.5,119.5 C 179.985,132.779 200.651,140.779 223.5,143.5C 223.5,144.5 223.5,145.5 223.5,146.5C 220.988,154.525 217.154,161.858 212,168.5C 203.295,178.883 193.128,187.383 181.5,194C 174.039,194.115 167.039,195.948 160.5,199.5C 153.544,172.698 153.877,146.032 161.5,119.5 Z"/></g>
<g><path style="opacity:0.998" fill="#715438" d="M 385.5,120.5 C 387.324,128.466 389.157,136.466 391,144.5C 393.025,146.693 395.525,147.693 398.5,147.5C 398.5,152.167 398.5,156.833 398.5,161.5C 395.042,162.108 392.542,164.108 391,167.5C 390.153,178.274 388.653,188.941 386.5,199.5C 380.202,196.426 373.535,194.926 366.5,195C 345.43,183.66 330.763,166.826 322.5,144.5C 333.416,141.853 344.416,139.02 355.5,136C 366.276,132.114 376.276,126.947 385.5,120.5 Z"/></g>
<g><path style="opacity:1" fill="#f2b891" d="M 306.5,145.5 C 284.083,146.495 261.75,146.829 239.5,146.5C 240.294,143.198 240.96,139.865 241.5,136.5C 262.832,137.794 284.166,137.794 305.5,136.5C 305.963,139.482 306.296,142.482 306.5,145.5 Z"/></g>
<g><path style="opacity:1" fill="#fdc496" d="M 306.5,145.5 C 315.285,172.349 332.118,192.683 357,206.5C 357.667,220.833 357.667,235.167 357,249.5C 356.083,257.08 354.25,264.413 351.5,271.5C 320.163,312.088 280.497,322.921 232.5,304C 218.522,296.692 207.022,286.526 198,273.5C 197.329,272.748 196.496,272.414 195.5,272.5C 192.577,265.81 190.744,258.81 190,251.5C 189.333,236.5 189.333,221.5 190,206.5C 214.299,192.884 230.799,172.884 239.5,146.5C 261.75,146.829 284.083,146.495 306.5,145.5 Z"/></g>
<g><path style="opacity:1" fill="#060503" d="M 224.5,195.5 C 233.974,194.135 239.807,198.135 242,207.5C 243.674,216.146 241.174,223.313 234.5,229C 224.243,231.948 218.076,228.115 216,217.5C 214.136,208.246 216.969,200.913 224.5,195.5 Z"/></g>
<g><path style="opacity:1" fill="#070503" d="M 313.5,195.5 C 322.974,194.135 328.807,198.135 331,207.5C 332.661,216.185 330.161,223.352 323.5,229C 313.243,231.948 307.076,228.115 305,217.5C 303.241,208.262 306.074,200.928 313.5,195.5 Z"/></g>
<g><path style="opacity:1" fill="#b9643f" d="M 81.5,236.5 C 81.5,237.833 81.5,239.167 81.5,240.5C 71.5,240.5 61.5,240.5 51.5,240.5C 51.5,239.167 51.5,237.833 51.5,236.5C 55.1531,225.527 60.1531,215.193 66.5,205.5C 72.8469,215.193 77.8469,225.527 81.5,236.5 Z"/></g>
<g><path style="opacity:1" fill="#f0a374" d="M 170.5,210.5 C 171.833,210.5 173.167,210.5 174.5,210.5C 174.5,225.5 174.5,240.5 174.5,255.5C 164.678,253.846 158.511,248.179 156,238.5C 153.731,225.369 158.564,216.036 170.5,210.5 Z"/></g>
<g><path style="opacity:1" fill="#f3a575" d="M 372.5,210.5 C 387.215,214.577 393.382,224.244 391,239.5C 387.912,249.096 381.412,254.429 371.5,255.5C 372.416,240.525 372.749,225.525 372.5,210.5 Z"/></g>
<g><path style="opacity:1" fill="#9b5336" d="M 51.5,236.5 C 51.5,237.833 51.5,239.167 51.5,240.5C 61.5,240.5 71.5,240.5 81.5,240.5C 81.5,239.167 81.5,237.833 81.5,236.5C 83.1675,247.826 78.1675,252.493 66.5,250.5C 54.8325,252.493 49.8325,247.826 51.5,236.5 Z"/></g>
<g><path style="opacity:1" fill="#050302" d="M 244.5,257.5 C 247.649,257.211 250.649,257.711 253.5,259C 256.322,265.156 260.989,269.156 267.5,271C 281.357,274.275 292.024,269.941 299.5,258C 309.982,257.501 312.815,262.001 308,271.5C 296.65,284.221 282.484,289.055 265.5,286C 253.272,283.266 244.939,276.099 240.5,264.5C 241.071,261.687 242.404,259.354 244.5,257.5 Z"/></g>
<g><path style="opacity:1" fill="#f1b790" d="M 351.5,271.5 C 330.658,313.586 296.991,330.086 250.5,321C 224.808,313.139 206.475,296.973 195.5,272.5C 196.496,272.414 197.329,272.748 198,273.5C 207.022,286.526 218.522,296.692 232.5,304C 280.497,322.921 320.163,312.088 351.5,271.5 Z"/></g>
<g><path style="opacity:1" fill="#dbd7db" d="M 58.5,266.5 C 64.1667,266.5 69.8333,266.5 75.5,266.5C 77.8333,273.167 80.1667,279.833 82.5,286.5C 71.8126,286.832 61.1459,286.499 50.5,285.5C 52.9059,279.026 55.5726,272.692 58.5,266.5 Z"/></g>
<g><path style="opacity:0.998" fill="#8b7f89" d="M 79.5,387.5 C 70.7225,384.662 62.0558,384.995 53.5,388.5C 52.4577,378.338 51.6244,368.005 51,357.5C 49.359,353.677 46.5257,351.677 42.5,351.5C 42.7257,346.438 42.3924,341.438 41.5,336.5C 44.1955,336.067 46.3621,334.734 48,332.5C 48.4121,322.161 48.2454,311.827 47.5,301.5C 60.1667,301.5 72.8333,301.5 85.5,301.5C 83.9771,330.35 81.9771,359.016 79.5,387.5 Z"/></g>
<g><path style="opacity:1" fill="#ee9f6d" d="M 309.5,346.5 C 309.5,345.167 309.5,343.833 309.5,342.5C 292.644,348.204 275.31,350.038 257.5,348C 250.96,346.876 244.627,345.042 238.5,342.5C 237.571,343.689 237.238,345.022 237.5,346.5C 236.514,342.03 236.181,337.363 236.5,332.5C 257.901,339.474 279.568,340.307 301.5,335C 304.35,333.829 307.184,332.662 310,331.5C 310.816,336.684 310.65,341.684 309.5,346.5 Z"/></g>
<g><path style="opacity:1" fill="#faab7a" d="M 309.5,346.5 C 302.484,369.338 287.151,378.838 263.5,375C 249.434,370.331 240.767,360.831 237.5,346.5C 237.238,345.022 237.571,343.689 238.5,342.5C 244.627,345.042 250.96,346.876 257.5,348C 275.31,350.038 292.644,348.204 309.5,342.5C 309.5,343.833 309.5,345.167 309.5,346.5 Z"/></g>
<g><path style="opacity:1" fill="#00dcfe" d="M 391.5,381.5 C 395.372,383.597 399.039,385.931 402.5,388.5C 400.603,393.08 401.603,396.913 405.5,400C 424.419,411.248 441.252,425.082 456,441.5C 465.073,453.654 470.24,467.321 471.5,482.5C 471.5,483.5 471.5,484.5 471.5,485.5C 449.5,485.5 427.5,485.5 405.5,485.5C 405.569,477.798 405.069,470.131 404,462.5C 403.535,461.069 402.701,459.903 401.5,459C 396.814,456.471 392.981,457.304 390,461.5C 390.022,469.487 390.189,477.487 390.5,485.5C 312.5,485.5 234.5,485.5 156.5,485.5C 156.735,477.483 156.902,469.483 157,461.5C 151.837,455.938 147.171,456.271 143,462.5C 142.123,470.312 141.289,477.979 140.5,485.5C 126.656,485.829 112.99,485.496 99.5,484.5C 100.265,481.904 100.599,479.237 100.5,476.5C 106.884,475.641 112.551,473.141 117.5,469C 132.627,451.959 132.127,435.459 116,419.5C 115.333,418.833 115.333,418.167 116,417.5C 150.242,393.621 185.742,371.621 222.5,351.5C 229.129,373.629 243.795,386.796 266.5,391C 295.592,391.967 314.926,378.8 324.5,351.5C 343.33,362.081 361.997,372.914 380.5,384C 382.833,384.667 385.167,384.667 387.5,384C 388.471,382.519 389.804,381.685 391.5,381.5 Z"/></g>
<g><path style="opacity:1" fill="#7a7078" d="M 79.5,387.5 C 79.8226,391.226 79.4892,394.893 78.5,398.5C 74.9963,397.034 71.3297,396.367 67.5,396.5C 62.7232,396.541 58.0565,397.207 53.5,398.5C 53.5,395.167 53.5,391.833 53.5,388.5C 62.0558,384.995 70.7225,384.662 79.5,387.5 Z"/></g>
<g><path style="opacity:1" fill="#fbc195" d="M 62.5,411.5 C 72.8518,410.592 80.0184,414.925 84,424.5C 90.2744,444.962 89.9411,465.295 83,485.5C 76.3758,496.783 67.2091,499.283 55.5,493C 43.4403,482.515 37.7737,469.182 38.5,453C 37.9415,433.92 45.9415,420.087 62.5,411.5 Z"/></g>
<g><path style="opacity:1" fill="#f2a475" d="M 104.5,459.5 C 103.833,453.167 103.167,446.833 102.5,440.5C 102.409,436.044 101.909,431.71 101,427.5C 112.2,433.221 115.533,441.888 111,453.5C 109.615,456.386 107.449,458.386 104.5,459.5 Z"/></g>
<g><path style="opacity:1" fill="#4f3525" d="M 102.5,440.5 C 103.167,446.833 103.833,453.167 104.5,459.5C 104.44,460.043 104.107,460.376 103.5,460.5C 102.503,453.866 102.17,447.2 102.5,440.5 Z"/></g>
<g><path style="opacity:1" fill="#00cffb" d="M 99.5,484.5 C 112.99,485.496 126.656,485.829 140.5,485.5C 140.5,489.167 140.5,492.833 140.5,496.5C 125.152,496.833 109.819,496.499 94.5,495.5C 96.3832,491.816 98.0499,488.149 99.5,484.5 Z"/></g>
<g><path style="opacity:1" fill="#00d0fd" d="M 156.5,485.5 C 234.5,485.5 312.5,485.5 390.5,485.5C 390.5,489.167 390.5,492.833 390.5,496.5C 312.5,496.5 234.5,496.5 156.5,496.5C 156.5,492.833 156.5,489.167 156.5,485.5 Z"/></g>
<g><path style="opacity:1" fill="#00cdfa" d="M 471.5,482.5 C 472.486,486.97 472.819,491.637 472.5,496.5C 450.167,496.5 427.833,496.5 405.5,496.5C 405.5,492.833 405.5,489.167 405.5,485.5C 427.5,485.5 449.5,485.5 471.5,485.5C 471.5,484.5 471.5,483.5 471.5,482.5 Z"/></g>
</svg>
