<?xml version="1.0" encoding="UTF-8"?>
<!DOCTYPE svg PUBLIC "-//W3C//DTD SVG 1.1//EN" "http://www.w3.org/Graphics/SVG/1.1/DTD/svg11.dtd">
<svg xmlns="http://www.w3.org/2000/svg" version="1.1" width="512px" height="512px" style="shape-rendering:geometricPrecision; text-rendering:geometricPrecision; image-rendering:optimizeQuality; fill-rule:evenodd; clip-rule:evenodd" xmlns:xlink="http://www.w3.org/1999/xlink">
<g><path style="opacity:0.992" fill="#000000" d="M -0.5,44.5 C 170.167,44.5 340.833,44.5 511.5,44.5C 511.5,154.833 511.5,265.167 511.5,375.5C 509.167,375.5 506.833,375.5 504.5,375.5C 501.833,375.5 499.167,375.5 496.5,375.5C 496.5,270.167 496.5,164.833 496.5,59.5C 340.833,59.5 185.167,59.5 29.5,59.5C 24.5,59.5 19.5,59.5 14.5,59.5C 14.5,190.167 14.5,320.833 14.5,451.5C 175.167,451.5 335.833,451.5 496.5,451.5C 496.5,446.167 496.5,440.833 496.5,435.5C 496.5,430.5 496.5,425.5 496.5,420.5C 499.385,420.806 502.052,420.473 504.5,419.5C 506.833,419.5 509.167,419.5 511.5,419.5C 511.5,435.167 511.5,450.833 511.5,466.5C 340.833,466.5 170.167,466.5 -0.5,466.5C -0.5,325.833 -0.5,185.167 -0.5,44.5 Z"/></g>
<g><path style="opacity:1" fill="#ce5472" d="M 29.5,59.5 C 29.5,64.5 29.5,69.5 29.5,74.5C 29.5,194.833 29.5,315.167 29.5,435.5C 180.167,435.5 330.833,435.5 481.5,435.5C 486.5,435.5 491.5,435.5 496.5,435.5C 496.5,440.833 496.5,446.167 496.5,451.5C 335.833,451.5 175.167,451.5 14.5,451.5C 14.5,320.833 14.5,190.167 14.5,59.5C 19.5,59.5 24.5,59.5 29.5,59.5 Z"/></g>
<g><path style="opacity:0.999" fill="#dd8ca0" d="M 29.5,59.5 C 185.167,59.5 340.833,59.5 496.5,59.5C 496.5,164.833 496.5,270.167 496.5,375.5C 499.167,375.5 501.833,375.5 504.5,375.5C 504.5,380.167 504.5,384.833 504.5,389.5C 502.052,390.473 499.385,390.806 496.5,390.5C 496.5,395.5 496.5,400.5 496.5,405.5C 499.167,405.5 501.833,405.5 504.5,405.5C 504.5,410.167 504.5,414.833 504.5,419.5C 502.052,420.473 499.385,420.806 496.5,420.5C 496.5,425.5 496.5,430.5 496.5,435.5C 491.5,435.5 486.5,435.5 481.5,435.5C 481.5,315.167 481.5,194.833 481.5,74.5C 360.666,74.1671 239.999,74.5005 119.5,75.5C 119.5,77.8333 119.5,80.1667 119.5,82.5C 114.5,82.5 109.5,82.5 104.5,82.5C 104.5,79.8333 104.5,77.1667 104.5,74.5C 99.5,74.5 94.5,74.5 89.5,74.5C 89.5,77.1667 89.5,79.8333 89.5,82.5C 84.5,82.5 79.5,82.5 74.5,82.5C 74.5,79.8333 74.5,77.1667 74.5,74.5C 59.5,74.5 44.5,74.5 29.5,74.5C 29.5,69.5 29.5,64.5 29.5,59.5 Z"/></g>
<g><path style="opacity:0.971" fill="#000000" d="M 504.5,389.5 C 506.833,389.5 509.167,389.5 511.5,389.5C 511.5,394.833 511.5,400.167 511.5,405.5C 509.167,405.5 506.833,405.5 504.5,405.5C 501.833,405.5 499.167,405.5 496.5,405.5C 496.5,400.5 496.5,395.5 496.5,390.5C 499.385,390.806 502.052,390.473 504.5,389.5 Z"/></g>
<g><path style="opacity:1" fill="#201418" d="M 29.5,74.5 C 44.5,74.5 59.5,74.5 74.5,74.5C 74.5,77.1667 74.5,79.8333 74.5,82.5C 74.8016,85.0593 74.4682,87.3926 73.5,89.5C 73.5,84.8333 73.5,80.1667 73.5,75.5C 59.1667,75.5 44.8333,75.5 30.5,75.5C 30.5,195.167 30.5,314.833 30.5,434.5C 180.5,434.5 330.5,434.5 480.5,434.5C 480.5,314.833 480.5,195.167 480.5,75.5C 360.167,75.5 239.833,75.5 119.5,75.5C 239.999,74.5005 360.666,74.1671 481.5,74.5C 481.5,194.833 481.5,315.167 481.5,435.5C 330.833,435.5 180.167,435.5 29.5,435.5C 29.5,315.167 29.5,194.833 29.5,74.5 Z"/></g>
<g><path style="opacity:1" fill="#040203" d="M 104.5,82.5 C 104.5,84.8333 104.5,87.1667 104.5,89.5C 99.5,89.5 94.5,89.5 89.5,89.5C 89.5,87.1667 89.5,84.8333 89.5,82.5C 89.5,79.8333 89.5,77.1667 89.5,74.5C 94.5,74.5 99.5,74.5 104.5,74.5C 104.5,77.1667 104.5,79.8333 104.5,82.5 Z"/></g>
<g><path style="opacity:1" fill="#010102" d="M 73.5,89.5 C 69.1667,89.5 64.8333,89.5 60.5,89.5C 60.1667,89.5 59.8333,89.5 59.5,89.5C 54.5,89.5 49.5,89.5 44.5,89.5C 44.1701,106.675 44.5034,123.675 45.5,140.5C 49.5,145.167 53.8333,149.5 58.5,153.5C 58.8333,154.5 59.5,155.167 60.5,155.5C 63.6306,158.129 66.6306,160.962 69.5,164C 72.8333,164.667 76.1667,164.667 79.5,164C 87.6667,155.833 95.8333,147.667 104,139.5C 104.5,127.838 104.667,116.171 104.5,104.5C 110.509,104.334 116.509,104.501 122.5,105C 131.651,113.317 140.651,121.817 149.5,130.5C 150.333,162.161 150.833,193.828 151,225.5C 157.409,243.562 163.909,261.562 170.5,279.5C 170.461,280.756 170.961,281.756 172,282.5C 172.5,268.504 172.667,254.504 172.5,240.5C 181.525,240.168 190.525,240.502 199.5,241.5C 205.333,249.833 211.167,258.167 217,266.5C 217.5,287.831 217.667,309.164 217.5,330.5C 217.5,335.5 217.5,340.5 217.5,345.5C 246.502,345.667 275.502,345.5 304.5,345C 315.539,334.959 326.873,325.292 338.5,316C 352.5,315.667 366.5,315.333 380.5,315C 395.167,300.333 409.833,285.667 424.5,271C 438.496,270.5 452.496,270.333 466.5,270.5C 466.5,265.167 466.5,259.833 466.5,254.5C 451.167,254.5 435.833,254.5 420.5,254.5C 420.5,249.5 420.5,244.5 420.5,239.5C 435.5,239.5 450.5,239.5 465.5,239.5C 466.499,189.669 466.832,139.669 466.5,89.5C 350.833,89.5 235.167,89.5 119.5,89.5C 119.5,87.1667 119.5,84.8333 119.5,82.5C 119.5,80.1667 119.5,77.8333 119.5,75.5C 239.833,75.5 360.167,75.5 480.5,75.5C 480.5,195.167 480.5,314.833 480.5,434.5C 330.5,434.5 180.5,434.5 30.5,434.5C 30.5,314.833 30.5,195.167 30.5,75.5C 44.8333,75.5 59.1667,75.5 73.5,75.5C 73.5,80.1667 73.5,84.8333 73.5,89.5 Z"/></g>
<g><path style="opacity:1" fill="#7f59a4" d="M 465.5,405.5 C 465.833,405.5 466.167,405.5 466.5,405.5C 466.5,410.5 466.5,415.5 466.5,420.5C 390.998,420.833 315.665,420.499 240.5,419.5C 315.5,419.5 390.5,419.5 465.5,419.5C 465.5,414.833 465.5,410.167 465.5,405.5 Z"/></g>
<g><path style="opacity:1" fill="#9f70ce" d="M 240.5,405.5 C 315.5,405.5 390.5,405.5 465.5,405.5C 465.5,410.167 465.5,414.833 465.5,419.5C 390.5,419.5 315.5,419.5 240.5,419.5C 240.5,414.833 240.5,410.167 240.5,405.5 Z"/></g>
<g><path style="opacity:1" fill="#bd9ddc" d="M 59.5,360.5 C 64.5,360.5 69.5,360.5 74.5,360.5C 74.5,365.5 74.5,370.5 74.5,375.5C 77.1667,375.5 79.8333,375.5 82.5,375.5C 82.5,380.5 82.5,385.5 82.5,390.5C 79.8333,390.5 77.1667,390.5 74.5,390.5C 74.5,395.5 74.5,400.5 74.5,405.5C 69.5,405.5 64.5,405.5 59.5,405.5C 59.5,390.833 59.5,376.167 59.5,361.5C 59.5,361.167 59.5,360.833 59.5,360.5 Z"/></g>
<g><path style="opacity:1" fill="#9f70ce" d="M 59.5,361.5 C 59.5,376.167 59.5,390.833 59.5,405.5C 64.5,405.5 69.5,405.5 74.5,405.5C 74.5,410.167 74.5,414.833 74.5,419.5C 64.8333,419.5 55.1667,419.5 45.5,419.5C 45.5,400.167 45.5,380.833 45.5,361.5C 50.1667,361.5 54.8333,361.5 59.5,361.5 Z"/></g>
<g><path style="opacity:1" fill="#7b569f" d="M 59.5,360.5 C 59.5,360.833 59.5,361.167 59.5,361.5C 54.8333,361.5 50.1667,361.5 45.5,361.5C 45.5,380.833 45.5,400.167 45.5,419.5C 55.1667,419.5 64.8333,419.5 74.5,419.5C 64.6806,420.494 54.6806,420.827 44.5,420.5C 44.5,400.5 44.5,380.5 44.5,360.5C 49.5,360.5 54.5,360.5 59.5,360.5 Z"/></g>
<g><path style="opacity:1" fill="#bf9edd" d="M 466.5,405.5 C 466.167,405.5 465.833,405.5 465.5,405.5C 390.5,405.5 315.5,405.5 240.5,405.5C 240.665,401.818 240.499,398.152 240,394.5C 232.667,387.167 225.333,379.833 218,372.5C 217.501,368.514 217.334,364.514 217.5,360.5C 248.168,360.667 278.835,360.5 309.5,360C 321.127,350.708 332.461,341.041 343.5,331C 358.167,330.667 372.833,330.333 387.5,330C 402.167,315.333 416.833,300.667 431.5,286C 443.162,285.5 454.829,285.333 466.5,285.5C 466.5,325.5 466.5,365.5 466.5,405.5 Z"/></g>
<g><path style="opacity:1" fill="#3d6ce8" d="M 420.5,254.5 C 435.833,254.5 451.167,254.5 466.5,254.5C 466.5,259.833 466.5,265.167 466.5,270.5C 452.496,270.333 438.496,270.5 424.5,271C 409.833,285.667 395.167,300.333 380.5,315C 366.5,315.333 352.5,315.667 338.5,316C 326.873,325.292 315.539,334.959 304.5,345C 275.502,345.5 246.502,345.667 217.5,345.5C 217.5,340.5 217.5,335.5 217.5,330.5C 229.833,330.5 242.167,330.5 254.5,330.5C 259.5,330.5 264.5,330.5 269.5,330.5C 279.839,330.666 290.172,330.5 300.5,330C 311.5,320.333 322.5,310.667 333.5,301C 347.5,300.667 361.5,300.333 375.5,300C 390.702,284.965 405.702,269.799 420.5,254.5 Z"/></g>
<g><path style="opacity:1" fill="#526174" d="M 202.5,378.5 C 201.503,357.673 201.169,336.673 201.5,315.5C 194.978,315.823 188.645,315.49 182.5,314.5C 184.167,314.5 185.833,314.5 187.5,314.5C 187.5,294.833 187.5,275.167 187.5,255.5C 188.978,255.238 190.311,255.571 191.5,256.5C 194.805,261.638 198.305,266.638 202,271.5C 202.5,307.165 202.667,342.832 202.5,378.5 Z"/></g>
<g><path style="opacity:1" fill="#65759e" d="M 172.5,240.5 C 172.667,254.504 172.5,268.504 172,282.5C 170.961,281.756 170.461,280.756 170.5,279.5C 171.167,266.5 171.833,253.5 172.5,240.5 Z"/></g>
<g><path style="opacity:1" fill="#fbfcfe" d="M 59.5,224.5 C 64.5,224.5 69.5,224.5 74.5,224.5C 74.5,229.5 74.5,234.5 74.5,239.5C 69.5,239.5 64.5,239.5 59.5,239.5C 59.5,234.5 59.5,229.5 59.5,224.5 Z"/></g>
<g><path style="opacity:1" fill="#71859d" d="M 135.5,226.5 C 145.894,255.515 156.394,284.515 167,313.5C 172.072,314.471 177.238,314.805 182.5,314.5C 188.645,315.49 194.978,315.823 201.5,315.5C 201.169,336.673 201.503,357.673 202.5,378.5C 209.798,386.298 217.298,393.965 225,401.5C 225.483,402.448 225.649,403.448 225.5,404.5C 185.5,404.5 145.5,404.5 105.5,404.5C 105.333,379.498 105.5,354.498 106,329.5C 110.667,322.833 115.333,316.167 120,309.5C 120.333,276.167 120.667,242.833 121,209.5C 125.333,205.167 129.667,200.833 134,196.5C 134.17,206.675 134.67,216.675 135.5,226.5 Z"/></g>
<g><path style="opacity:1" fill="#3c6be6" d="M 59.5,175.5 C 59.5,191.833 59.5,208.167 59.5,224.5C 59.5,229.5 59.5,234.5 59.5,239.5C 59.5,269.833 59.5,300.167 59.5,330.5C 64.5,330.5 69.5,330.5 74.5,330.5C 74.5,335.5 74.5,340.5 74.5,345.5C 64.5,345.5 54.5,345.5 44.5,345.5C 44.3333,284.166 44.5,222.832 45,161.5C 49.7287,166.397 54.562,171.064 59.5,175.5 Z"/></g>
<g><path style="opacity:1" fill="#9cb4f2" d="M 103.5,161.5 C 104.492,168.982 104.825,176.648 104.5,184.5C 99.8698,189.631 95.0365,194.631 90,199.5C 89.6667,232.5 89.3333,265.5 89,298.5C 84.3333,305.167 79.6667,311.833 75,318.5C 74.5012,322.486 74.3345,326.486 74.5,330.5C 69.5,330.5 64.5,330.5 59.5,330.5C 59.5,300.167 59.5,269.833 59.5,239.5C 64.5,239.5 69.5,239.5 74.5,239.5C 74.5,234.5 74.5,229.5 74.5,224.5C 69.5,224.5 64.5,224.5 59.5,224.5C 59.5,208.167 59.5,191.833 59.5,175.5C 60.9616,176.458 62.2949,177.624 63.5,179C 70.8333,179.667 78.1667,179.667 85.5,179C 91.3686,172.964 97.3686,167.13 103.5,161.5 Z"/></g>
<g><path style="opacity:1" fill="#404a64" d="M 103.5,161.5 C 103.56,160.957 103.893,160.624 104.5,160.5C 105.82,168.657 105.82,176.657 104.5,184.5C 104.825,176.648 104.492,168.982 103.5,161.5 Z"/></g>
<g><path style="opacity:1" fill="#515f72" d="M 135.5,226.5 C 134.67,216.675 134.17,206.675 134,196.5C 129.667,200.833 125.333,205.167 121,209.5C 120.667,242.833 120.333,276.167 120,309.5C 115.333,316.167 110.667,322.833 106,329.5C 105.5,354.498 105.333,379.498 105.5,404.5C 145.5,404.5 185.5,404.5 225.5,404.5C 225.5,409.833 225.5,415.167 225.5,420.5C 180.167,420.5 134.833,420.5 89.5,420.5C 89.5,410.5 89.5,400.5 89.5,390.5C 87.1667,390.5 84.8333,390.5 82.5,390.5C 82.5,385.5 82.5,380.5 82.5,375.5C 84.8333,375.5 87.1667,375.5 89.5,375.5C 89.3334,358.163 89.5001,340.83 90,323.5C 94.6667,316.833 99.3333,310.167 104,303.5C 104.333,270.833 104.667,238.167 105,205.5C 109.667,200.833 114.333,196.167 119,191.5C 119.333,168.833 119.667,146.167 120,123.5C 124.699,128.534 129.699,133.2 135,137.5C 135.5,167.165 135.667,196.831 135.5,226.5 Z"/></g>
<g><path style="opacity:1" fill="#7192eb" d="M 59.5,89.5 C 59.8333,89.5 60.1667,89.5 60.5,89.5C 60.5,111.5 60.5,133.5 60.5,155.5C 59.5,155.167 58.8333,154.5 58.5,153.5C 59.4973,132.673 59.8306,111.673 59.5,90.5C 59.5,90.1667 59.5,89.8333 59.5,89.5 Z"/></g>
<g><path style="opacity:1" fill="#3c6ce8" d="M 59.5,90.5 C 59.8306,111.673 59.4973,132.673 58.5,153.5C 53.8333,149.5 49.5,145.167 45.5,140.5C 45.5,123.833 45.5,107.167 45.5,90.5C 50.1667,90.5 54.8333,90.5 59.5,90.5 Z"/></g>
<g><path style="opacity:1" fill="#2f55b6" d="M 59.5,89.5 C 59.5,89.8333 59.5,90.1667 59.5,90.5C 54.8333,90.5 50.1667,90.5 45.5,90.5C 45.5,107.167 45.5,123.833 45.5,140.5C 44.5034,123.675 44.1701,106.675 44.5,89.5C 49.5,89.5 54.5,89.5 59.5,89.5 Z"/></g>
<g><path style="opacity:1" fill="#7d90c1" d="M 119.5,89.5 C 235.167,89.5 350.833,89.5 466.5,89.5C 466.832,139.669 466.499,189.669 465.5,239.5C 465.5,189.833 465.5,140.167 465.5,90.5C 349.999,90.8328 234.665,90.4995 119.5,89.5 Z"/></g>
<g><path style="opacity:1" fill="#9db5f3" d="M 74.5,82.5 C 79.5,82.5 84.5,82.5 89.5,82.5C 89.5,84.8333 89.5,87.1667 89.5,89.5C 94.5,89.5 99.5,89.5 104.5,89.5C 104.5,87.1667 104.5,84.8333 104.5,82.5C 109.5,82.5 114.5,82.5 119.5,82.5C 119.5,84.8333 119.5,87.1667 119.5,89.5C 234.665,90.4995 349.999,90.8328 465.5,90.5C 465.5,140.167 465.5,189.833 465.5,239.5C 450.5,239.5 435.5,239.5 420.5,239.5C 420.5,244.5 420.5,249.5 420.5,254.5C 405.702,269.799 390.702,284.965 375.5,300C 361.5,300.333 347.5,300.667 333.5,301C 322.5,310.667 311.5,320.333 300.5,330C 290.172,330.5 279.839,330.666 269.5,330.5C 269.5,325.5 269.5,320.5 269.5,315.5C 264.5,315.5 259.5,315.5 254.5,315.5C 254.5,320.5 254.5,325.5 254.5,330.5C 242.167,330.5 229.833,330.5 217.5,330.5C 217.667,309.164 217.5,287.831 217,266.5C 211.167,258.167 205.333,249.833 199.5,241.5C 190.525,240.502 181.525,240.168 172.5,240.5C 171.833,253.5 171.167,266.5 170.5,279.5C 163.909,261.562 157.409,243.562 151,225.5C 150.833,193.828 150.333,162.161 149.5,130.5C 140.651,121.817 131.651,113.317 122.5,105C 116.509,104.501 110.509,104.334 104.5,104.5C 104.667,116.171 104.5,127.838 104,139.5C 95.8333,147.667 87.6667,155.833 79.5,164C 76.1667,164.667 72.8333,164.667 69.5,164C 66.6306,160.962 63.6306,158.129 60.5,155.5C 60.5,133.5 60.5,111.5 60.5,89.5C 64.8333,89.5 69.1667,89.5 73.5,89.5C 74.4682,87.3926 74.8016,85.0593 74.5,82.5 Z"/></g>
<g><path style="opacity:1" fill="#fcfdfe" d="M 269.5,330.5 C 264.5,330.5 259.5,330.5 254.5,330.5C 254.5,325.5 254.5,320.5 254.5,315.5C 259.5,315.5 264.5,315.5 269.5,315.5C 269.5,320.5 269.5,325.5 269.5,330.5 Z"/></g>
<g><path style="opacity:1" fill="#010203" d="M 363.5,239.5 C 377.5,239.5 391.5,239.5 405.5,239.5C 405.5,244.5 405.5,249.5 405.5,254.5C 393.495,254.333 381.495,254.5 369.5,255C 357.863,267.638 345.863,279.971 333.5,292C 302.168,292.5 270.835,292.667 239.5,292.5C 239.5,287.5 239.5,282.5 239.5,277.5C 268.835,277.667 298.169,277.5 327.5,277C 340.068,264.934 352.068,252.434 363.5,239.5 Z"/></g>
<g><path style="opacity:1" fill="#fcfdfe" d="M 435.5,194.5 C 440.5,194.5 445.5,194.5 450.5,194.5C 450.5,199.5 450.5,204.5 450.5,209.5C 445.5,209.5 440.5,209.5 435.5,209.5C 435.5,204.5 435.5,199.5 435.5,194.5 Z"/></g>
<g><path style="opacity:1" fill="#fdfdfe" d="M 180.5,179.5 C 185.5,179.5 190.5,179.5 195.5,179.5C 195.5,184.5 195.5,189.5 195.5,194.5C 190.5,194.5 185.5,194.5 180.5,194.5C 180.5,189.5 180.5,184.5 180.5,179.5 Z"/></g>
<g><path style="opacity:1" fill="#030305" d="M 314.5,224.5 C 294.833,224.5 275.167,224.5 255.5,224.5C 255.5,214.5 255.5,204.5 255.5,194.5C 260.167,194.5 264.833,194.5 269.5,194.5C 269.5,199.833 269.5,205.167 269.5,210.5C 279.681,210.827 289.681,210.494 299.5,209.5C 299.666,205.154 299.499,200.821 299,196.5C 294.167,191 289.333,185.5 284.5,180C 272.5,179.333 260.5,179.333 248.5,180C 243.7,185.802 238.533,191.302 233,196.5C 232.333,205.167 232.333,213.833 233,222.5C 239.167,230.667 245.333,238.833 251.5,247C 269.5,247.667 287.5,247.667 305.5,247C 313.709,238.959 321.709,230.792 329.5,222.5C 330.666,208.846 330.833,195.179 330,181.5C 321.5,171 313,160.5 304.5,150C 257.835,149.5 211.168,149.333 164.5,149.5C 164.5,144.5 164.5,139.5 164.5,134.5C 213.501,134.333 262.501,134.5 311.5,135C 322.667,148.833 333.833,162.667 345,176.5C 345.667,193.833 345.667,211.167 345,228.5C 333.652,239.681 322.486,251.014 311.5,262.5C 289.167,263.833 266.833,263.833 244.5,262.5C 235.908,250.986 227.075,239.652 218,228.5C 217.333,215.833 217.333,203.167 218,190.5C 226.531,182.303 234.698,173.803 242.5,165C 258.844,164.167 275.177,164.334 291.5,165.5C 298.815,173.983 306.315,182.316 314,190.5C 314.5,201.828 314.667,213.162 314.5,224.5 Z"/></g>
<g><path style="opacity:1" fill="#2b3243" d="M 255.5,194.5 C 255.5,204.5 255.5,214.5 255.5,224.5C 275.167,224.5 294.833,224.5 314.5,224.5C 294.674,225.497 274.674,225.83 254.5,225.5C 254.172,214.986 254.506,204.653 255.5,194.5 Z"/></g>
<g><path style="opacity:1" fill="#6777a0" d="M 269.5,194.5 C 270.487,199.305 270.821,204.305 270.5,209.5C 280.167,209.5 289.833,209.5 299.5,209.5C 289.681,210.494 279.681,210.827 269.5,210.5C 269.5,205.167 269.5,199.833 269.5,194.5 Z"/></g>
<g><path style="opacity:1" fill="#010101" d="M 386.5,119.5 C 397.833,119.5 409.167,119.5 420.5,119.5C 420.5,124.167 420.5,128.833 420.5,133.5C 425.5,133.5 430.5,133.5 435.5,133.5C 435.667,144.838 435.5,156.172 435,167.5C 431.167,171.333 427.333,175.167 423.5,179C 411.167,179.667 398.833,179.667 386.5,179C 382.65,175.451 379.15,171.617 376,167.5C 375.333,155.167 375.333,142.833 376,130.5C 379.704,126.964 383.204,123.298 386.5,119.5 Z"/></g>
<g><path style="opacity:1" fill="#f5e566" d="M 392.5,134.5 C 396.833,134.5 401.167,134.5 405.5,134.5C 405.5,139.167 405.5,143.833 405.5,148.5C 410.5,148.5 415.5,148.5 420.5,148.5C 420.666,152.846 420.499,157.179 420,161.5C 419.167,162.333 418.333,163.167 417.5,164C 409.147,164.832 400.813,164.665 392.5,163.5C 392.192,162.692 391.692,162.025 391,161.5C 390.333,153.167 390.333,144.833 391,136.5C 391.717,135.956 392.217,135.289 392.5,134.5 Z"/></g>
<g><path style="opacity:1" fill="#fbfcfe" d="M 345.5,104.5 C 350.5,104.5 355.5,104.5 360.5,104.5C 360.5,109.5 360.5,114.5 360.5,119.5C 355.5,119.5 350.5,119.5 345.5,119.5C 345.5,114.5 345.5,109.5 345.5,104.5 Z"/></g>
</svg>
