<?xml version="1.0" encoding="UTF-8"?>
<svg version="1.1" xmlns="http://www.w3.org/2000/svg" width="512" height="512">
<path d="M0 0 C0.76570313 -0.01409912 1.53140625 -0.02819824 2.3203125 -0.04272461 C7.86948877 0.00525973 12.05275185 1.02813407 16.33203125 4.83984375 C21.86272305 11.81332471 21.54352198 19.80134487 20.6875 28.375 C18.54476235 41.06857783 13.31913324 52.89530748 7.6875 64.375 C7.26082031 65.24753418 6.83414062 66.12006836 6.39453125 67.01904297 C-13.38016749 107.0288113 -40.63960458 143.13060896 -68.82861328 177.55908203 C-70.11883195 179.13799721 -71.40185588 180.72278627 -72.68359375 182.30859375 C-81.40376134 193.0768007 -90.5157974 203.51992562 -99.8984375 213.71484375 C-101.84491719 215.85975098 -103.75591873 218.02553002 -105.65625 220.2109375 C-109.1708813 224.23770618 -112.7789046 228.16648511 -116.4375 232.0625 C-117.08203125 232.75021484 -117.7265625 233.43792969 -118.390625 234.14648438 C-123.14588942 239.1954563 -128.01224058 244.11808081 -132.94848633 248.98950195 C-135.79979556 251.81587391 -138.52741537 254.68918921 -141.125 257.75 C-143.79364788 260.88388432 -146.6744065 263.47501077 -149.8125 266.12890625 C-153.28104097 269.24517352 -156.53386059 272.56101571 -159.8125 275.875 C-164.23535683 280.33675333 -168.64375943 284.73477776 -173.44921875 288.7890625 C-175.66721185 290.67691407 -177.79492155 292.65202792 -179.9375 294.625 C-185.58554774 299.71948717 -191.53799506 304.37452946 -197.55859375 309.01513672 C-199.21647587 310.30054922 -200.86005274 311.60198136 -202.5 312.91015625 C-218.82067206 325.78308634 -236.43954127 336.92053477 -256.3125 343.375 C-257.529375 343.7875 -258.74625 344.2 -260 344.625 C-260.763125 344.8725 -261.52625 345.12 -262.3125 345.375 C-261.508125 346.303125 -260.70375 347.23125 -259.875 348.1875 C-256.63669922 351.9240009 -256.17656887 355.12941776 -255.88671875 360.046875 C-257.07853802 366.56361153 -261.86141574 371.37234546 -266.3984375 375.859375 C-266.97784088 376.44164856 -267.55724426 377.02392212 -268.15420532 377.62384033 C-269.37255897 378.84422256 -270.59465761 380.06087652 -271.8203125 381.27392578 C-273.68588866 383.12340257 -275.53487095 384.98839026 -277.3828125 386.85546875 C-278.57455994 388.04523411 -279.76723746 389.23406871 -280.9609375 390.421875 C-281.50801361 390.9750238 -282.05508972 391.52817261 -282.6187439 392.0980835 C-286.9155654 396.3178316 -290.79077515 399.2040356 -297 399.625 C-300.3125 399.375 -300.3125 399.375 -303.3125 398.375 C-303.47105469 399.31859375 -303.62960937 400.2621875 -303.79296875 401.234375 C-307.91156331 423.89802241 -319.92827122 440.86823219 -338.68139648 454.10107422 C-357.0734491 466.52431764 -377.40146787 474.55582709 -399.00390625 479.375 C-399.77217743 479.54668198 -400.54044861 479.71836395 -401.33200073 479.89524841 C-405.17520379 480.74735351 -409.02186006 481.57255411 -412.87890625 482.35961914 C-427.41969823 485.40778318 -439.07440997 490.16479635 -447.6640625 502.82421875 C-449.68199777 505.9467584 -451.53741442 509.10884253 -453.3125 512.375 C-454.3025 512.375 -455.2925 512.375 -456.3125 512.375 C-475.84553192 487.08167264 -484.4985594 453.06463439 -481.00341797 421.59179688 C-476.90012386 392.9368643 -461.36052385 365.47605565 -438.5 347.5625 C-418.35948745 333.25905505 -397.7499153 328.88131484 -373.3125 329.375 C-373.951875 328.59125 -374.59125 327.8075 -375.25 327 C-377.77684383 323.78401694 -378.49542678 322.13495024 -378.625 318.125 C-378.66238281 317.37734375 -378.69976562 316.6296875 -378.73828125 315.859375 C-377.67383458 309.64847519 -372.23405315 305.00090008 -367.9375 300.734375 C-367.33115723 300.12611877 -366.72481445 299.51786255 -366.10009766 298.89117432 C-364.82504718 297.61477003 -363.54749629 296.34085908 -362.26757812 295.06933594 C-360.31144214 293.12394795 -358.36625346 291.1680692 -356.421875 289.2109375 C-355.17772441 287.96810792 -353.93295387 286.72589856 -352.6875 285.484375 C-352.10822754 284.90105408 -351.52895508 284.31773315 -350.93212891 283.71673584 C-346.93516831 279.7658103 -343.83623283 277.10366311 -338 277 C-332.26742584 277.11351632 -328.37709186 279.31040814 -324.3125 283.375 C-324.07917969 282.46363281 -323.84585938 281.55226563 -323.60546875 280.61328125 C-319.01046044 263.8842018 -310.51052784 248.35556908 -300.3125 234.375 C-299.87325195 233.76881836 -299.43400391 233.16263672 -298.98144531 232.53808594 C-292.14615547 223.13898393 -284.93700713 214.14257519 -277.3125 205.375 C-276.70019531 204.66214844 -276.08789062 203.94929687 -275.45703125 203.21484375 C-270.78098491 197.80573551 -265.92984041 192.55386271 -261.0793457 187.30151367 C-259.72424139 185.82395002 -258.37808534 184.3381755 -257.03588867 182.84887695 C-249.94478871 175.02020268 -242.58522803 167.49322333 -235.10473633 160.03686523 C-233.11357223 158.05110324 -231.12786779 156.0599926 -229.14257812 154.06835938 C-218.02726048 142.94722778 -218.02726048 142.94722778 -212.09106445 137.90844727 C-208.60686054 134.90442739 -205.32629503 131.67638612 -202 128.5 C-196.44841003 123.23292149 -190.84366452 118.20640867 -184.8515625 113.4453125 C-182.07614014 111.1822758 -179.4463161 108.80107849 -176.8125 106.375 C-171.99655993 101.95247475 -167.02120084 97.7968699 -161.93212891 93.69433594 C-160.12265192 92.22035137 -158.33216395 90.72509746 -156.54296875 89.2265625 C-145.75291985 80.20972598 -134.63812814 71.70634 -123.3125 63.375 C-122.56919434 62.82489258 -121.82588867 62.27478516 -121.06005859 61.70800781 C-90.10779393 38.82933993 -56.93468009 16.04292733 -20.3125 3.375 C-19.34828125 3.01664062 -18.3840625 2.65828125 -17.390625 2.2890625 C-11.62745255 0.38546918 -6.02303545 0.08157201 0 0 Z " fill="#F79D00" transform="translate(486.3125,-0.375)"/>
<path d="M0 0 C0.79220947 0.82999512 1.58441895 1.65999023 2.40063477 2.51513672 C3.28944336 3.42779297 4.17825195 4.34044922 5.09399414 5.28076172 C6.01068855 6.25147533 6.92670097 7.22283341 7.84204102 8.19482422 C9.6508935 10.07468804 11.46205412 11.95233393 13.27563477 13.82763672 C14.46564087 15.08278076 14.46564087 15.08278076 15.6796875 16.36328125 C17.79039762 18.45980776 19.91101438 20.41193127 22.15673828 22.35498047 C29.48235755 28.69741647 36.33870061 35.54577415 43.2434082 42.33886719 C45.02304095 44.08160113 46.81155235 45.8153127 48.60864258 47.54003906 C51.21870013 50.04685519 53.79823142 52.58181809 56.37329102 55.12451172 C57.17939819 55.88730438 57.98550537 56.65009705 58.81604004 57.43600464 C62.45964661 61.09224251 64.88663155 63.56042184 64.95507812 68.88598633 C63.18489162 88.68001766 51.16958126 104.67541727 36.40454102 117.06982422 C16.89458705 132.36968737 -6.24087961 141.70553337 -30.28686523 147.06982422 C-31.439272 147.32734718 -31.439272 147.32734718 -32.61495972 147.59007263 C-36.45816277 148.44217773 -40.30481904 149.26737833 -44.16186523 150.05444336 C-58.70265721 153.1026074 -70.35736895 157.85962057 -78.94702148 170.51904297 C-80.96495676 173.64158262 -82.8203734 176.80366675 -84.59545898 180.06982422 C-85.58545898 180.06982422 -86.57545898 180.06982422 -87.59545898 180.06982422 C-107.1284909 154.77649686 -115.78151838 120.75945861 -112.28637695 89.28662109 C-108.18308284 60.63168852 -92.64348284 33.17087987 -69.78295898 15.25732422 C-53.89869611 3.97659445 -18.30866242 -13.61567915 0 0 Z " fill="#7C5748" transform="translate(117.595458984375,331.93017578125)"/>
<path d="M0 0 C0.76570313 -0.01409912 1.53140625 -0.02819824 2.3203125 -0.04272461 C7.17616687 -0.0007355 10.4266923 0.81445101 14.6875 3.375 C14.6875 3.705 14.6875 4.035 14.6875 4.375 C14.15125 4.4265625 13.615 4.478125 13.0625 4.53125 C-1.03802818 6.57211592 -13.77817947 15.46130335 -25.3125 23.375 C-25.86583008 23.75350098 -26.41916016 24.13200195 -26.98925781 24.52197266 C-35.91629655 30.67199964 -44.46237894 37.3019753 -52.98828125 43.9921875 C-56.13269868 46.45950474 -59.29977391 48.89277189 -62.48657227 51.30493164 C-68.86238011 56.1398781 -74.93150731 61.2654197 -80.9765625 66.50390625 C-83.87927374 69.01500813 -86.83106887 71.45750525 -89.8125 73.875 C-99.41207423 81.68171257 -108.74351506 89.77972986 -117.86328125 98.140625 C-120.63749872 100.67149006 -123.45957121 103.14139391 -126.29296875 105.60546875 C-129.47949735 108.39753346 -132.62130446 111.23870827 -135.765625 114.078125 C-137.3761464 115.53055841 -138.99027857 116.97900676 -140.609375 118.421875 C-146.56993947 123.74237886 -152.40706278 129.18709476 -158.22387695 134.66357422 C-161.31884918 137.57585083 -164.41625773 140.48292239 -167.5625 143.33984375 C-175.11582155 150.20301409 -182.353353 157.34224806 -189.51489258 164.61425781 C-190.27954834 165.38737305 -191.0442041 166.16048828 -191.83203125 166.95703125 C-192.50339111 167.63999268 -193.17475098 168.3229541 -193.86645508 169.02661133 C-195.90676383 170.9854625 -197.98296192 172.84004485 -200.12158203 174.68847656 C-204.19567964 178.22892431 -208.03822148 181.95579804 -211.84765625 185.77734375 C-212.53000839 186.45873917 -213.21236053 187.14013458 -213.91539001 187.84217834 C-215.34594437 189.27205741 -216.77525767 190.70317911 -218.20336914 192.13549805 C-220.36949074 194.30697711 -222.54090174 196.47306325 -224.71289062 198.63867188 C-226.11229987 200.03874202 -227.51139884 201.43912238 -228.91015625 202.83984375 C-229.86825951 203.79491066 -229.86825951 203.79491066 -230.84571838 204.76927185 C-234.65855675 208.60167461 -238.28308731 212.54837029 -241.8065033 216.64881897 C-243.70999662 218.83061263 -245.73488471 220.85940307 -247.8125 222.875 C-251.16183729 226.18486698 -254.31175956 229.58246949 -257.375 233.15625 C-259.29815071 235.35856775 -261.27266794 237.50736446 -263.26171875 239.65014648 C-267.98395599 244.74191496 -272.52028959 249.92664858 -276.87109375 255.34375 C-278.69831511 257.61242804 -280.54322545 259.85820402 -282.41015625 262.09375 C-289.66915632 270.82746873 -296.28062018 279.75085039 -302.3125 289.375 C-302.89386719 290.29796875 -303.47523438 291.2209375 -304.07421875 292.171875 C-306.592248 295.93489169 -306.592248 295.93489169 -307.09014893 300.2298584 C-306.0803372 303.01542021 -304.6140134 304.44069544 -302.51464844 306.52929688 C-301.30769318 307.74075378 -301.30769318 307.74075378 -300.07635498 308.97668457 C-298.76238739 310.27213196 -298.76238739 310.27213196 -297.421875 311.59375 C-296.52511047 312.48864136 -295.62834595 313.38353271 -294.70440674 314.30554199 C-292.80454299 316.19867903 -290.90216947 318.08877116 -288.99462891 319.97412109 C-286.55910133 322.38144772 -284.13225644 324.7972892 -281.70855331 327.21651459 C-279.38696778 329.53292087 -277.06072202 331.84462703 -274.734375 334.15625 C-273.4325528 335.45169739 -273.4325528 335.45169739 -272.10443115 336.77331543 C-271.28718567 337.58095337 -270.46994019 338.38859131 -269.62792969 339.22070312 C-268.55656769 340.28182312 -268.55656769 340.28182312 -267.46356201 341.36437988 C-265.29277306 343.45189965 -265.29277306 343.45189965 -262.68731689 345.43151855 C-259.0684621 348.39308463 -256.81712234 351.78562477 -255.92578125 356.359375 C-255.59787138 362.1939092 -258.0085205 366.60584845 -261.67498779 371.01257324 C-263.21313726 372.66866978 -264.79141291 374.27005778 -266.3984375 375.859375 C-266.97784088 376.44164856 -267.55724426 377.02392212 -268.15420532 377.62384033 C-269.37255897 378.84422256 -270.59465761 380.06087652 -271.8203125 381.27392578 C-273.68588866 383.12340257 -275.53487095 384.98839026 -277.3828125 386.85546875 C-278.57455994 388.04523411 -279.76723746 389.23406871 -280.9609375 390.421875 C-281.50801361 390.9750238 -282.05508972 391.52817261 -282.6187439 392.0980835 C-286.87094243 396.27400904 -290.77233531 399.10761424 -296.875 399.75 C-302.51911934 399.13427789 -305.80202623 396.13655362 -309.70043945 392.19824219 C-310.5351326 391.36017029 -311.36982574 390.52209839 -312.22981262 389.65863037 C-313.11948227 388.7555011 -314.00915192 387.85237183 -314.92578125 386.921875 C-316.34468173 385.49502465 -317.76358495 384.06817701 -319.18264294 382.64148331 C-321.16571992 380.64530208 -323.14421621 378.64461121 -325.12268066 376.64385986 C-329.044303 372.67906049 -332.97256717 368.72087431 -336.90434837 364.76615143 C-338.26482026 363.39560236 -339.62163542 362.02142651 -340.97834778 360.64715576 C-345.37381657 356.21768064 -349.83047718 351.95247928 -354.56614685 347.88858032 C-358.81113253 344.20941222 -362.71603885 340.15604525 -366.6875 336.1875 C-368.03908203 334.85428711 -368.03908203 334.85428711 -369.41796875 333.49414062 C-370.27777344 332.63626953 -371.13757813 331.77839844 -372.0234375 330.89453125 C-372.79993652 330.12214111 -373.57643555 329.34975098 -374.37646484 328.55395508 C-377.36242369 325.19333935 -378.60879008 322.48646526 -378.6875 318 C-378.71585937 317.27039063 -378.74421875 316.54078125 -378.7734375 315.7890625 C-377.59493963 309.61692961 -372.22996538 304.99684088 -367.9375 300.734375 C-367.02798584 299.82199066 -367.02798584 299.82199066 -366.10009766 298.89117432 C-364.82504718 297.61477003 -363.54749629 296.34085908 -362.26757812 295.06933594 C-360.31144214 293.12394795 -358.36625346 291.1680692 -356.421875 289.2109375 C-355.17772441 287.96810792 -353.93295387 286.72589856 -352.6875 285.484375 C-351.81859131 284.60939362 -351.81859131 284.60939362 -350.93212891 283.71673584 C-346.93516831 279.7658103 -343.83623283 277.10366311 -338 277 C-332.26742584 277.11351632 -328.37709186 279.31040814 -324.3125 283.375 C-323.96251953 282.00794922 -323.96251953 282.00794922 -323.60546875 280.61328125 C-319.01046044 263.8842018 -310.51052784 248.35556908 -300.3125 234.375 C-299.87325195 233.76881836 -299.43400391 233.16263672 -298.98144531 232.53808594 C-292.14615547 223.13898393 -284.93700713 214.14257519 -277.3125 205.375 C-276.70019531 204.66214844 -276.08789062 203.94929687 -275.45703125 203.21484375 C-270.78098491 197.80573551 -265.92984041 192.55386271 -261.0793457 187.30151367 C-259.72424139 185.82395002 -258.37808534 184.3381755 -257.03588867 182.84887695 C-249.94478871 175.02020268 -242.58522803 167.49322333 -235.10473633 160.03686523 C-233.11357223 158.05110324 -231.12786779 156.0599926 -229.14257812 154.06835938 C-218.02726048 142.94722778 -218.02726048 142.94722778 -212.09106445 137.90844727 C-208.60686054 134.90442739 -205.32629503 131.67638612 -202 128.5 C-196.44841003 123.23292149 -190.84366452 118.20640867 -184.8515625 113.4453125 C-182.07614014 111.1822758 -179.4463161 108.80107849 -176.8125 106.375 C-171.99655993 101.95247475 -167.02120084 97.7968699 -161.93212891 93.69433594 C-160.12265192 92.22035137 -158.33216395 90.72509746 -156.54296875 89.2265625 C-145.75291985 80.20972598 -134.63812814 71.70634 -123.3125 63.375 C-122.1975415 62.54983887 -122.1975415 62.54983887 -121.06005859 61.70800781 C-90.10779393 38.82933993 -56.93468009 16.04292733 -20.3125 3.375 C-19.34828125 3.01664062 -18.3840625 2.65828125 -17.390625 2.2890625 C-11.62745255 0.38546918 -6.02303545 0.08157201 0 0 Z " fill="#D38301" transform="translate(486.3125,-0.375)"/>
<path d="M0 0 C6.2462983 2.08209943 10.34765485 10.0808569 13.5234375 15.69140625 C17.68965451 24.8066645 19.36748821 34.8032352 21.46533203 44.54833984 C22.45676689 49.09445349 23.54253991 53.57983415 25 58 C25.22558594 58.68449219 25.45117188 59.36898437 25.68359375 60.07421875 C32.50367509 76.68389054 54.57402605 85.2511364 70 92 C71.66154545 92.67932978 73.32577606 93.35254621 75 94 C74.7834375 94.55945313 74.566875 95.11890625 74.34375 95.6953125 C71.74297746 103.18457417 71.69380773 110.12972454 72 118 C62.81860818 120.98040424 53.63359989 123.7106359 44.19140625 125.74609375 C43.51665756 125.89244766 42.84190887 126.03880157 42.14671326 126.18959045 C38.79098384 126.91307032 35.43234436 127.61424352 32.06616211 128.28735352 C17.84151469 131.29317595 6.92001998 136.25856771 -1.3515625 148.44921875 C-3.36949777 151.5717584 -5.22491442 154.73384253 -7 158 C-7.99 158 -8.98 158 -10 158 C-29.53303192 132.70667264 -38.1860594 98.68963439 -34.69091797 67.21679688 C-30.96152889 41.17299163 -18.05850946 18.81251821 0 0 Z " fill="#B12627" transform="translate(40,354)"/>
<path d="M0 0 C0.71800781 -0.02835937 1.43601563 -0.05671875 2.17578125 -0.0859375 C8.51970951 1.07826706 12.79483349 5.16570198 16.88525391 9.87695312 C17.83854045 10.95372807 18.7939506 12.02862604 19.75128174 13.10180664 C20.23583076 13.64713043 20.72037979 14.19245422 21.21961212 14.75430298 C23.55412454 17.33184134 25.99197937 19.80118429 28.44677734 22.26367188 C28.93473093 22.75376991 29.42268452 23.24386795 29.92542458 23.74881744 C31.45603503 25.28253688 32.98956724 26.81329124 34.5234375 28.34375 C35.61689518 29.43788398 36.71020462 30.53216613 37.80337524 31.62658691 C40.06896195 33.89363095 42.3363041 36.15889956 44.60498047 38.42285156 C47.50319765 41.31532442 50.39683575 44.21233047 53.28920555 47.11064911 C55.53508735 49.36014931 57.78335115 51.60725666 60.03233719 53.85365295 C61.10072686 54.92137937 62.16838482 55.98983851 63.23527145 57.05906677 C64.72263093 58.54897921 66.21318077 60.03562704 67.70458984 61.52148438 C68.54855316 62.3646521 69.39251648 63.20781982 70.26205444 64.07653809 C72.66062967 66.41959945 72.66062967 66.41959945 75.35440063 68.47521973 C78.96122391 71.41215924 81.1882812 74.81335199 82.07421875 79.359375 C82.40212862 85.1939092 79.9914795 89.60584845 76.32501221 94.01257324 C74.78686274 95.66866978 73.20858709 97.27005778 71.6015625 98.859375 C71.02215912 99.44164856 70.44275574 100.02392212 69.84579468 100.62384033 C68.62744103 101.84422256 67.40534239 103.06087652 66.1796875 104.27392578 C64.31411134 106.12340257 62.46512905 107.98839026 60.6171875 109.85546875 C59.42544006 111.04523411 58.23276254 112.23406871 57.0390625 113.421875 C56.49198639 113.9750238 55.94491028 114.52817261 55.3812561 115.0980835 C51.12905757 119.27400904 47.22766469 122.10761424 41.125 122.75 C35.48088066 122.13427789 32.19797377 119.13655362 28.29956055 115.19824219 C27.4648674 114.36017029 26.63017426 113.52209839 25.77018738 112.65863037 C24.88051773 111.7555011 23.99084808 110.85237183 23.07421875 109.921875 C21.65531827 108.49502465 20.23641505 107.06817701 18.81735706 105.64148331 C16.83428008 103.64530208 14.85578379 101.64461121 12.87731934 99.64385986 C8.955697 95.67906049 5.02743283 91.72087431 1.09565163 87.76615143 C-0.26482026 86.39560236 -1.62163542 85.02142651 -2.97834778 83.64715576 C-7.37381657 79.21768064 -11.83047718 74.95247928 -16.56614685 70.88858032 C-20.81113253 67.20941222 -24.71603885 63.15604525 -28.6875 59.1875 C-29.58855469 58.29869141 -30.48960938 57.40988281 -31.41796875 56.49414062 C-32.27777344 55.63626953 -33.13757813 54.77839844 -34.0234375 53.89453125 C-34.79993652 53.12214111 -35.57643555 52.34975098 -36.37646484 51.55395508 C-39.36242369 48.19333935 -40.60879008 45.48646526 -40.6875 41 C-40.71585937 40.27039063 -40.74421875 39.54078125 -40.7734375 38.7890625 C-39.59493963 32.61692961 -34.22996538 27.99684088 -29.9375 23.734375 C-29.33115723 23.12611877 -28.72481445 22.51786255 -28.10009766 21.89117432 C-26.82504718 20.61477003 -25.54749629 19.34085908 -24.26757812 18.06933594 C-22.31144214 16.12394795 -20.36625346 14.1680692 -18.421875 12.2109375 C-17.17772441 10.96810792 -15.93295387 9.72589856 -14.6875 8.484375 C-14.10822754 7.90105408 -13.52895508 7.31773315 -12.93212891 6.71673584 C-8.93516831 2.7658103 -5.83623283 0.10366311 0 0 Z " fill="#C0C8D1" transform="translate(148.3125,276.625)"/>
<path d="M0 0 C0.66 0 1.32 0 2 0 C2.34998047 0.90878906 2.34998047 0.90878906 2.70703125 1.8359375 C10.90902388 20.67443646 32.98024249 29.85910956 51 37.2265625 C51.99 37.60941406 51.99 37.60941406 53 38 C52.7834375 38.55945313 52.566875 39.11890625 52.34375 39.6953125 C49.74297746 47.18457417 49.69380773 54.12972454 50 62 C40.81860818 64.98040424 31.63359989 67.7106359 22.19140625 69.74609375 C21.51665756 69.89244766 20.84190887 70.03880157 20.14671326 70.18959045 C16.79098384 70.91307032 13.43234436 71.61424352 10.06616211 72.28735352 C-2.29351486 74.89908744 -14.28590535 79.06290542 -21.625 89.9375 C-22.19476563 90.77152344 -22.76453125 91.60554688 -23.3515625 92.46484375 C-24.47220232 94.18829219 -25.5283283 95.955055 -26.5234375 97.75390625 C-28 100 -28 100 -31 101 C-38.27575805 77.65694294 -34.02432647 53.04815111 -23.07714844 31.70727539 C-16.89494319 19.97402493 -9.39684327 9.39684327 0 0 Z " fill="#D91F16" transform="translate(62,410)"/>
<path d="M0 0 C1.10947998 0.07460449 2.21895996 0.14920898 3.36206055 0.22607422 C7.67649461 1.14391571 9.11825518 2.42798635 12.13671875 5.5859375 C13.04357422 6.51664062 13.95042969 7.44734375 14.88476562 8.40625 C15.81963367 9.39524456 16.75387303 10.38483376 17.6875 11.375 C19.54072327 13.30420892 21.40157145 15.22588697 23.26171875 17.1484375 C24.07600342 18.00614746 24.89028809 18.86385742 25.72924805 19.74755859 C27.89626648 22.02277445 27.89626648 22.02277445 30.29614258 23.61572266 C31.139552 24.30093994 31.139552 24.30093994 32 25 C32 25.99 32 26.98 32 28 C31.11985229 28.44315552 31.11985229 28.44315552 30.22192383 28.89526367 C10.77887861 38.73475447 -8.08923839 49.16602539 -25 63 C-25.97324219 63.77085937 -26.94648437 64.54171875 -27.94921875 65.3359375 C-33.6622724 69.90326279 -38.95934457 74.69936808 -44 80 C-46.00517107 76.99224339 -46.47267277 75.3897108 -47.11328125 71.9140625 C-47.30647949 70.90682129 -47.49967773 69.89958008 -47.69873047 68.86181641 C-47.90127441 67.79366699 -48.10381836 66.72551758 -48.3125 65.625 C-51.04712261 51.98422544 -54.47694 41.20923767 -63 30 C-63.82318486 28.79892033 -64.63767258 27.59175873 -65.4375 26.375 C-65.953125 25.59125 -66.46875 24.8075 -67 24 C-48.20053364 7.71290472 -25.11123026 -1.7410453 0 0 Z " fill="#5F4C44" transform="translate(108,329)"/>
<path d="M0 0 C0.71800781 -0.02835937 1.43601563 -0.05671875 2.17578125 -0.0859375 C8.59478454 1.09204444 12.73980893 5.10510518 16.875 9.875 C17.80996825 10.93453117 18.7475663 11.9917463 19.6875 13.046875 C20.17089844 13.59021484 20.65429688 14.13355469 21.15234375 14.69335938 C23.80130942 17.59508894 26.58505246 20.35959501 29.375 23.125 C29.90440186 23.65029297 30.43380371 24.17558594 30.97924805 24.71679688 C32.21325397 25.93830083 33.45004941 27.15698581 34.6875 28.375 C34.0275 28.705 33.3675 29.035 32.6875 29.375 C32.0275 29.045 31.3675 28.715 30.6875 28.375 C24.83383199 27.81214731 22.33153749 28.89758235 17.6875 32.375 C15.37454588 34.43927355 13.18985614 36.61511408 11.01171875 38.8203125 C10.40109085 39.43139862 9.79046295 40.04248474 9.16133118 40.67208862 C7.88080787 41.95561643 6.60269897 43.2415571 5.3269043 44.52978516 C3.36889251 46.50616478 1.40288437 48.47431373 -0.56445312 50.44140625 C-1.81037066 51.69223555 -3.05582987 52.94352158 -4.30078125 54.1953125 C-4.88926346 54.78490753 -5.47774567 55.37450256 -6.08406067 55.98196411 C-10.26809565 59.99667915 -10.26809565 59.99667915 -11.41015625 65.4140625 C-11.39855469 66.59742188 -11.38695312 67.78078125 -11.375 69 C-11.36597656 70.18851562 -11.35695312 71.37703125 -11.34765625 72.6015625 C-11.33605469 73.51679688 -11.32445312 74.43203125 -11.3125 75.375 C-17.41219283 70.3183463 -23.0225168 64.84840867 -28.625 59.25 C-29.53056641 58.35667969 -30.43613281 57.46335937 -31.36914062 56.54296875 C-32.66561523 55.24939453 -32.66561523 55.24939453 -33.98828125 53.9296875 C-34.77114502 53.15093262 -35.55400879 52.37217773 -36.3605957 51.56982422 C-39.35590455 48.20174085 -40.60857839 45.49853161 -40.6875 41 C-40.71585937 40.27039063 -40.74421875 39.54078125 -40.7734375 38.7890625 C-39.59493963 32.61692961 -34.22996538 27.99684088 -29.9375 23.734375 C-29.33115723 23.12611877 -28.72481445 22.51786255 -28.10009766 21.89117432 C-26.82504718 20.61477003 -25.54749629 19.34085908 -24.26757812 18.06933594 C-22.31144214 16.12394795 -20.36625346 14.1680692 -18.421875 12.2109375 C-17.17772441 10.96810792 -15.93295387 9.72589856 -14.6875 8.484375 C-14.10822754 7.90105408 -13.52895508 7.31773315 -12.93212891 6.71673584 C-8.93516831 2.7658103 -5.83623283 0.10366311 0 0 Z " fill="#A6AEB9" transform="translate(148.3125,276.625)"/>
</svg>
