<?xml version="1.0" encoding="UTF-8"?>
<svg version="1.1" xmlns="http://www.w3.org/2000/svg" width="512" height="512">
<path d="M0 0 C0.82993469 0.00060425 1.65986938 0.0012085 2.51495361 0.00183105 C46.42395469 0.08814385 90.65308026 6.93199299 129.625 28.1875 C130.5207373 28.66654785 130.5207373 28.66654785 131.43457031 29.15527344 C143.78131114 35.78281551 155.1461765 43.54476474 165.40234375 53.1171875 C167.40626734 54.98375956 169.46252915 56.74366074 171.5625 58.5 C186.8584666 71.96411431 199.18520281 89.21670598 208.625 107.1875 C208.955 107.1875 209.285 107.1875 209.625 107.1875 C209.64783554 106.37556183 209.67067108 105.56362366 209.69419861 104.7270813 C209.9121869 96.9919235 210.13256805 89.25683901 210.35549068 81.52182198 C210.46995566 77.54729767 210.58356603 73.57275315 210.69506836 69.59814453 C210.94500179 60.70561489 211.20731432 51.81366724 211.50164795 42.92248535 C211.5775153 40.62529254 211.65113893 38.32802272 211.7210083 36.03063965 C211.80082215 33.51697369 211.89775085 31.00485571 212.00390625 28.4921875 C212.05232666 27.23132324 212.10074707 25.97045898 212.15063477 24.67138672 C213.24968409 16.59962459 216.56012533 10.61460015 222.625 5.1875 C229.54007256 0.71076459 236.45869091 -0.65366488 244.625 0.1875 C250.84643396 1.84414812 255.45926972 4.16411937 259.625 9.1875 C260.346875 10.0125 261.06875 10.8375 261.8125 11.6875 C266.76021314 18.51193191 266.77987702 26.30184959 267.00427246 34.42437744 C267.03300619 35.346655 267.06173991 36.26893257 267.09134436 37.21915793 C267.1865496 40.30778382 267.27588859 43.39655103 267.36523438 46.48535156 C267.43238579 48.70425424 267.49988428 50.92314644 267.56770325 53.14202881 C267.75134451 59.18712273 267.92974048 65.23236105 268.10696602 71.27764606 C268.25679725 76.37167148 268.40922345 81.46561791 268.56164885 86.55956626 C268.94424088 99.34650075 269.32186746 112.13357497 269.69715923 124.92072532 C269.99848321 135.18328122 270.30436864 145.44569236 270.61376953 155.70800781 C271.01395901 168.9822218 271.40917963 182.25657648 271.80062866 195.53105164 C271.95376732 200.7212986 272.10869329 205.91148766 272.26504517 211.10163879 C272.98838434 235.17037847 273.70279703 259.23012953 273.8203125 283.31054688 C273.83059129 284.93266315 273.8410914 286.55477803 273.85182953 288.17689133 C273.92499072 300.15198218 273.92499072 300.15198218 273.87031555 305.50531769 C273.83498065 309.15220483 273.83722012 312.79733889 273.84570312 316.44433594 C273.82031464 317.46995384 273.79492615 318.49557175 273.76876831 319.55226898 C273.76121722 324.70300367 273.76121722 324.70300367 276.15744019 329.0878067 C277.91323525 330.59402668 279.72251221 331.87656283 281.625 333.1875 C295.3852184 349.1000197 301.19727663 368.11813286 299.83935547 388.86767578 C296.35995124 426.5229138 267.84947284 463.17647211 244.296875 491.15625 C242.48633074 493.28664813 242.48633074 493.28664813 240.625 496.1875 C239.965 496.1875 239.305 496.1875 238.625 496.1875 C238.52795776 495.3056604 238.52795776 495.3056604 238.42895508 494.40600586 C236.10571633 473.95552231 232.32804567 453.88934477 216.625 439.1875 C213.69168943 436.86191952 210.69777559 434.64975299 207.6640625 432.45703125 C201.53460669 427.87963559 195.9980965 422.62165442 190.625 417.1875 C188.93629191 419.01973301 187.24886762 420.85311437 185.5625 422.6875 C185.05662354 423.23704346 184.55074707 423.78658691 184.02954102 424.3527832 C181.31294467 427.31307104 178.6540193 430.30380044 176.0625 433.375 C139.84995039 474.8952992 80.49973257 491.80666562 27.5546875 495.75390625 C18.97379473 496.29031364 10.40830203 496.38702942 1.8125 496.375 C1.00718842 496.37439575 0.20187683 496.3737915 -0.62783813 496.37316895 C-59.69470824 496.25372275 -123.25854501 485.22669238 -167.25 442.6875 C-185.98931573 423.28970173 -196.96713773 398.33510036 -196.72851562 371.2487793 C-196.03759856 346.86187447 -185.2348083 325.16795469 -167.625 308.5 C-158.40869061 300.58629969 -148.32169274 295.63698697 -137.3125 290.75 C-128.36634648 286.7605269 -120.69686453 282.79503628 -113.375 276.1875 C-112.55128906 275.48238281 -111.72757812 274.77726562 -110.87890625 274.05078125 C-103.62668193 267.41779447 -97.68480244 258.49540587 -97.2109375 248.3984375 C-98.05956181 236.96221469 -104.67942698 228.11096163 -112.74609375 220.4296875 C-121.49790573 212.96528917 -131.12532362 208.26799981 -141.5625 203.625 C-149.98637815 199.87646141 -157.38034557 196.27725158 -164.375 190.1875 C-165.63570312 189.16269531 -165.63570312 189.16269531 -166.921875 188.1171875 C-183.47248505 174.124399 -193.92219323 153.66675184 -196.375 132.1875 C-197.97420924 105.370232 -190.2781323 80.08141963 -172.50415039 59.73413086 C-171.13886228 58.20805516 -169.75969239 56.69596378 -168.375 55.1875 C-167.29798828 53.98673828 -167.29798828 53.98673828 -166.19921875 52.76171875 C-125.38778384 9.49083766 -56.38360954 -0.07639864 0 0 Z M-97.59765625 342.50390625 C-106.63728981 353.03043281 -110.90798798 365.80725249 -110.25 379.625 C-108.71800578 394.33562633 -102.40345268 406.57480672 -91.12890625 416.1796875 C-78.92650284 425.07619154 -65.16417745 428.63688318 -50.25 426.625 C-36.30524213 423.8399166 -24.39363337 415.52778673 -16.5 403.8125 C-8.4412134 390.26081404 -6.48244921 376.65256147 -10.34375 361.421875 C-14.78558877 347.49065341 -24.48258882 336.85537704 -37.375 330.1875 C-58.943872 320.76727361 -81.22858873 325.44440355 -97.59765625 342.50390625 Z " fill="#F9C075" transform="translate(204.375,7.8125)"/>
<path d="M0 0 C2.875 2.4375 2.875 2.4375 5 5 C5.721875 5.825 6.44375 6.65 7.1875 7.5 C12.13414328 14.32295625 12.15517384 22.11582894 12.38600159 30.23687744 C12.41544088 31.159155 12.44488017 32.08143257 12.47521156 33.03165793 C12.57275642 36.12028075 12.664438 39.20904907 12.75610352 42.29785156 C12.82489283 44.51675401 12.89401343 46.73564621 12.96343994 48.95452881 C13.15136349 54.99961392 13.33387413 61.04485079 13.51489758 67.09014606 C13.62913394 70.89821507 13.74446028 74.70624952 13.86015129 78.5142746 C14.18280471 89.13774537 14.50426537 99.76124904 14.82019138 110.38492203 C14.84042954 111.06546445 14.8606677 111.74600687 14.88151914 112.44717179 C14.92251912 113.82608012 14.96351772 115.20498849 15.00451494 116.58389691 C15.02485851 117.26809569 15.04520207 117.95229448 15.06616211 118.65722656 C15.08653091 119.34230615 15.10689971 120.02738574 15.12788575 120.73322532 C15.43324007 130.99586572 15.74619007 141.25825251 16.06420898 151.52050781 C19.72890185 269.86093633 19.72890185 269.86093633 19 323 C18.39542434 322.83761904 17.79084867 322.67523808 17.16795254 322.50793648 C14.46686088 321.87508914 11.98411801 321.87276106 9.20922852 321.87060547 C8.04444473 321.86745331 6.87966095 321.86430115 5.67958069 321.86105347 C4.42535812 321.8630777 3.17113556 321.86510193 1.87890625 321.8671875 C0.58685776 321.86623077 -0.70519073 321.86527405 -2.03639221 321.86428833 C-4.7691467 321.86281571 -7.50186846 321.86495156 -10.23461914 321.86962891 C-13.72932517 321.87532028 -17.2239543 321.87204819 -20.71865749 321.86605644 C-24.06114233 321.86156343 -27.40360674 321.86471431 -30.74609375 321.8671875 C-31.99829208 321.86516327 -33.25049042 321.86313904 -34.54063416 321.86105347 C-35.7085701 321.86420563 -36.87650604 321.86735779 -38.07983398 321.87060547 C-39.10479477 321.87140106 -40.12975555 321.87219666 -41.18577576 321.87301636 C-43.8935315 321.99519592 -46.36303638 322.39100348 -49 323 C-49.27125022 291.10723381 -48.92365806 259.25713515 -48.125 227.375 C-48.10294369 226.4939497 -48.08088737 225.6128994 -48.05816269 224.7051506 C-47.36305869 197.07221714 -46.57071886 169.44186946 -45.74550152 141.81254482 C-45.2331602 124.64723368 -44.78124674 107.48212174 -44.4375 90.3125 C-44.40908524 88.89507004 -44.40908524 88.89507004 -44.38009644 87.44900513 C-44.36157623 86.52489838 -44.34305603 85.60079163 -44.32397461 84.64868164 C-43.9915114 68.09511074 -43.56608616 51.54731695 -43 35 C-42.95407715 33.49445557 -42.95407715 33.49445557 -42.90722656 31.95849609 C-42.82757673 29.42983774 -42.73062337 26.9026858 -42.625 24.375 C-42.57601563 23.10398437 -42.52703125 21.83296875 -42.4765625 20.5234375 C-41.37892103 12.4080883 -38.10551927 6.46347061 -32 1 C-21.82236486 -5.58887947 -10.63380637 -5.8381682 0 0 Z " fill="#A56A43" transform="translate(459,12)"/>
<path d="M0 0 C1.28543198 -0.00287018 2.57086395 -0.00574036 3.89524841 -0.00869751 C6.60597647 -0.01310169 9.31640642 -0.00675098 12.02709961 0.00732422 C15.48932599 0.0244327 18.95085539 0.01455315 22.41305637 -0.00339317 C25.73375916 -0.01688049 29.05427746 -0.0074202 32.375 0 C33.61262589 -0.00607269 34.85025177 -0.01214539 36.12538147 -0.0184021 C44.2992726 0.04833747 49.68270326 1.17727044 55.98828125 6.70703125 C69.76171705 20.9747291 76.36065548 39.69262461 76.0871582 59.2644043 C74.53163653 98.88821986 44.84110389 137.20474124 20.29296875 166.3671875 C18.48242449 168.49758563 18.48242449 168.49758563 16.62109375 171.3984375 C15.96109375 171.3984375 15.30109375 171.3984375 14.62109375 171.3984375 C14.55639893 170.81054443 14.4917041 170.22265137 14.42504883 169.61694336 C12.10181008 149.16645981 8.32413942 129.10028227 -7.37890625 114.3984375 C-10.32082871 112.06602936 -13.32655011 109.84543947 -16.359375 107.6328125 C-29.63131828 97.81191786 -39.77566942 85.30323603 -43.98828125 69.046875 C-46.86587328 49.53680106 -42.35271301 30.30880099 -30.74609375 14.4609375 C-21.61697447 2.65032774 -14.755037 -0.07251755 0 0 Z " fill="#F5EEC9" transform="translate(428.37890625,332.6015625)"/>
<path d="M0 0 C5.48861312 3.94407878 9.18264062 8.50965443 12.39453125 14.42578125 C12.80832031 15.18632813 13.22210938 15.946875 13.6484375 16.73046875 C17.53321297 24.9873086 17.86093068 34.51396819 15.20703125 43.23828125 C14.63990264 44.64956903 14.03503145 46.04624236 13.39453125 47.42578125 C13.06582031 48.1734375 12.73710937 48.92109375 12.3984375 49.69140625 C7.65058665 59.35139344 -0.6787406 65.59643082 -10.60546875 69.42578125 C-21.54445012 72.20080926 -31.81698121 70.91011115 -41.60546875 65.42578125 C-51.70559594 59.15405358 -57.88208909 49.99249486 -60.60546875 38.42578125 C-61.92891293 27.35206467 -59.55462613 17.27016337 -52.60546875 8.42578125 C-50.23046875 5.86328125 -50.23046875 5.86328125 -47.60546875 3.42578125 C-46.24421875 2.15734375 -46.24421875 2.15734375 -44.85546875 0.86328125 C-31.5883909 -10.03222051 -14.03152875 -8.47782022 0 0 Z " fill="#30A8CB" transform="translate(239.60546875,57.57421875)"/>
<path d="M0 0 C8.11796526 5.4325547 14.11195303 14.60952149 16.359375 24.08984375 C18.39842162 36.27046435 15.62103939 46.60905141 8.8046875 56.75 C2.94385434 64.21469287 -5.17035293 68.21277339 -14.1953125 70.75 C-25.83106057 71.92846063 -35.21262284 70.69937804 -44.9453125 63.80078125 C-52.7054836 57.36861562 -58.46165203 48.80523072 -60.1953125 38.75 C-61.16527287 27.38327696 -59.29150911 17.62179887 -51.94921875 8.66015625 C-37.88374846 -6.65836261 -18.5367248 -10.55471875 0 0 Z " fill="#50BA6F" transform="translate(350.1953125,108.25)"/>
<path d="M0 0 C8.16122388 5.15445719 13.70033207 12.7919742 16.35229492 22.15600586 C18.77601111 33.18423597 17.45904259 43.53573883 11.87109375 53.25 C7.06092421 60.25988654 1.79451775 65.18466238 -6.1875 68.25 C-7.06921875 68.60320312 -7.9509375 68.95640625 -8.859375 69.3203125 C-18.00685101 71.87559336 -29.27083296 71.80826966 -37.875 67.6875 C-48.21659185 61.52009816 -55.51182304 53.96811406 -58.6796875 42.15234375 C-60.7812289 30.14122639 -59.41201729 20.04787449 -52.4375 10.0625 C-38.70287021 -6.88370989 -19.04385282 -10.56736046 0 0 Z " fill="#FE5364" transform="translate(392.1875,227.75)"/>
<path d="M0 0 C1.30167114 0.00761353 1.30167114 0.00761353 2.62963867 0.01538086 C12.74490602 0.37500575 20.74007033 4.15352288 28.3125 10.9375 C37.54977935 21.30013318 39.07901013 32.33842497 38.48291016 45.66992188 C37.74660883 54.38739203 32.37213171 61.68991231 26.3125 67.6875 C23.11975812 70.00775086 19.83425276 71.91464487 16.3125 73.6875 C15.61511719 74.05617188 14.91773438 74.42484375 14.19921875 74.8046875 C11.30769506 76.15765717 8.45483973 76.44578156 5.3125 76.6875 C3.86617187 76.80351562 3.86617187 76.80351562 2.390625 76.921875 C-8.52325607 77.39185074 -16.69635451 74.55307333 -25.0625 67.5 C-32.48585743 60.32727039 -37.1121403 52.25061477 -38.0234375 41.85546875 C-38.14921342 29.03890292 -35.62399767 20.18936793 -26.6875 10.6875 C-18.97121889 3.6168669 -10.46945551 -0.08913227 0 0 Z " fill="#955BA4" transform="translate(97.6875,85.3125)"/>
<path d="M0 0 C33.66 0.495 33.66 0.495 68 1 C68 12.88 68 24.76 68 37 C66.02 36.505 66.02 36.505 64 36 C62.07141305 35.908866 60.13996692 35.87210531 58.20922852 35.87060547 C56.46205284 35.86587723 56.46205284 35.86587723 54.67958069 35.86105347 C53.42535812 35.8630777 52.17113556 35.86510193 50.87890625 35.8671875 C49.58685776 35.86623077 48.29480927 35.86527405 46.96360779 35.86428833 C44.2308533 35.86281571 41.49813154 35.86495156 38.76538086 35.86962891 C35.27067483 35.87532028 31.7760457 35.87204819 28.28134251 35.86605644 C24.93885767 35.86156343 21.59639326 35.86471431 18.25390625 35.8671875 C17.00170792 35.86516327 15.74950958 35.86313904 14.45936584 35.86105347 C12.70746193 35.86578171 12.70746193 35.86578171 10.92016602 35.87060547 C9.89520523 35.87140106 8.87024445 35.87219666 7.81422424 35.87301636 C4.61142419 35.94622802 4.61142419 35.94622802 0 37 C0 24.79 0 12.58 0 0 Z " fill="#CB8252" transform="translate(410,298)"/>
</svg>
